<?xml version="1.0" standalone="no"?>
<!DOCTYPE svg PUBLIC "-//W3C//DTD SVG 20010904//EN"
 "http://www.w3.org/TR/2001/REC-SVG-20010904/DTD/svg10.dtd">
<svg version="1.0" xmlns="http://www.w3.org/2000/svg"
 width="642.000000pt" height="642.000000pt" viewBox="0 0 642.000000 642.000000"
 preserveAspectRatio="xMidYMid meet">
<metadata>
Created by potrace 1.11, written by Peter Selinger 2001-2013
</metadata>
<g transform="translate(0.000000,642.000000) scale(0.100000,-0.100000)"
fill="#000000" stroke="none">
<path d="M2123 5686 c-197 -94 -131 -396 87 -396 125 0 213 87 213 211 0 153
-160 252 -300 185z"/>
<path d="M5552 5602 c-90 -32 -166 -109 -191 -193 -16 -52 -14 -138 5 -192 20
-60 84 -131 148 -165 70 -36 188 -38 257 -4 185 91 231 331 91 475 -81 85
-206 116 -310 79z"/>
<path d="M4597 5459 c-11 -6 -25 -26 -33 -45 -37 -89 69 -165 140 -99 26 24
35 71 20 110 -14 36 -89 56 -127 34z"/>
<path d="M3422 5310 c-225 -32 -452 -142 -608 -294 l-67 -66 -71 19 c-185 51
-430 54 -610 7 -120 -31 -264 -95 -366 -161 -90 -58 -270 -236 -328 -322 -171
-254 -241 -558 -198 -852 l17 -114 -31 -36 c-170 -198 -254 -385 -281 -623
-26 -238 41 -502 182 -709 169 -249 475 -428 777 -454 78 -7 83 -9 88 -34 60
-276 220 -493 455 -620 158 -85 302 -118 482 -108 228 12 406 90 578 254 l75
72 75 -29 c41 -15 109 -35 151 -44 88 -18 266 -21 354 -5 331 58 613 298 727
617 l33 92 89 52 c279 165 448 464 448 793 -1 154 -27 267 -92 400 l-48 98 24
55 c69 156 87 390 44 566 -53 219 -186 417 -368 549 -69 50 -222 122 -304 142
-61 16 -67 19 -73 47 -10 49 -92 215 -140 282 -63 89 -209 223 -304 280 -97
58 -226 108 -337 131 -95 20 -285 27 -373 15z m2 -514 c268 -131 388 -556 239
-850 -38 -75 -114 -149 -184 -181 -83 -37 -186 -33 -272 10 -256 128 -376 545
-240 833 45 96 140 183 233 213 50 17 165 4 224 -25z m-1084 -429 c172 -62
325 -229 385 -420 49 -153 43 -275 -18 -390 -59 -111 -155 -162 -294 -155 -73
4 -93 10 -170 48 -124 61 -224 163 -287 292 -63 127 -80 200 -74 318 4 76 10
106 31 151 78 163 243 224 427 156z m2055 -48 c104 -39 194 -152 230 -290 19
-71 19 -220 0 -294 -39 -146 -132 -271 -242 -323 -78 -36 -185 -38 -253 -2
-72 37 -107 68 -150 132 -56 85 -81 172 -83 288 -1 160 42 283 134 384 109
119 231 155 364 105z m-1003 -808 c87 -30 144 -63 313 -181 195 -136 254 -170
415 -236 262 -107 396 -220 489 -414 35 -73 36 -78 36 -195 0 -118 -1 -121
-37 -198 -50 -105 -129 -187 -223 -232 -84 -40 -169 -58 -370 -81 -274 -30
-397 -74 -575 -204 -301 -220 -407 -269 -550 -257 -218 18 -400 187 -449 415
-16 75 -14 220 5 310 8 42 31 113 51 157 98 225 118 280 177 512 35 137 76
277 90 312 77 182 184 268 387 311 60 12 177 3 241 -19z m-1415 -162 c156 -58
284 -183 351 -341 22 -54 26 -77 27 -168 0 -90 -3 -111 -23 -147 -36 -69 -78
-108 -144 -138 -202 -91 -484 40 -613 286 -123 234 -56 455 158 525 56 19 169
11 244 -17z"/>
<path d="M805 4715 c-50 -49 -24 -133 46 -150 62 -15 123 57 100 118 -22 58
-103 76 -146 32z"/>
<path d="M5679 4461 c-56 -56 -27 -145 52 -157 28 -5 41 -1 67 21 27 22 32 34
32 70 0 36 -5 48 -31 69 -41 35 -83 34 -120 -3z"/>
<path d="M171 3878 c-65 -11 -114 -48 -145 -109 -103 -208 146 -404 323 -253
51 44 75 105 69 179 -10 124 -120 206 -247 183z"/>
<path d="M6089 3432 c-107 -56 -150 -186 -98 -298 65 -138 258 -166 366 -53
80 85 82 210 4 300 -70 82 -175 102 -272 51z"/>
<path d="M312 2790 c-70 -43 -78 -136 -17 -197 29 -29 40 -33 84 -33 42 0 56
5 85 31 60 52 61 126 1 186 -27 27 -40 33 -76 33 -26 0 -57 -8 -77 -20z"/>
<path d="M245 1731 c-50 -22 -109 -86 -125 -136 -20 -60 -7 -150 27 -199 88
-125 248 -142 352 -38 65 66 86 144 61 233 -13 48 -75 118 -124 140 -53 24
-139 24 -191 0z"/>
<path d="M5243 1599 c-80 -40 -123 -112 -123 -206 0 -74 25 -129 79 -175 130
-111 318 -52 371 116 32 100 -31 228 -132 270 -54 23 -144 20 -195 -5z"/>
<path d="M1500 1352 c-71 -23 -60 -132 13 -132 30 0 67 39 67 72 0 37 -46 71
-80 60z"/>
<path d="M3844 960 c-11 -4 -33 -22 -47 -40 -52 -61 -31 -157 43 -195 84 -43
180 19 180 115 0 92 -91 155 -176 120z"/>
</g>
</svg>
