<svg id="f52a33bb-f0f0-440f-a6eb-12ce17e2b83a" xmlns="http://www.w3.org/2000/svg" viewBox="0 0 974.38 701.16"><defs><style>.cls-1{fill:#f2f2f2;}.cls-2{opacity:0.03;}.cls-2,.cls-4,.cls-9{isolation:isolate;}.cls-3{fill:#3f3d56;}.cls-4{opacity:0.1;}.cls-5{fill:#a6823f;}.cls-11,.cls-6{fill:none;stroke:#3f3d56;stroke-miterlimit:10;}.cls-6{stroke-width:4px;}.cls-7{fill:#8cbf75;}.cls-8{fill:#656380;}.cls-9{opacity:0.2;}.cls-10{fill:#915766;}.cls-12{fill:#b56d7e;}.cls-13{fill:#9c5e6d;}.cls-14{fill:#fff;}.cls-15{fill:#fbbebe;}.cls-16{fill:#5e8c49;}.cls-17{fill:#7c5f31;}</style></defs><path class="cls-1" d="M670.3,276.61H542V248.87a6.64,6.64,0,0,0-6.64-6.64H497.62V212.66a4.18,4.18,0,0,0-4.18-4.18H444.89a4.18,4.18,0,0,0-4.18,4.18v29.57H396.4a6.64,6.64,0,0,0-6.64,6.64h0v27.74H267.37A1.36,1.36,0,0,0,266,278V646.5a1.36,1.36,0,0,0,1.34,1.35h81.34a1.34,1.34,0,0,0,1.35-1.35V596.92a1.37,1.37,0,0,1,1.35-1.35h34.36a1.37,1.37,0,0,1,1.35,1.35V646.5a1.36,1.36,0,0,0,1.34,1.35H549.19a1.37,1.37,0,0,0,1.35-1.35V596.92a1.36,1.36,0,0,1,1.34-1.35h34.36a1.34,1.34,0,0,1,1.35,1.35V646.5a1.37,1.37,0,0,0,1.35,1.35h81.34a1.37,1.37,0,0,0,1.35-1.35V278A1.36,1.36,0,0,0,670.3,276.61ZM335.5,578.35a1.34,1.34,0,0,1-1.34,1.34H283.92a1.34,1.34,0,0,1-1.35-1.33h0V561.19a1.34,1.34,0,0,1,1.35-1.35h50.27a1.36,1.36,0,0,1,1.34,1.35Zm0-44.34a1.34,1.34,0,0,1-1.33,1.35H283.92a1.34,1.34,0,0,1-1.35-1.33V516.86a1.34,1.34,0,0,1,1.33-1.35h50.29a1.34,1.34,0,0,1,1.34,1.34h0Zm0-44.33a1.36,1.36,0,0,1-1.34,1.35H283.92a1.34,1.34,0,0,1-1.35-1.35V472.52a1.34,1.34,0,0,1,1.35-1.35h50.27a1.36,1.36,0,0,1,1.34,1.35Zm0-44.34a1.34,1.34,0,0,1-1.33,1.35H283.92a1.34,1.34,0,0,1-1.35-1.33V428.19a1.34,1.34,0,0,1,1.33-1.35h50.29a1.34,1.34,0,0,1,1.34,1.34h0Zm0-44.33a1.36,1.36,0,0,1-1.34,1.35H283.92a1.34,1.34,0,0,1-1.35-1.35h0V383.85a1.34,1.34,0,0,1,1.34-1.34h50.28a1.34,1.34,0,0,1,1.34,1.34Zm0-44.33a1.34,1.34,0,0,1-1.34,1.34H283.92a1.34,1.34,0,0,1-1.35-1.33h0V339.52a1.34,1.34,0,0,1,1.35-1.35h50.27a1.36,1.36,0,0,1,1.34,1.35Zm0-44.34a1.34,1.34,0,0,1-1.33,1.35H283.92a1.34,1.34,0,0,1-1.35-1.33V295.19a1.34,1.34,0,0,1,1.33-1.35h50.29a1.34,1.34,0,0,1,1.34,1.34h0Zm119.11,266a1.34,1.34,0,0,1-1.34,1.34H403a1.36,1.36,0,0,1-1.35-1.34V561.19a1.37,1.37,0,0,1,1.35-1.35h50.24a1.34,1.34,0,0,1,1.35,1.35Zm0-44.34a1.34,1.34,0,0,1-1.33,1.35H403a1.34,1.34,0,0,1-1.35-1.35V516.86a1.34,1.34,0,0,1,1.35-1.35h50.24a1.34,1.34,0,0,1,1.35,1.33V534Zm0-44.33a1.34,1.34,0,0,1-1.35,1.35H403a1.37,1.37,0,0,1-1.35-1.35V472.52a1.37,1.37,0,0,1,1.35-1.35h50.24a1.34,1.34,0,0,1,1.35,1.35Zm0-44.34a1.34,1.34,0,0,1-1.33,1.35H403a1.34,1.34,0,0,1-1.35-1.35V428.19a1.34,1.34,0,0,1,1.35-1.35h50.24a1.34,1.34,0,0,1,1.35,1.33v17.16Zm0-44.33a1.34,1.34,0,0,1-1.35,1.35H403a1.37,1.37,0,0,1-1.35-1.35V383.85a1.36,1.36,0,0,1,1.35-1.34h50.24a1.34,1.34,0,0,1,1.35,1.33h0Zm0-44.33a1.34,1.34,0,0,1-1.34,1.34H403a1.36,1.36,0,0,1-1.35-1.34V339.52a1.37,1.37,0,0,1,1.35-1.35h50.24a1.34,1.34,0,0,1,1.35,1.35Zm0-44.34a1.34,1.34,0,0,1-1.33,1.35H403a1.34,1.34,0,0,1-1.35-1.35V295.19a1.34,1.34,0,0,1,1.35-1.35h50.24a1.34,1.34,0,0,1,1.35,1.33v17.16Zm81.39,266a1.34,1.34,0,0,1-1.34,1.34H484.41a1.36,1.36,0,0,1-1.35-1.34V561.19a1.37,1.37,0,0,1,1.35-1.35h50.24a1.34,1.34,0,0,1,1.35,1.35ZM536,534a1.34,1.34,0,0,1-1.33,1.35H484.41a1.34,1.34,0,0,1-1.35-1.35V516.86a1.34,1.34,0,0,1,1.35-1.35h50.24a1.34,1.34,0,0,1,1.35,1.33V534Zm0-44.33a1.34,1.34,0,0,1-1.35,1.35H484.41a1.37,1.37,0,0,1-1.35-1.35V472.52a1.37,1.37,0,0,1,1.35-1.35h50.24a1.34,1.34,0,0,1,1.35,1.35Zm0-44.34a1.34,1.34,0,0,1-1.33,1.35H484.41a1.34,1.34,0,0,1-1.35-1.35V428.19a1.34,1.34,0,0,1,1.35-1.35h50.24a1.34,1.34,0,0,1,1.35,1.33v17.15ZM536,401a1.34,1.34,0,0,1-1.35,1.35H484.41a1.37,1.37,0,0,1-1.35-1.35V383.85a1.36,1.36,0,0,1,1.35-1.34h50.24a1.34,1.34,0,0,1,1.35,1.33h0Zm0-44.33a1.34,1.34,0,0,1-1.34,1.34H484.41a1.36,1.36,0,0,1-1.35-1.34V339.52a1.37,1.37,0,0,1,1.35-1.35h50.24a1.34,1.34,0,0,1,1.35,1.35Zm0-44.34a1.34,1.34,0,0,1-1.33,1.35H484.41a1.34,1.34,0,0,1-1.35-1.35V295.19a1.34,1.34,0,0,1,1.35-1.35h50.24a1.34,1.34,0,0,1,1.35,1.33v17.15Zm119.11,266a1.36,1.36,0,0,1-1.35,1.34H603.52a1.34,1.34,0,0,1-1.35-1.33h0V561.19a1.34,1.34,0,0,1,1.35-1.35h50.24a1.37,1.37,0,0,1,1.35,1.35Zm0-44.34a1.34,1.34,0,0,1-1.35,1.35H603.52a1.34,1.34,0,0,1-1.33-1.32V516.86a1.34,1.34,0,0,1,1.33-1.35h50.26a1.34,1.34,0,0,1,1.35,1.35Zm0-44.33a1.37,1.37,0,0,1-1.35,1.35H603.52a1.34,1.34,0,0,1-1.35-1.35V472.52a1.34,1.34,0,0,1,1.35-1.35h50.24a1.37,1.37,0,0,1,1.35,1.35Zm0-44.34a1.34,1.34,0,0,1-1.35,1.35H603.52a1.34,1.34,0,0,1-1.35-1.33V428.19a1.34,1.34,0,0,1,1.33-1.35h50.26a1.34,1.34,0,0,1,1.35,1.35Zm0-44.33a1.37,1.37,0,0,1-1.35,1.35H603.52a1.35,1.35,0,0,1-1.33-1.32V383.85a1.34,1.34,0,0,1,1.34-1.34h50.25a1.36,1.36,0,0,1,1.35,1.34Zm0-44.33a1.36,1.36,0,0,1-1.35,1.34H603.52a1.35,1.35,0,0,1-1.35-1.33h0V339.52a1.34,1.34,0,0,1,1.35-1.35h50.24a1.37,1.37,0,0,1,1.35,1.35Zm0-44.34a1.34,1.34,0,0,1-1.35,1.35H603.52a1.34,1.34,0,0,1-1.35-1.33V295.19a1.34,1.34,0,0,1,1.33-1.35h50.26a1.34,1.34,0,0,1,1.35,1.35Z" transform="translate(0 -0.04)"/><path class="cls-1" d="M256,34.13,240.45,44l9.42-17.14a15.33,15.33,0,0,0-9.38-3.35h-.25a17.33,17.33,0,0,1-3.22-.24l-5.26,3.37,2.25-4.1a18.66,18.66,0,0,1-9.2-7l-9.41,6,5.94-10.81C215.84,4.09,208.42,0,200.25,0c-9.79,0-18.51,5.82-24.14,14.89a18,18,0,0,1-16,8.6h-.52C148.78,23.53,140,35.79,140,50.91s8.76,27.37,19.57,27.37a14.72,14.72,0,0,0,6.81-1.71,28.23,28.23,0,0,1,23.69-.46,24.63,24.63,0,0,0,20.14,0,28.24,28.24,0,0,1,23.47.46,14.69,14.69,0,0,0,6.75,1.67C251.26,78.24,260,66,260,50.87A34.74,34.74,0,0,0,256,34.13Z" transform="translate(0 -0.04)"/><path class="cls-2" d="M226.72,74.18A28.86,28.86,0,0,0,210,76a24.69,24.69,0,0,1-20.13,0c-7.39-3.27-16.64-3.2-23.69.47a14.72,14.72,0,0,1-6.82,1.7c-9.6,0-17.59-9.67-19.25-22.43a18.48,18.48,0,0,0,4.8-5.17c5.63-9.13,14.33-15,24.14-15s18.4,5.75,24,14.73A18.47,18.47,0,0,0,209,59.1h.25C216.88,59.11,223.5,65.24,226.72,74.18Z" transform="translate(0 -0.04)"/><path class="cls-1" d="M786,205.74l-7.76,4.87,4.7-8.55a7.66,7.66,0,0,0-4.68-1.67h-.12a8.67,8.67,0,0,1-1.61-.12l-2.62,1.67,1.12-2.05a9.4,9.4,0,0,1-4.59-3.48l-4.69,3,3-5.4a13.75,13.75,0,0,0-10.51-5.3c-4.88,0-9.23,2.91-12,7.43a9,9,0,0,1-8,4.29h-.26c-5.39,0-9.76,6.11-9.76,13.65s4.37,13.65,9.76,13.65a7.32,7.32,0,0,0,3.4-.85,14.09,14.09,0,0,1,11.81-.23,12.31,12.31,0,0,0,10.05,0,14.12,14.12,0,0,1,11.71.23,7.29,7.29,0,0,0,3.36.83c5.39,0,9.76-6.11,9.76-13.65A17.51,17.51,0,0,0,786,205.74Z" transform="translate(0 -0.04)"/><path class="cls-2" d="M771.36,225.71a14.55,14.55,0,0,0-8.37.91,12.3,12.3,0,0,1-5,1.06,12.48,12.48,0,0,1-5-1.08,14.11,14.11,0,0,0-11.82.23,7.2,7.2,0,0,1-3.4.85c-4.79,0-8.77-4.82-9.6-11.19a9.23,9.23,0,0,0,2.4-2.58c2.8-4.52,7.15-7.43,12-7.43s9.18,2.87,12,7.35a9.2,9.2,0,0,0,8,4.37h.13C766.45,218.2,769.75,221.26,771.36,225.71Z" transform="translate(0 -0.04)"/><path class="cls-3" d="M974.38,665v5A19.12,19.12,0,0,1,955.22,689c-.58,0-1.17,0-1.75-.08-39.15-3.72-78.12-10.64-117.4-9.44-72.42,2.21-145.44,31.83-215.54,13.53-19.77-5.16-39.32-14.13-59.66-12.2-18.25,1.73-34.49,12-52.17,16.89-53.77,14.76-108.51-22.54-164.26-21-36.74,1-71.92,18.89-108.62,16.9-21.27-1.14-41.53-8.92-62.28-13.71C121.88,668,68.68,674.63,15.45,678.77a14,14,0,0,1-15-12.89c0-.34,0-.69,0-1v-4.24a14,14,0,0,1,14-14l940.92-.76A19.12,19.12,0,0,1,974.38,665Z" transform="translate(0 -0.04)"/><path class="cls-4" d="M974.38,665v5A19.12,19.12,0,0,1,955.22,689c-.58,0-1.17,0-1.75-.08-39.15-3.72-78.12-10.64-117.4-9.44-72.42,2.21-145.44,31.83-215.54,13.53-19.77-5.16-39.32-14.13-59.66-12.2-18.25,1.73-34.49,12-52.17,16.89-53.77,14.76-108.51-22.54-164.26-21-36.74,1-71.92,18.89-108.62,16.9-21.27-1.14-41.53-8.92-62.28-13.71C121.88,668,68.68,674.63,15.45,678.77a14,14,0,0,1-15-12.89c0-.34,0-.69,0-1v-4.24a14,14,0,0,1,14-14l940.92-.76A19.12,19.12,0,0,1,974.38,665Z" transform="translate(0 -0.04)"/><path class="cls-5" d="M974.38,655.81v5a20.7,20.7,0,0,1-.11,2.08,19.11,19.11,0,0,1-20.8,17c-39.15-3.73-78.12-10.65-117.4-9.44-72.42,2.22-145.44,31.84-215.54,13.53-19.77-5.16-39.32-14.13-59.66-12.2-18.25,1.73-34.49,12-52.17,16.9-53.77,14.68-108.51-22.62-164.26-21.07-36.74,1-71.92,18.89-108.62,16.91-21.27-1.15-41.53-8.92-62.28-13.72-51.65-11.93-104.86-5.26-158.09-1.12A14,14,0,0,1,.38,655.76v-4.28a14,14,0,0,1,14-14l235.81-.2,481.81-.4,223.28-.18A19.11,19.11,0,0,1,974.38,655.81Z" transform="translate(0 -0.04)"/><path class="cls-6" d="M889,641.37c3-5.51-.41-12.26-4.29-17.18s-8.61-10-8.51-16.29c.15-9,9.7-14.31,17.33-19.08a84.78,84.78,0,0,0,15.56-12.51,23.09,23.09,0,0,0,4.78-6.4c1.58-3.52,1.53-7.52,1.43-11.38q-.49-19.26-1.9-38.49" transform="translate(0 -0.04)"/><path class="cls-7" d="M927.89,519.34a14,14,0,0,0-7-11.5l-3.14,6.22.09-7.53a14,14,0,1,0,10.06,12.81Z" transform="translate(0 -0.04)"/><path class="cls-7" d="M902.86,614.33a14,14,0,1,1,.68-11.3l-8.77,7.14,9.65-2.24A14,14,0,0,1,902.86,614.33Z" transform="translate(0 -0.04)"/><path class="cls-7" d="M895.93,587.09a14,14,0,0,1-4.45-27.54l-.08,5.78,3.18-6.29h0a14,14,0,0,1,14.67,13.3v.07a13.87,13.87,0,0,1-.6,4.79A14.05,14.05,0,0,1,895.93,587.09Z" transform="translate(0 -0.04)"/><path class="cls-7" d="M930,564.41a14,14,0,1,1,6.2-26.22L933.72,545l5.11-4.89a14,14,0,0,1,4.53,9.68,13.63,13.63,0,0,1-.35,3.87A14,14,0,0,1,930,564.41Z" transform="translate(0 -0.04)"/><path class="cls-4" d="M926,523.08c-3.24.36-6.39,1.37-9.64,1.57s-6.82-.58-8.88-3.11c-1.1-1.36-1.66-3.08-2.59-4.57a10.06,10.06,0,0,0-3.54-3.32,14,14,0,1,0,25.25,12.1,13.83,13.83,0,0,0,1-2.79C927.06,523,926.53,523,926,523.08Z" transform="translate(0 -0.04)"/><path class="cls-4" d="M930,564.41a14,14,0,0,1-13.35-20,10.27,10.27,0,0,1,2.82,2.83c1,1.51,1.61,3.25,2.78,4.63,2.19,2.58,5.92,3.42,9.31,3.26s6.66-1.11,10-1.42c.47-.05.94-.08,1.42-.09A14,14,0,0,1,930,564.41Z" transform="translate(0 -0.04)"/><path class="cls-4" d="M895.93,587.09a14,14,0,0,1-13.47-19.76,11,11,0,0,1,3,2.85c1.09,1.54,1.77,3.31,3,4.73,2.37,2.64,6.35,3.56,9.93,3.48s6.83-.93,10.28-1.19A14.05,14.05,0,0,1,895.93,587.09Z" transform="translate(0 -0.04)"/><path class="cls-4" d="M902.86,614.33a14,14,0,0,1-25.59-11.45h0a14.16,14.16,0,0,1,3.08,2.75c1.34,1.63,2.22,3.47,3.76,5,2.87,2.81,7.5,4,11.63,4.08A60.43,60.43,0,0,0,902.86,614.33Z" transform="translate(0 -0.04)"/><path class="cls-8" d="M867.81,635s11.08-.35,14.42-2.72,17-5.22,17.86-1.41,16.65,19,4.14,19.07-29-2-32.39-4S867.81,635,867.81,635Z" transform="translate(0 -0.04)"/><path class="cls-9" d="M904.46,648.61c-12.51.1-29.06-2-32.39-4-2.54-1.54-3.55-7.09-3.89-9.65h-.37s.7,8.93,4,11,19.89,4.08,32.39,4c3.61,0,4.86-1.32,4.79-3.22C908.52,647.9,907.19,648.61,904.46,648.61Z" transform="translate(0 -0.04)"/><path class="cls-10" d="M611,520c0,16.7,8.56,17.68,22.83,30.23s22.82-13.53,22.82-30.23-10.22-30.24-22.82-30.24S611,503.26,611,520Z" transform="translate(0 -0.04)"/><path class="cls-11" d="M465.31,369.92c-1.35,3.27.52,7.13,3.31,9.29s6.32,3.09,9.67,4.21c15,5,28.42,15.44,35.84,29.42s8.41,31.53,1.38,45.72c-3.75,7.57-9.56,14-13,21.69-6.92,15.3-3.41,34.07,6.53,47.61S538.45,544,554.7,548.21c0,0,42,33,57,24" transform="translate(0 -0.04)"/><path class="cls-10" d="M501.66,628.21s-2,17,7,18a116.36,116.36,0,0,0,13.2.43,14.41,14.41,0,0,0,12.07-22l-.27-.42C524.66,610.21,501.66,628.21,501.66,628.21Z" transform="translate(0 -0.04)"/><path class="cls-12" d="M506.66,614.21s22,29,55,3-7-38-7-38h-42l-25,11Z" transform="translate(0 -0.04)"/><path class="cls-10" d="M596.66,590.21s10,12,19,11c7.22-.8,21.52,6.12,19.15,18.7a14.22,14.22,0,0,1-16.5,11.5l-.12,0a11.38,11.38,0,0,1-8.53-7.18s-32,2-31-7S596.66,590.21,596.66,590.21Z" transform="translate(0 -0.04)"/><path class="cls-13" d="M514.19,595.71s13,20,0,33-27,15-27,15,5,9-14,8-25-7-19-16,21-19,18-26-7-22-1-31a33,33,0,0,1-6.3-6.94c-5.31-8.08,5.32-17.18,12.67-10.89l5.63,4.83s17-14,54-7c0,0,15-1,18-12,0,0-16-35,26-61a50.27,50.27,0,0,1,24-4c14,1,29,2,39,24,0,0,8.17,15,17.77,20.78a21.14,21.14,0,0,1,9.73,14.74c2.89,17.23-.77,44.63-59.5,30.48,0,0-4.5,36.5-32.5,51.5,0,0-2,10,0,13s12,17-4,16c-8-.49-14.17-.5-18.42-.37a10,10,0,0,1-8.75-15.36c.05-.09.11-.18.17-.27s3-14-7-25l-2-12Z" transform="translate(0 -0.04)"/><ellipse class="cls-10" cx="655.16" cy="537.68" rx="13" ry="5"/><path class="cls-14" d="M313.09,555.09a49.4,49.4,0,0,1-9.31,4c-5.78,1.58-12,1-17.81,2.35-2.39.55-5,1.71-5.75,4-.56,1.71,0,3.56.63,5.27,6.45,18.92,10.34,39,20.64,56.17a84.93,84.93,0,0,0,15.94,19.34c2.34,2.11,5,4.18,8.12,4.51a8.26,8.26,0,0,0,8.4-11.6c-.93-2-2.64-3.64-3.75-5.6-1.36-2.4-1.73-5.22-2.07-8-1-8.09-2-16.55.81-24.22,1.88-5.14,5.33-9.52,8.2-14.17s5.27-10,4.63-15.43c-.44-3.71-2.25-7.1-4.16-10.31s-5.7-11.86-9.55-12.93S316.58,553.3,313.09,555.09Z" transform="translate(0 -0.04)"/><path class="cls-14" d="M418.37,620.47a16,16,0,0,1-.75,5.41c-1.21,3.18-4.2,5.36-5.74,8.39-2.15,4.21-1.17,9.31.25,13.82.89,2.83,2.06,5.77,4.45,7.52,1.94,1.41,4.41,1.84,6.78,2.17,20.55,2.84,41.41,1.21,62.14,1.81,3.78.11,7.78.24,11.08-1.61s5.34-6.49,3.09-9.53c-2-2.73-6-2.7-9.38-2.87a38.57,38.57,0,0,1-23.82-9.81,17,17,0,0,1-3.34-3.84,23.32,23.32,0,0,1-1.75-4A179.23,179.23,0,0,0,451,605c-1.11-2.07-2.37-4.22-4.45-5.33a11.78,11.78,0,0,0-4.82-1.05c-5.17-.34-18.55-2.1-22.54,1.92C415.53,604.26,418.45,615.76,418.37,620.47Z" transform="translate(0 -0.04)"/><circle class="cls-15" cx="450.16" cy="128.68" r="33"/><path class="cls-15" d="M420.36,156c-2,5.26-5.29,10.19-10.13,13l45.64,9.31a48.17,48.17,0,0,1-.64-20.35,11.89,11.89,0,0,0,.27-5c-.86-3.31-4.59-4.91-7.92-5.67-8.33-1.9-15.7-2.92-23.44-6.59C421.78,144.71,422.11,151.29,420.36,156Z" transform="translate(0 -0.04)"/><path class="cls-3" d="M409.84,156.61a35.72,35.72,0,0,1,31.11.82c5.85,3.08,10.7,7.74,15.46,12.33,4.39,4.23,9.07,9.08,9.38,15.17.15,2.95-.77,5.83-1.24,8.75a29.35,29.35,0,0,0,15.7,30.14c3.62,6,4.37,13.36,4.43,20.41.21,26.69-8.21,53.71-2.2,79.72,1.41,6.1,3.6,12,4.82,18.16,1.58,8,1.5,16.15,2.33,24.23A108.3,108.3,0,0,0,495.45,392c-2,3.16-6.12,4.37-9.84,4.11s-7.21-1.87-10.53-3.57c-16.08-8.23-30.82-19.08-47.48-26.08-11-4.63-22.76-7.51-33.45-12.86s-20.64-13.83-23.91-25.32c-1.41-5-1.5-10.21-1.58-15.38-.32-21.77-.62-43.78,4.12-65,4.17-18.74,12.23-36.66,14-55.78.57-6.23.58-12.89,4.06-18.08C395.74,166.61,406.35,164.74,409.84,156.61Z" transform="translate(0 -0.04)"/><path class="cls-3" d="M431.39,129.18c1.95-2.54,5.7-2.88,8.81-2.13s6,2.35,9.1,3a5.35,5.35,0,0,0,4.27-.6c1.21-.93,1.58-2.56,1.84-4.07a77.63,77.63,0,0,0,.76-19.79,6,6,0,0,1,.18-2.78c.78-1.87,3.15-2.32,5.08-2.92A15.16,15.16,0,0,0,471.7,84.37a6.11,6.11,0,0,0-1.89-4.26c-1.34-1.09-3.21-1.16-4.94-1.18q-13.31-.11-26.61,0c-3.28,0-6.73.11-9.58,1.75-2.1,1.21-3.67,3.15-5.56,4.68-4.92,4-11.59,4.78-17.58,6.82a17.36,17.36,0,0,0-7.71,4.6c-2,2.28-2.95,5.66-1.7,8.42a29.74,29.74,0,0,0,2.15,3.31c3.54,5.65,1.18,13,1.71,19.63.66,8.3,12.94,21.77,21.27,23.73C434.71,155,426.94,134.61,431.39,129.18Z" transform="translate(0 -0.04)"/><path class="cls-3" d="M412.76,493.12c.85,6.06,1.94,12.15,1.65,18.26-.41,8.53-3.48,16.76-4.05,25.28-.43,6.37.56,12.81-.33,19.13-.57,4-1.88,7.94-2.7,12a49.41,49.41,0,0,0,7.94,37.82,6.18,6.18,0,0,0,2.3,2.24,6.47,6.47,0,0,0,2.86.38,205.47,205.47,0,0,0,28.67-2.62,2,2,0,0,0,2.23-1.74c0-.06,0-.11,0-.16,1.76-9-2.25-18.1-3.27-27.25-1.09-9.77,1.25-19.56,3.58-29.12a126.81,126.81,0,0,1,4-13.92c1.12-3.08,2.48-6.06,3.46-9.19a69.89,69.89,0,0,0,2.51-15q1-12,1.07-24.15c0-7.64-.22-15.33-1.89-22.79-2.14-9.49-6.52-18.31-10.87-27-2.35.37-4.4,1.74-6.39,3A143.79,143.79,0,0,1,426,448c-4.06,1.88-12,3.22-14.56,7.16s-.9,11.78-.71,16.06C411.07,478.52,411.75,485.85,412.76,493.12Z" transform="translate(0 -0.04)"/><path class="cls-4" d="M412.76,493.12c.85,6.06,1.94,12.15,1.65,18.26-.41,8.53-3.48,16.76-4.05,25.28-.43,6.37.56,12.81-.33,19.13-.57,4-1.88,7.94-2.7,12a49.41,49.41,0,0,0,7.94,37.82,6.18,6.18,0,0,0,2.3,2.24,6.47,6.47,0,0,0,2.86.38,205.47,205.47,0,0,0,28.67-2.62,2,2,0,0,0,2.23-1.74c0-.06,0-.11,0-.16,1.76-9-2.25-18.1-3.27-27.25-1.09-9.77,1.25-19.56,3.58-29.12a126.81,126.81,0,0,1,4-13.92c1.12-3.08,2.48-6.06,3.46-9.19a69.89,69.89,0,0,0,2.51-15q1-12,1.07-24.15c0-7.64-.22-15.33-1.89-22.79-2.14-9.49-6.52-18.31-10.87-27-2.35.37-4.4,1.74-6.39,3A143.79,143.79,0,0,1,426,448c-4.06,1.88-12,3.22-14.56,7.16s-.9,11.78-.71,16.06C411.07,478.52,411.75,485.85,412.76,493.12Z" transform="translate(0 -0.04)"/><path class="cls-3" d="M368.19,363.67c-4.38,11.8,2.06,24.55,7.66,35.82,13.74,27.77,23.34,57.41,32.84,86.92.71,2.21,1.43,4.62.63,6.8a8.88,8.88,0,0,1-3.21,3.81c-6.57,5-14.93,6.77-22.75,9.38a103.05,103.05,0,0,0-21.58,10.11c-5.66,3.51-11,7.57-16.27,11.62L328.64,541a11.26,11.26,0,0,0-2.82,2.73c-1.63,2.55-1,5.88-.15,8.8a148.36,148.36,0,0,0,8.26,22.54c.7,1.53,1.52,3.13,3,3.93,2.64,1.41,5.86-.46,7.87-2.68s3.75-5,6.58-5.91,5.95.2,8.9-.21c4.79-.68,8-5.08,11.41-8.46,14.08-13.82,37.59-12.82,53.09-25,2.36-1.86,4.51-4,7.09-5.55s5.59-2.39,8.31-3.76c8.26-4.16,13.46-12.77,16.24-21.59S460,487.71,462,478.67c1-4.67,2.39-9.29,2.85-14a75.64,75.64,0,0,0-.28-13.29L459,382.23c-.46-5.63-.91-11.26-1.8-16.84-16.6.59-33.19,1.26-49.8,1.46C394.19,366.92,380.69,367.85,368.19,363.67Z" transform="translate(0 -0.04)"/><path class="cls-3" d="M362.05,379.84c2.25,3.63,7.73,3.55,11.5,1.57s6.71-5.33,10.49-7.29c5.09-2.65,11.1-2.55,16.83-2.39,9.07.26,18.25.53,27,3,9,2.57,17.81,7.52,27.15,6.53,1.62-.17,3.4-.64,4.28-2A6.47,6.47,0,0,0,460,376l.3-8.16a7.39,7.39,0,0,0-.65-4.12,6.9,6.9,0,0,0-3.09-2.37c-13.29-6.43-28.43-7.63-43.18-8.14q-11.25-.37-22.51-.31c-6.36,0-14-.88-20.2.82C362.35,356,357.83,373.07,362.05,379.84Z" transform="translate(0 -0.04)"/><path class="cls-16" d="M445.46,166.3c-17.41-.15-33.18-11.64-50.58-11.92a13.24,13.24,0,0,0-6.15,1.06c-2.42,1.22-4,3.58-5.86,5.58-5.14,5.57-12.6,8.55-17.88,14-5,5.1-7.72,12.69-5.76,19.53s9.34,12.08,16.26,10.44a41.9,41.9,0,0,1,16.33-22.18,82.06,82.06,0,0,1,12.76-6.7c7.83-3.55,16.57-7.16,24.74-4.5a34.93,34.93,0,0,1,8.44,4.6l13.61,9.14C449.79,179.09,448.36,172.07,445.46,166.3Z" transform="translate(0 -0.04)"/><path class="cls-16" d="M373.49,198.93c-2.31,2.88,1,7.06.51,10.72-.34,2.43-2.34,4.29-3.18,6.6s-.4,5-.73,7.56a32.5,32.5,0,0,1-1.45,5.39,96.75,96.75,0,0,0-3.06,16L362.53,268a85.18,85.18,0,0,0-1,10.33A29.36,29.36,0,0,1,361,286c-.68,2.5-2.16,4.67-3.17,7s-1.47,5.24-.11,7.43c-4.55,3.78-5.9,11.22-2.72,16.21a8.86,8.86,0,0,1,1.4,2.58,6.57,6.57,0,0,1-.62,3.8l-3.08,8.21c-.79,2.1-1,5.3,1.16,5.78a19.27,19.27,0,0,0-4.16,6.57,7.79,7.79,0,0,0,1.11,7.41,9.68,9.68,0,0,1,1.93,2.34c.47,1.16.06,2.47-.23,3.69a13.57,13.57,0,0,0,1.68,10.63,9.51,9.51,0,0,0,9.59,4.11c6.16-1.39,11.7-3.58,17.91-2.44,13.38,2.45,26.8,4.92,39.76,9.06,14.78,4.72,29.1,11.64,44.56,13.09a4.3,4.3,0,0,0,3-.46,4.46,4.46,0,0,0,1.38-2.83l4.79-22.39a229.35,229.35,0,0,0,4.39-25.09c.55-5.44.7-10.92.86-16.39l1.23-43.54a43.4,43.4,0,0,0-2.48-18.93l-7.08-22.6c-4-12.9-13.31-24.34-16.61-37.45-2.09-8.3-3.63-17.2-9.24-23.67-8-9.22-21.8-10.65-33.89-9.07-5.47.72-11,2-15.7,4.79-5.47,3.27-9.49,8.43-13.39,13.48C380,191.49,376.77,194.83,373.49,198.93Z" transform="translate(0 -0.04)"/><path class="cls-15" d="M401.73,327c1,4.3,3.09,8.26,4.37,12.48,2.14,7.07,2,14.69,4.1,21.76.9,3,2.21,5.82,2.85,8.85,1.51,7.08-.69,14.39-3.42,21.09s-6.05,13.3-6.94,20.48c-.62,5,.28,10.76,4.17,14,4.05,3.41,9.92,3.18,15.19,2.72a16.1,16.1,0,0,0,5.52-1.14c4-1.91,5.72-6.68,6.67-11,3.15-14.6,2.25-29.73,1.33-44.64l-2.38-39c-.46-7.5-1-15.16-3.27-22.37-.84-2.62-2.3-7.92-4.7-9.6s-9.14-1.73-12.08-1.87C399.34,298.13,399.5,317.36,401.73,327Z" transform="translate(0 -0.04)"/><path class="cls-3" d="M417,183c-2.81-1.47-6.35-.84-9.07.81s-4.79,4.14-6.81,6.6c-6.08,7.42-12.51,15.94-11.61,25.49.34,3.58,1.71,7,2.64,10.45,4.07,15.23-.43,31.35.08,47.12.3,9.11,2.28,18.07,4.26,27,.4,1.81,1,3.91,2.8,4.53,1.32.45,2.75-.14,4-.63a32.32,32.32,0,0,1,29.57,3.72c3.27-1.74,2-7.24,1.31-10.87-2.17-10.77.78-21.88,4.36-32.27s7.87-20.76,8.47-31.73c.67-12.44-3.45-24.57-7.52-36.34-.89-2.57-1.86-5.26-3.92-7a15.48,15.48,0,0,0-5.92-2.7C425.36,185.87,421,185.13,417,183Z" transform="translate(0 -0.04)"/><path class="cls-11" d="M554.66,548.21s30,33,57,24" transform="translate(0 -0.04)"/><path class="cls-10" d="M591,520c0,16.7-8.55,17.68-22.82,30.23S545.34,536.66,545.34,520s10.22-30.24,22.82-30.24S591,503.26,591,520Z" transform="translate(0 -0.04)"/><path class="cls-17" d="M87.19,535.42a24.6,24.6,0,0,0,3.27-12.54c0-11.33-7-20.51-15.68-20.51s-15.67,9.18-15.67,20.51a24.6,24.6,0,0,0,3.27,12.54,25.68,25.68,0,0,0,0,25.08,25.68,25.68,0,0,0,0,25.08,25.68,25.68,0,0,0,0,25.08,24.7,24.7,0,0,0-3.27,12.54c0,11.33,7,20.52,15.67,20.52s15.68-9.19,15.68-20.52a24.7,24.7,0,0,0-3.27-12.54,25.67,25.67,0,0,0,0-25,25.68,25.68,0,0,0,0-25.08,25.68,25.68,0,0,0,0-25.08Z" transform="translate(0 -0.04)"/><ellipse class="cls-17" cx="74.74" cy="497.77" rx="15.67" ry="20.52"/><ellipse class="cls-3" cx="74.74" cy="472.69" rx="15.67" ry="20.52"/><path class="cls-7" d="M16.07,301.11a76.82,76.82,0,0,1-5.84-8.59l41.19-6.77-44.55.33a75.19,75.19,0,0,1-1.43-59.47l59.75,31-55.1-40.53a75.08,75.08,0,1,1,124,84,74.61,74.61,0,0,1,8.56,13.69L89.19,342.61l57-19.13A75.15,75.15,0,0,1,134.08,394a75.08,75.08,0,1,1-118,0,75.07,75.07,0,0,1,0-92.84Z" transform="translate(0 -0.04)"/><path class="cls-4" d="M150.19,347.53A74.8,74.8,0,0,1,134.12,394a75.08,75.08,0,1,1-118,0C6,381.17,150.19,339.1,150.19,347.53Z" transform="translate(0 -0.04)"/></svg>