<svg id="Layer_1" data-name="Layer 1" xmlns="http://www.w3.org/2000/svg" xmlns:xlink="http://www.w3.org/1999/xlink" viewBox="0 0 2341.19 1769.14"><defs><style>.cls-1,.cls-30{fill:#5e8c49;}.cls-1,.cls-15,.cls-2,.cls-7{opacity:0.1;}.cls-1,.cls-2,.cls-20,.cls-31,.cls-35,.cls-7{isolation:isolate;}.cls-2{fill:#6c63ff;}.cls-3{fill:url(#linear-gradient);}.cls-4{fill:#d38884;}.cls-5{fill:#444053;}.cls-6{fill:#b07473;}.cls-8{fill:#8cbf75;}.cls-9{fill:#67647e;}.cls-10{fill:#585268;}.cls-11{fill:#e1e7ef;}.cls-12{fill:url(#linear-gradient-2);}.cls-13{fill:#a27772;}.cls-14{fill:#cc818c;}.cls-16{fill:#f6f8fb;}.cls-17{fill:url(#linear-gradient-3);}.cls-18{fill:#65617d;}.cls-19{fill:#fbbebe;}.cls-20,.cls-27{opacity:0.05;}.cls-21{fill:#7c5c5c;}.cls-22{fill:url(#linear-gradient-4);}.cls-23{fill:#fdc2cc;}.cls-24{fill:#d39999;}.cls-25{fill:#7e5659;}.cls-26{fill:#262122;}.cls-28{fill:url(#linear-gradient-5);}.cls-29{fill:#a6823f;}.cls-31{fill:#fff;opacity:0.5;}.cls-32{fill:#3f2b3b;}.cls-33{fill:none;stroke:#3f2b3b;stroke-miterlimit:10;}.cls-34{fill:#a8a8a8;}.cls-35{opacity:0.2;}</style><linearGradient id="linear-gradient" x1="1292.02" y1="311.3" x2="1292.02" y2="1527.77" gradientTransform="matrix(1, 0, 0, -1, -31.16, 1781.86)" gradientUnits="userSpaceOnUse"><stop offset="0" stop-color="gray" stop-opacity="0.25"/><stop offset="0.54" stop-color="gray" stop-opacity="0.12"/><stop offset="1" stop-color="gray" stop-opacity="0.1"/></linearGradient><linearGradient id="linear-gradient-2" x1="1684.35" y1="205.38" x2="1684.35" y2="1462.32" xlink:href="#linear-gradient"/><linearGradient id="linear-gradient-3" x1="2039.47" y1="111.68" x2="2039.47" y2="1320.9" xlink:href="#linear-gradient"/><linearGradient id="linear-gradient-4" x1="-124.29" y1="129.74" x2="-124.29" y2="1341.37" gradientTransform="translate(799.71 1781.86) rotate(180)" xlink:href="#linear-gradient"/><linearGradient id="linear-gradient-5" x1="1392.76" y1="12.83" x2="1392.76" y2="296.19" xlink:href="#linear-gradient"/></defs><path class="cls-1" d="M295,845.39c37,144.35,115.46,269.14,239.41,329.62,257.68,125.71,838.46,60.87,1272-13.54C2030.73,1123,2227.74,1016.8,2371,867.2Z" transform="translate(-269.72 -8.86)"/><path class="cls-1" d="M2568.46,165.91H2330.59c-11.31,0-20.57-8.44-20.57-18.75s9.24-18.75,20.57-18.75h41.16c-11.32,0-20.58-8.44-20.58-18.75s9.24-18.72,20.58-18.72h-29.36c-11.32,0-20.58-8.44-20.58-18.75s9.24-18.75,20.58-18.75h124.15c-27.56-11.68-59.68-20-96.85-24.32-338.53-39.65-459.41-13.44-502.11,13.54a498.42,498.42,0,0,1-174,69.54c-208.87,39.28-599.49,86.55-953.54-15.15-176-50.52-306.75,35-385.15,177.61H2609.76c-2.94-41.48-11.75-79.8-27.92-113.32A21.6,21.6,0,0,1,2568.46,165.91Z" transform="translate(-269.72 -8.86)"/><path class="cls-1" d="M274.83,544.08a872.11,872.11,0,0,0,9.24,251.86l2088.46,69.63a891,891,0,0,0,145.1-201.67Zm826,179.67h-41.16c11.3,0,20.58,8.43,20.58,18.74s-9.26,18.73-20.58,18.73H821.87c-11.3,0-20.58-8.42-20.58-18.73s9.26-18.74,20.58-18.74H863c-11.29,0-20.58-8.44-20.58-18.75s9.26-18.75,20.58-18.75h-29.4c-11.3,0-20.58-8.41-20.58-18.72s9.26-18.75,20.58-18.75h237.86c11.32,0,20.58,8.44,20.58,18.75s-9.24,18.72-20.58,18.72h29.31c11.31,0,20.57,8.44,20.57,18.75S1112.17,723.75,1100.79,723.75Z" transform="translate(-269.72 -8.86)"/><path class="cls-1" d="M2609.86,276,329.77,326.52C302,391.53,283.62,465,275.14,541.19H2569.9A820.38,820.38,0,0,0,2603,404.37C2609.86,359.59,2612.6,316.29,2609.86,276ZM738.09,441.64H696.93c11.3,0,20.58,8.43,20.58,18.74s-9.26,18.75-20.58,18.75H459.09c-11.3,0-20.58-8.44-20.58-18.75s9.26-18.74,20.58-18.74h41.16c-11.3,0-20.58-8.42-20.58-18.73s9.26-18.75,20.58-18.75H470.84c-11.3,0-20.58-8.43-20.58-18.74s9.26-18.75,20.58-18.75H708.7c11.32,0,20.58,8.44,20.58,18.75S720,404.16,708.7,404.16h29.39c11.3,0,20.58,8.44,20.58,18.75S749.39,441.64,738.09,441.64Z" transform="translate(-269.72 -8.86)"/><ellipse class="cls-2" cx="1367.13" cy="1543.25" rx="154.81" ry="34.76"/><ellipse class="cls-2" cx="1726.87" cy="1653.63" rx="279.29" ry="22.92"/><ellipse class="cls-2" cx="605.49" cy="1618.88" rx="279.29" ry="34.76"/><ellipse class="cls-2" cx="1031.32" cy="1444.89" rx="210.15" ry="34.76"/><ellipse class="cls-2" cx="1089.98" cy="1734.38" rx="168.23" ry="34.76"/><path class="cls-3" d="M1458.07,626.88c-4.45-29.92-31.63-99.74-31.63-99.74h0q-.7-3.09-1.61-6.17c-19.28-66.27-46-72-46-72l-95.61-20.58a7.12,7.12,0,0,1,2.06,1.92,12.92,12.92,0,0,0-1.5.22,37.34,37.34,0,0,1-8.37-18.11c-.19-1-.35-2.05-.48-3.06a67.23,67.23,0,0,0-5.47-101.1c-1-.79-2.06-1.55-3.07-2.27,4.51-4.79,4.65-11.46,1.28-18.13-7.53-15.64-23.91-25.54-40.75-30.37-12.86-3.68-26.75-4.88-39.55-.84-7.26,2.3-13.89,6.17-20.7,9.61-12.7,6.33-26.75,11.35-36.24,21.79-2.22,2.43-4.28,5.53-3.62,8.74.49,2.39,2.39,4.24,3.6,6.36,2.74,4.76,2.06,10.74.18,15.93s-4.6,10-5.9,15.31-.8,11.57,3.19,15.37a66.55,66.55,0,0,0,6,4.12,31.31,31.31,0,0,1,5.7,6.4q5.67,7.61,11.31,15.29a157.6,157.6,0,0,1,14.18,21.54c2.82,5.56,5,11.49,8.77,16.47a24.3,24.3,0,0,0,3.77,3.95l-1.12-.43a17.2,17.2,0,0,0,12.58,5.12h.57a3.5,3.5,0,0,0,2.31-.95v2.06c.22,7.35.18,15.17-.33,22.51l-.89-.45a7.72,7.72,0,0,0-8.23.87l-88,70.62S1075.35,543,1078,588.22L1062.59,656s-19.28,57.5-4.44,98.55,23.44,64.54,23.44,64.54,5.92,46.65,14.83,50.45,12.76,5.87,12.76,5.87l1.77,11.15h0s.6,1.09,1.65,2.92c6.48,11.28,30.5,51.08,44.45,46.82a179,179,0,0,1,2.26,32.7l13.81,92.71s9.63,25.2,9,38.41,11.24,32.05,11.24,32.05a61.22,61.22,0,0,0-5.93,43.11c5.64,24.69,12.76,138.45,12.76,138.45l10.29,27.57-.29,32.33a30.78,30.78,0,0,1-6.38,14.41c-6.66,7.24-6.17,15.62-22.24,25.52s-26.26,13.64-26.26,26.75a35.5,35.5,0,0,1-.49,5.45c-1.49,9.63-4.37,14.86,25.18,17.66,34.72,3.29,57.87-19.35,57.87-19.35s5.1-9.26,29.14-13c0,0,8.23-.43,8.66-7.7.17-2.51.13-7.3,0-12.59-.39-10.07-1.36-21.82-2.63-22.39-1.61-.72-4.41-10.85-5.37-14.51h6.69s6.17-46.65,0-76.86-.6-51.63-.6-51.63l-1.19-79.78s-8.24-8.81-1.77-24.37,0-92.4,0-92.4,2.38-27.57,9.19-34,.33-40.4,0-42.17l12.15,40.73s5.33,80.95,16.62,95.6l3.25,36.67s23.13,33.75,18.69,51.92,4.75,83.9,4.75,83.9v67.19s-10.39,27,4.12,36.67l6.17-.25c-2.06,1.92-3.64,4.8-6,7.29-2.78,2.86-4.36,13.75-5.25,23.11-.74,7.92-1,14.73-1,14.73s6.17,9.88,17.8,10.56,49.94,29.82,49.94,29.82,37.85,0,47.64-2.06l.58-.14a12.84,12.84,0,0,0,7.38-6,15.39,15.39,0,0,0,1.77-11.1c-1.21-5.78-5.8-12.12-16-17.51-25.3-13.33-29.06-25.82-29.06-25.82L1397,1383h2.37s-1.46-26.41,16.6-56l-1.17-130.53s7.41-44.88-5.33-69.24c0,0-1-25.81,7.47-33.73s-11.34-88-11.34-88-4.11-43-9-82.21h0c20,19,40.79-49.39,44.29-61.55h.51l-.23-.88c.15-.58.23-.87.23-.87h0s-4.44-15.8-1.19-12.59,11.27-8.81,11.27-8.81-1.19-65.42,12.76-98.38S1458.07,626.88,1458.07,626.88Zm-59.68,41.63.1-.18c2.06,39.94-.39,125.18-.39,125.18s-2.75,10.92-5.7,23.79l-2.05-81h0L1388.29,660ZM1143,641s10.09,126.12,0,144.32c-2.86,5.18-5.27,14.4-7.26,24.92-3.34-8.75-10.39-29.29-7.86-40.17,3.27-14.08-6.53-51.06-6.53-51.92s-.88-20.58,6.18-35.64S1130,660.9,1130,660.9,1135.87,636.21,1143,641Z" transform="translate(-269.72 -8.86)"/><path class="cls-4" d="M1167.56,925c-8.78,38.63-43.73-19.77-51.69-33.79-1-1.83-1.61-2.9-1.61-2.9l3.79-17.76,20-8.23a56.47,56.47,0,0,1,9,5.85C1158,876.83,1174.33,895.12,1167.56,925Z" transform="translate(-269.72 -8.86)"/><path class="cls-4" d="M1438.64,861.85a2.72,2.72,0,0,1-.22.86,4.56,4.56,0,0,1-.27.93c-3.44,12.06-23.81,80-43.48,61.1-21.53-20.58-11.07-68.16-11.07-68.16h.14L1429,852l9,9.22h0Z" transform="translate(-269.72 -8.86)"/><path class="cls-5" d="M1412.45,1195.94l1.15,129.64c-17.76,29.43-16.3,55.56-16.3,55.56l-58.52,2.31c-14.29-9.61-4.12-36.38-4.12-36.38v-66.76s-9-65.21-4.67-83.28-18.34-51.45-18.34-51.45l-3.21-36.4c-11.07-14.55-16.32-94.91-16.32-94.91l-11.87-40.58c.33,1.75,6.5,35.62,0,41.86s-9,33.77-9,33.77,6.4,76.3,0,91.72,1.73,24.18,1.73,24.18l1.17,79.2s-5.54,21.26.57,51.24,0,76.31,0,76.31h-62.78l.29-32.33L1202,1312.27s-7-113-12.53-137.44a61.47,61.47,0,0,1,5.8-42.81s-11.62-18.62-11-31.73-9-38.11-9-38.11l-13.54-92a178.86,178.86,0,0,0-6.71-52.41c-7.86-26.22-19.51-60.58-19.51-60.58l13.15,1.17,66.35,5.91s161.31-10.85,168.53-1.84a30.1,30.1,0,0,1,3,9.41c7.24,32.53,16.81,134.46,16.81,134.46s19.51,79.49,11.14,87.35-7.35,33.46-7.35,33.46C1419.75,1151.28,1412.45,1195.94,1412.45,1195.94Z" transform="translate(-269.72 -8.86)"/><path class="cls-6" d="M1276.07,1421.13c-.45,7.22-8.5,7.65-8.5,7.65-23.58,3.71-28.6,12.89-28.6,12.89s-22.64,22.49-56.78,19.22c-29-2.8-26.19-8-24.69-17.54a36,36,0,0,0,.47-5.39c0-13.11,10-16.83,25.77-26.75s15.29-18.13,21.83-25.33,7.22-21.18,7.22-21.18c7.41-12.9,26.2,2.06,26.2,2.06.89,4.57,28.81,3.93,28.81,3.93s3.7,14.86,5.62,15.72c1.25.58,2.2,12.23,2.57,22.23C1276.2,1413.88,1276.24,1418.64,1276.07,1421.13Z" transform="translate(-269.72 -8.86)"/><path class="cls-7" d="M1276.07,1421.13c-.45,7.22-8.5,7.65-8.5,7.65-23.58,3.71-28.6,12.89-28.6,12.89s-22.64,22.49-56.78,19.22c-29-2.8-26.19-8-24.69-17.54,13,3.21,37.74,7.7,52.21-.16,20.1-10.91,34.53-18.52,34.53-18.52l31.77-16C1276.2,1413.88,1276.24,1418.64,1276.07,1421.13Z" transform="translate(-269.72 -8.86)"/><path class="cls-6" d="M1453.81,1460a12.57,12.57,0,0,1-7.24,6l-.56.14c-9.61,2.06-46.75,2.06-46.75,2.06s-37.56-29-48.92-29.69-17.47-10.5-17.47-10.5.23-6.75,1-14.61c.88-9.3,2.42-20.1,5.16-22.94,5-5.25,6.17-12.35,17.47-7.86,0,0,16.14-28.44,35.15-6.47l19.67,29.84s3.71,12.35,28.63,25.75c10,5.35,14.4,11.64,15.66,17.38A15.34,15.34,0,0,1,1453.81,1460Z" transform="translate(-269.72 -8.86)"/><path class="cls-7" d="M1453.81,1460c-2.22,1.87-4.67,3.89-7.24,6l-.56.14c-9.61,2.06-46.75,2.06-46.75,2.06s-37.56-29-48.92-29.69-17.47-10.5-17.47-10.5.23-6.75,1-14.61c11.56,3.46,29.07,9.57,33.77,16.16,7.2,10,29.07,24,29.07,24s40.79-3.93,58.9-4.47A15.34,15.34,0,0,1,1453.81,1460Z" transform="translate(-269.72 -8.86)"/><path class="cls-4" d="M1295.09,443.86l-53.71,56.77s-65.09-4.79-53.73-24c5.78-9.8,6.69-30.29,6.17-48.11-.47-17.19-2.24-31.82-2.24-31.82s91.28-45.43,84.37-3.06a69.88,69.88,0,0,0-.25,24.18C1279.59,439.21,1295.09,443.86,1295.09,443.86Z" transform="translate(-269.72 -8.86)"/><path class="cls-7" d="M1275.87,393.63a69.64,69.64,0,0,0-.25,24.18,67,67,0,0,1-47.78,19.94c-12.35,0-25.71-10.15-35.69-16-.47-17.21-.57-25.05-.57-25.05S1282.86,351.26,1275.87,393.63Z" transform="translate(-269.72 -8.86)"/><path class="cls-4" d="M1295.09,367a67.27,67.27,0,1,1-25.31-52.56A67.27,67.27,0,0,1,1295.09,367Z" transform="translate(-269.72 -8.86)"/><path class="cls-7" d="M1386.6,871.83c-16.75,39.86-124.5,40.68-124.5,40.68V869.05l-6.52-.43c2.82,12.45-3.95,42.8-3.95,42.8-85.16,12-105.92-36.5-105.92-36.5l3-16.61,66.35,5.9s161.31-10.84,168.53-1.83A30.24,30.24,0,0,1,1386.6,871.83Z" transform="translate(-269.72 -8.86)"/><path class="cls-8" d="M1262.1,907.26V863.8l-6.52-.41c2.82,12.35-3.95,42.8-3.95,42.8-64.09,9-91.7-16.19-101.44-29.24a39.35,39.35,0,0,1-4.48-7.24l26-146.31,6.17-215.34,9.33-37.78,2.16-18.13V452h.22l6.63,2.84,39.65,17.14,45-34,.66-.47,2.24-1.71,3.73,3,9.26,7.43,29.69,191.77s51.45,147.65,61.08,207.25c.39,2.39.7,4.61.94,6.69C1394.89,906.26,1262.1,907.26,1262.1,907.26Z" transform="translate(-269.72 -8.86)"/><circle class="cls-9" cx="970.98" cy="467.31" r="3.83"/><circle class="cls-9" cx="972.75" cy="502.25" r="3.83"/><circle class="cls-9" cx="976.58" cy="558.82" r="3.83"/><circle class="cls-9" cx="982.89" cy="619.75" r="3.83"/><circle class="cls-9" cx="986.72" cy="676.96" r="3.83"/><circle class="cls-9" cx="990.55" cy="737.89" r="3.83"/><circle class="cls-9" cx="989.03" cy="798.17" r="3.83"/><path class="cls-7" d="M1191.93,744.67s-4.28,56-12.14,72.34-11.36,62-11.36,62L1150.17,877a39.35,39.35,0,0,1-4.48-7.24l26-146.31,6.17-215.34,9.35-37.8,2.16-18.13.24-.1a7.37,7.37,0,0,1,6.51.1l.86.45c-.26.75-.51,1.51-.74,2.29-7.12,22.29-9.78,63.36-9.78,63.36s10.29,75.13,11.36,110.07S1191.93,744.67,1191.93,744.67Z" transform="translate(-269.72 -8.86)"/><path class="cls-7" d="M1147.05,868.27a11.64,11.64,0,0,1-.7,1.36c-7.08,12-25,19.55-30.48,21.62-1-1.83-1.61-2.9-1.61-2.9l3.79-17.76,20-8.23A56.36,56.36,0,0,1,1147.05,868.27Z" transform="translate(-269.72 -8.86)"/><path class="cls-9" d="M1098.54,582.31l-16.6,9.9-15.13,67.27s-18.93,57.06-4.38,97.83,23,64.1,23,64.1,5.83,46.3,14.57,50.09,12.52,5.82,12.52,5.82l1.74,11.07s23.71-8,32.09-22.22-6.18-49.39-6.18-49.39-12.51-30-9.3-44-6.42-50.66-6.42-51.44-.86-20.39,6.17-35.4,2.35-21.4,2.35-21.4l-4.38-42.8Z" transform="translate(-269.72 -8.86)"/><path class="cls-7" d="M1388,859.23s-44,16.59-58,2.06-12.53-82.7-12.53-82.7-13.38-125.8-21.84-146.46-4.11-169.77-4.11-169.77-5.68-19.28-10.64-24.33a5.7,5.7,0,0,0-1.05-.84l1.71.37,6,1.28,9.26,7.43L1326.49,638s51.45,147.65,61.08,207.24Z" transform="translate(-269.72 -8.86)"/><path class="cls-7" d="M1438.64,863.6h-.49c-5.54.72-54.39,6.62-54.6-3.54a31.8,31.8,0,0,1,.19-3.52l45.27-4.63,9,9.22h0c.17.59.29,1.11.42,1.52Z" transform="translate(-269.72 -8.86)"/><path class="cls-9" d="M1391.77,514.94l32.1,16.75s26.75,69.26,31,99c0,0,19.82,79.56,6.17,112.27s-12.51,97.67-12.51,97.67-7.86,11.94-11.07,8.75,1.17,12.51,1.17,12.51-54.88,7.28-55.11-3.5,12.6-62.31,12.6-62.31,3.5-122.59-1.46-141.81S1391.77,514.94,1391.77,514.94Z" transform="translate(-269.72 -8.86)"/><path class="cls-7" d="M1296,645.51s-18.07,44.24-23.89,47.16,1.17,14.55,1.17,14.55S1306.16,661.23,1296,645.51Z" transform="translate(-269.72 -8.86)"/><path class="cls-7" d="M1285.19,490.3c.21-.84-21.55,21.34-27.37,24.7S1279.08,514.79,1285.19,490.3Z" transform="translate(-269.72 -8.86)"/><path class="cls-7" d="M1224.63,642s-33.2,21.46-28.81,30S1224.63,642,1224.63,642Z" transform="translate(-269.72 -8.86)"/><path class="cls-7" d="M1284.9,955.32s28.26,18.17,72.21,22.63Z" transform="translate(-269.72 -8.86)"/><path class="cls-7" d="M1217.05,999s26.2,32.93,38.16,33.77S1217.05,999,1217.05,999Z" transform="translate(-269.72 -8.86)"/><path class="cls-7" d="M1253.75,1128c-1.18.58-14.86,29.69-28.81,30.58S1253.75,1128,1253.75,1128Z" transform="translate(-269.72 -8.86)"/><path class="cls-7" d="M1375.16,1191.82s26-5.82,31.75,12.8C1406.91,1204.56,1405.16,1198.74,1375.16,1191.82Z" transform="translate(-269.72 -8.86)"/><path class="cls-7" d="M1357.69,1298.34s31.46-6.42,38.15,2.32S1357.69,1298.34,1357.69,1298.34Z" transform="translate(-269.72 -8.86)"/><path class="cls-7" d="M1268.69,1313.24c0,.28-32,6.42-30.87,10.49s34.16,3.5,35.33-2.92a6.17,6.17,0,0,0-4.38-7.55Z" transform="translate(-269.72 -8.86)"/><path class="cls-7" d="M1347.21,1340.85s52.62-6.42,49.39,4.65S1347.21,1340.85,1347.21,1340.85Z" transform="translate(-269.72 -8.86)"/><path class="cls-7" d="M1071.75,692.67c.29.87,34.65,5.54,39.3,16.61,0,0-33.76-15.74-39.09-15.74" transform="translate(-269.72 -8.86)"/><path class="cls-7" d="M1120.09,782.64s-28.54,9-26.51,22.64S1090.68,799,1120.09,782.64Z" transform="translate(-269.72 -8.86)"/><path class="cls-7" d="M1106.79,852s10.4-14.26,20.3-11.65S1106.79,852,1106.79,852Z" transform="translate(-269.72 -8.86)"/><path class="cls-7" d="M1269.78,314.42a16,16,0,0,1-3.34,2.49c-8.23,4.79-10.49,12.18-14.4,20.7-3.64,7.8-7.66,16.05-15,20.48-9.49,5.72-22,3.62-31.84,8.6A24.69,24.69,0,0,0,1192,391a70.37,70.37,0,0,0,2.8,11.16,79.59,79.59,0,0,1,3,24.22,4.33,4.33,0,0,1,0,.72,67.25,67.25,0,1,1,72-112.71Z" transform="translate(-269.72 -8.86)"/><path class="cls-10" d="M1268,294.17c-7.39-15.52-23.46-25.35-40-30.15-12.61-3.64-26.32-4.83-38.83-.82-7.14,2.26-13.62,6.17-20.31,9.53-12.47,6.3-26.18,11.28-35.56,21.63-2.2,2.4-4.11,5.49-3.56,8.68.47,2.37,2.33,4.12,3.52,6.3,2.7,4.73,2.06,10.68.19,15.82s-4.53,9.92-5.81,15.21-.78,11.48,3.13,15.25c1.75,1.67,4,2.71,5.89,4.11a31.18,31.18,0,0,1,5.57,6.34l11.11,15.19a154.24,154.24,0,0,1,13.92,21.38c2.75,5.51,4.89,11.4,8.6,16.32s9.46,8.87,15.6,8.33a3,3,0,0,0,2.47-1.17,3.27,3.27,0,0,0,.3-1.54,79,79,0,0,0-2.94-24.14,70.37,70.37,0,0,1-2.8-11.16,24.8,24.8,0,0,1,13.17-24.34c9.88-5,22.37-2.88,31.84-8.58,7.36-4.45,11.38-12.7,15-20.58,4-8.52,6.17-15.91,14.4-20.7S1272.12,302.34,1268,294.17Z" transform="translate(-269.72 -8.86)"/><path class="cls-7" d="M1237.9,1393.62s10.29,13.1,7.61,20.57S1237.9,1393.62,1237.9,1393.62Z" transform="translate(-269.72 -8.86)"/><path class="cls-7" d="M1377.11,1426.42s2.29-17.58,11.44-17.74,9.62-1,16.61,1.75,13.56,6.87,11.46,7.49-12-10-22.24-4.59A73.75,73.75,0,0,0,1377.11,1426.42Z" transform="translate(-269.72 -8.86)"/><path class="cls-7" d="M1207.2,494,1236,473.78s-42.15-24.9-47.17-21.4-8.48,35-8.48,35Z" transform="translate(-269.72 -8.86)"/><path class="cls-11" d="M1207.07,492.67l28.81-20.58s-42.14-24.9-47.16-21.4-8.48,36.71-8.48,36.71Z" transform="translate(-269.72 -8.86)"/><path class="cls-8" d="M1207.07,492.67l28.81-20.58s-42.14-24.9-47.16-21.4-8.48,36.71-8.48,36.71Z" transform="translate(-269.72 -8.86)"/><path class="cls-9" d="M1193.49,450.86l-.86-.44a7.46,7.46,0,0,0-8.09.85l-86.43,70.11s-18.79,26-16.17,70.83l51,72.21s5.82-24.45,12.8-19.8c0,0,9.9,125.22,0,143.27s-14.26,85.61-14.26,85.61l33.48,3.78s3.5-45.72,11.36-62,12.14-72.33,12.14-72.33,7.08-81.41,5.91-116.36S1183,516.5,1183,516.5,1185.84,472.46,1193.49,450.86Z" transform="translate(-269.72 -8.86)"/><path class="cls-7" d="M1279.59,481.21l-35.91-13.3s45.73-50.08,51.45-22.3Z" transform="translate(-269.72 -8.86)"/><path class="cls-11" d="M1279.59,479.46l-35.91-13.29s45.73-50.09,51.45-22.31Z" transform="translate(-269.72 -8.86)"/><path class="cls-8" d="M1279.59,479.46l-35.91-13.29s45.73-50.09,51.45-22.31Z" transform="translate(-269.72 -8.86)"/><path class="cls-7" d="M1278.42,436.84a2.08,2.08,0,0,1,1.48.33Z" transform="translate(-269.72 -8.86)"/><path class="cls-9" d="M1281.88,433.36l95.27,20.58s26.22,5.83,45.15,71.64S1396.37,672,1396.37,672l-9.89-8.41,5,192.18s-44,16.58-58,2.06S1321,775.07,1321,775.07s-13.4-125.78-21.86-146.46S1295,458.86,1295,458.86,1287.23,432.21,1281.88,433.36Z" transform="translate(-269.72 -8.86)"/><path class="cls-7" d="M1369.05,555.83c-1.34,1.23-2.9,59.39,2.92,103.65a564.65,564.65,0,0,0,16.46,79.78l-8.64-177.32S1373.12,552,1369.05,555.83Z" transform="translate(-269.72 -8.86)"/><path class="cls-7" d="M1357.4,505.74c2.32,1.46,12.53,25.62,7.86,35.52S1357.4,505.74,1357.4,505.74Z" transform="translate(-269.72 -8.86)"/><path class="cls-7" d="M1267.47,294.17a52.62,52.62,0,0,0-21-21.94,49.84,49.84,0,0,1,15.7,18.52c4.12,8.24,2.91,16.47-5.1,21s-10.49,12.19-14.4,20.71c-3.65,7.8-7.66,16.05-15,20.57-9.46,5.73-22,3.61-31.83,8.59A24.84,24.84,0,0,0,1182.69,386a68.75,68.75,0,0,0,2.82,11.13,79.59,79.59,0,0,1,3,24.22,3.19,3.19,0,0,1-.33,1.55,3,3,0,0,1-2.45,1.17,14.12,14.12,0,0,1-7.18-1.34,16.69,16.69,0,0,0,12.35,4.84,2.43,2.43,0,0,0,2.75-2,2.51,2.51,0,0,0,0-.67,79,79,0,0,0-3-24.22,68,68,0,0,1-2.82-11.15A24.81,24.81,0,0,1,1201,365.08c9.88-5,22.37-2.88,31.84-8.58,7.37-4.44,11.38-12.69,15-20.58,4-8.51,6.17-15.9,14.4-20.7S1271.59,302.34,1267.47,294.17Z" transform="translate(-269.72 -8.86)"/><path class="cls-12" d="M1853.69,552.6c-28.36-.56-53.38-20.58-67.56-45.05a45.17,45.17,0,0,1-6.83-19.28,22.45,22.45,0,0,1,.78-4.61,48.33,48.33,0,0,0,2.06-7.06,12.61,12.61,0,0,0,0-2.88v-.17c.68-5.2-2.39-10.29-6.18-13.85s-8.54-6.17-12.49-9.71c-12.18-10.7-15.88-27.86-16.11-44.2v-.87c.14-7,.7-14,.64-21a89.12,89.12,0,0,0-.52-11.89c-1.17-9.9-4.93-20-12.71-26.3-20.29-16.46-54.41.68-75.42-14.88-5.11-3.81-9.24-9.42-15.44-10.9-4.67-1.14-9.53.39-14.09,1.91-15.48,5.1-32.74,11.81-38.79,26.75-3.46,8.58-2.49,18.38-5.66,27.06-2.06,5.83-6,10.83-8.85,16.34a25.52,25.52,0,0,0-3.29,13.64,15.42,15.42,0,0,0,1,7.27,18.56,18.56,0,0,0,5,7.22,24,24,0,0,1-3,4.82c-4,4.83-10,8.23-14.14,13-7.61,8.83-7.32,20.83-3.58,31.2s10.52,19.82,15.19,29.92c2.06,4.38,3.62,9.28,1.54,13.65-1.46,3-4.48,5.32-6.83,7.94a24.94,24.94,0,0,0-6.17,13.79c-46.32,10.57-46.37,47.8-46.37,47.8h0l-25,62.93s-4,10.6-8.72,24.59l-29.62-5.31L1473.13,699c-3.89,14-6.64,27-5.74,33.58,0,0-9.2,43.22,7.16,50.77l36.1,16.24a21.19,21.19,0,0,0,5,2.24l1.46.66a3.9,3.9,0,0,0,3.37,0h.5a5,5,0,0,0,2.06-.31,4.11,4.11,0,0,0,1.81-2,.34.34,0,0,1,0-.2l10.8-3.13,9.16,10.85c4.11,2.9,8.23,5.41,12.12,7.67l-14.18,140.8s-2.28,187.26-9.2,229.94c-2.55,15.81-2.57,26.59-1.6,33.92l-.27.45c1.71,12,6.17,14.4,6.17,14.4v-.16a1.2,1.2,0,0,0,.27.16,121.19,121.19,0,0,1,7.41-15.88v3.08c-.15,15.89-.64,38.14-2.29,52.6-2.8,24.7,7.16,106.08,7.16,106.08l3.44,74.09a68.46,68.46,0,0,1-8.44,36.09c-8.23,14.8-18.74,35.62-19.5,44.86a7.52,7.52,0,0,0,0,1.5h0l-17.66,21.24s-6.89,10.66,8.68,15c8.38,2.33,22.82,0,34.43-2.74a23,23,0,0,0,17.84-22.38,79.31,79.31,0,0,1,14.57-28l2.9,17.06,19.43,4.81,2.49-46.75a20.64,20.64,0,0,0,1.34-8.23h0c3.82-33.26-9-30.27-9-30.27a1.74,1.74,0,0,1,.62,1.15l-.62-1.13h0c-7.88-15.56-4.11-41.16-4.11-41.16s10.29-74.08,13.81-93.65c2.53-13.83,1.48-59.1.63-84.37,0-1,0-2.06-.1-3.07,30.13-.39,67-1.4,92.95-3.91v3l-4.77,175a96.11,96.11,0,0,1-6.71,32.55,1.65,1.65,0,0,1-.23.6,142.22,142.22,0,0,0-9.48,45.87l-2.22,55.56v1.54h0c-3.87,1.48-10,5.78-10.15,18.26-.27,18.27,31.94,12.18,31.94,12.18,32.18,0,32.45-33.5,32.45-33.5s1-30.73,2.55-51.29-4.85-16-4.85-16l-.5,58.49v-50.81l.5-7.43v-.2h0v-1.59l4.05-60.31s29.65-100.51,34.24-119.79c3.27-13.71,1.92-55,.85-77.81a17.47,17.47,0,0,0-.17-3c9.2-.83,17.33-.91,20.58-.91h1.5s-1.52-161.42-5.37-222.25-10-116.49-25.29-133.24c-9.26-10.13-22.16-41.38-30.87-64.54a322.22,322.22,0,0,0,56.74,18.53c48.54,10.16,41.89-32,41.89-32l-4.91-79.7h.33a406.7,406.7,0,0,0-5.35-62.32c-2.58-15.8-6.51-32.14-12.52-45.27,5.27-2.06,10.48-4.26,15.58-6.52,13.19-5.83,28-14.08,29.94-28.3h-.63A18.25,18.25,0,0,0,1853.69,552.6ZM1552.77,667.83h0c.1,8.24-.2,22.52-.7,38.3l-15.41-20.58,15.45-25.06Zm213,72.93L1740,732.53a115.7,115.7,0,0,1,15.87-19.63l2.22-2.06-.8.17,1.24-1.13.74-.17-1.18,1.13,1.4-.28a43.88,43.88,0,0,0,8.75,17.59c9.22,10.06-2.53,12.61-2.53,12.61Z" transform="translate(-269.72 -8.86)"/><polygon class="cls-13" points="1339.99 1472.71 1336.99 1529.67 1317.83 1524.88 1313.8 1501.19 1339.99 1472.71"/><polygon class="cls-7" points="1339.99 1472.71 1336.99 1529.67 1317.83 1524.88 1313.8 1501.19 1339.99 1472.71"/><path class="cls-14" d="M1680,1546.08l29.22,6.05,21.67-19.14v-53.93l.49-7.37v-.23h0v-1.56l4-60s29.24-99.78,33.79-118.94c3.21-13.58,1.87-54.57.8-77.23-.43-9.28-.8-15.5-.8-15.5l-64.52-15.61-1.36,49.59L1698.65,1406a96.25,96.25,0,0,1-6.6,32.33l-.23.6a141.38,141.38,0,0,0-9.36,45.52l-2.19,55.25v1.52Z" transform="translate(-269.72 -8.86)"/><path class="cls-7" d="M1731.41,1469.94v1.52h0v-1.52Z" transform="translate(-269.72 -8.86)"/><path class="cls-7" d="M1680,1546.08l29.22,6.05,21.67-19.14v-4.59a6.15,6.15,0,0,1-3.11,4.94l-.31.19a58.25,58.25,0,0,1-32.8,6.48l-11.4-1a10.93,10.93,0,0,0-3,.74v1.53Z" transform="translate(-269.72 -8.86)"/><path class="cls-6" d="M1727.5,1535l.31-.16a6.16,6.16,0,0,0,3.15-5.35l.47-58.06s6.3-4.5,4.78,15.91-2.51,50.91-2.51,50.91-.25,33.26-32,33.26c0,0-31.76,6-31.51-12.1s13.11-18.89,13.11-18.89l11.4,1A58,58,0,0,0,1727.5,1535Z" transform="translate(-269.72 -8.86)"/><path class="cls-14" d="M1527.83,1533.73c.74,13.11,39.3,5.54,39.3,5.54l25.95-50.38s21.67-16.64,10.83-31.26a22.87,22.87,0,0,1-1.59-2.49l-.1-.12h0c-.23-.37-.43-.76-.64-1.17h0c-7.78-15.44-3.95-40.75-3.95-40.75s10.06-73.59,13.6-93c2.49-13.71,1.47-58.67.64-83.82-.33-10.45-.64-17.47-.64-17.47l-64-17.14v19.1c-.14,15.78-.63,37.86-2.26,52.23-2.76,24.42,7.06,105.32,7.06,105.32l3.39,73.6a68.07,68.07,0,0,1-8.23,35.83c-8,14.69-18.52,35.4-19.24,44.55A9.69,9.69,0,0,0,1527.83,1533.73Z" transform="translate(-269.72 -8.86)"/><path class="cls-7" d="M1527.83,1533.73c.74,13.11,39.3,5.54,39.3,5.54l25.95-50.38s21.67-16.64,10.83-31.26a22.87,22.87,0,0,1-1.59-2.49c-.35,7.64-8.72,26.76-8.72,26.76s-21.42,42.86-28.24,52.68-36.4-1.83-37.51-2.25A9.37,9.37,0,0,0,1527.83,1533.73Z" transform="translate(-269.72 -8.86)"/><path class="cls-6" d="M1601.58,1453.79s12.68-3,8.89,30.06h0a21.23,21.23,0,0,1-10,18.87c-9.07,5.7-23.07,18-30.15,41.82h0a22.79,22.79,0,0,1-17.59,22.22c-11.44,2.68-25.7,5-34,2.72-15.37-4.28-8.56-14.86-8.56-14.86l17.64-20.93s30.74,12.1,37.53,2.27,28.24-52.66,28.24-52.66S1605.35,1456.56,1601.58,1453.79Z" transform="translate(-269.72 -8.86)"/><path class="cls-7" d="M1704.72,1188.78l-1.36,49.59c17.19-1.67,29.49-4,31.59-7.26,4.55-7,21-10,35.09-11.22-.43-9.28-.8-15.49-.8-15.49Z" transform="translate(-269.72 -8.86)"/><path class="cls-7" d="M1547.21,1226.81a23.7,23.7,0,0,1,7.06-8.52c6.79-3.77,6,24.2,6,24.2s22.64.2,51.55-.17c-.33-10.45-.64-17.49-.64-17.49l-64-17.12S1547.34,1215.65,1547.21,1226.81Z" transform="translate(-269.72 -8.86)"/><path class="cls-5" d="M1539.91,1233.43s7.57-20.58,14.4-24.24,6,24.18,6,24.18,166.32,1.52,174.63-11.34,56.7-12.1,56.7-12.1-1.51-160.26-5.29-220.72-9.82-115.67-24.94-132.3c-9.78-10.76-23.69-45.58-32.29-68.79-4.67-12.68-7.78-21.92-7.78-21.92l-158.74,9-1.3,12.87L1544.5,956.69s-2.27,186-9.08,228.3S1539.91,1233.43,1539.91,1233.43Z" transform="translate(-269.72 -8.86)"/><g class="cls-15"><path d="M1722.07,1222c8.23-12.84,56.69-12.1,56.69-12.1s-1.5-160.26-5.29-220.72-9.81-115.67-24.94-132.3c-9.81-10.8-23.68-45.58-32.28-68.79-3.93-10.66-6.75-18.88-7.54-21.22l12.35-.7s3.11,9.24,7.8,21.92c8.6,23.21,22.49,58,32.27,68.79,15.12,16.63,21.17,71.82,24.94,132.3s5.31,220.72,5.31,220.72-48.38-.74-56.72,12.1c-7.1,11-129.48,11.49-165,11.38C1615.25,1233.31,1715.65,1232,1722.07,1222Z" transform="translate(-269.72 -8.86)"/><path d="M1541.39,1209.19c3.07-1.71,4.59,3,5.35,8.77a119,119,0,0,0-7.14,15.47s-4.38-2.36-6.17-14.4C1535.94,1214.73,1538.72,1210.67,1541.39,1209.19Z" transform="translate(-269.72 -8.86)"/></g><path class="cls-10" d="M1589,378.44c-11,15,.12,36.28-11.67,50.85-3.89,4.81-9.88,8.23-13.93,13-7.51,8.77-7.22,20.68-3.54,31s10.29,19.68,15,29.72c2.06,4.34,3.58,9.22,1.52,13.54-1.44,3-4.42,5.29-6.75,7.88-7.57,8.46-7.78,20.21-3.7,30.17s11.85,18.52,19.53,27c3,3.31,6.85,7,11.89,6.87a16.4,16.4,0,0,0,7.47-2.45,76.14,76.14,0,0,0,34.66-99.37c-6.38-15.29-17-29.94-17.12-46.1,0-12.82,6.58-25.06,7.75-37.82,1.42-15.52-7.75-40.15-26.48-46.92C1604.81,365.66,1594.55,370.74,1589,378.44Z" transform="translate(-269.72 -8.86)"/><path class="cls-7" d="M1589,378.44c-11,15,.12,36.28-11.67,50.85-3.89,4.81-9.88,8.23-13.93,13-7.51,8.77-7.22,20.68-3.54,31s10.29,19.68,15,29.72c2.06,4.34,3.58,9.22,1.52,13.54-1.44,3-4.42,5.29-6.75,7.88-7.57,8.46-7.78,20.21-3.7,30.17s11.85,18.52,19.53,27c3,3.31,6.85,7,11.89,6.87a16.4,16.4,0,0,0,7.47-2.45,76.14,76.14,0,0,0,34.66-99.37c-6.38-15.29-17-29.94-17.12-46.1,0-12.82,6.58-25.06,7.75-37.82,1.42-15.52-7.75-40.15-26.48-46.92C1604.81,365.66,1594.55,370.74,1589,378.44Z" transform="translate(-269.72 -8.86)"/><path class="cls-7" d="M1710.83,923.38c-22,1.15-42.7,10.62-62,21.32s-37.9,22.82-58.63,30.41" transform="translate(-269.72 -8.86)"/><path class="cls-7" d="M1697.17,975.21a90.75,90.75,0,0,0-57.11,27.79c-5.35,5.65-10,12-15.53,17.43a69.07,69.07,0,0,1-30.62,17.34" transform="translate(-269.72 -8.86)"/><path class="cls-7" d="M1701.68,1014.66a99.8,99.8,0,0,0-45.93,27.7c-3.38,3.64-6.45,7.53-9.82,11.18-18.21,19.55-43.94,29.92-68.77,39.73" transform="translate(-269.72 -8.86)"/><path class="cls-14" d="M1699.8,467.59a452.71,452.71,0,0,0,4.53,52.51c2.06,12.35,4.94,23.46,9.08,28.38,12.1,14.4-59,33.65-59,33.65l-42-32.52s33.25-30.62,17.76-60.48S1699.8,467.59,1699.8,467.59Z" transform="translate(-269.72 -8.86)"/><path class="cls-7" d="M1561.31,788.12h167.82c-4.67-12.68-7.78-21.92-7.78-21.92l-158.74,9Z" transform="translate(-269.72 -8.86)"/><path class="cls-8" d="M1550.51,785.09h179.42c-5-18.05,0-34.74,7.18-47.58a105.23,105.23,0,0,1,18.79-24.36l1.24-1.13,62.64-13.87,3.37-.74s.52-113.91-39.82-129.55-64.51-36.77-64.51-36.77l-55.42,17.12-40.83-20.58c-13.11,14.1-47.88,8.56-47.88,8.56-56.94,6.55-56.94,49.39-56.94,49.39s33.25,77.6,35.78,77.6S1550.51,785.09,1550.51,785.09Z" transform="translate(-269.72 -8.86)"/><path class="cls-7" d="M1612.45,712.67s-36.59-8.1-49-22.28" transform="translate(-269.72 -8.86)"/><path class="cls-7" d="M1796.93,670.18,1754.5,705a74,74,0,0,0,1.4,8.23l1.24-1.13,62.64-13.87Z" transform="translate(-269.72 -8.86)"/><path class="cls-7" d="M1682,773s9.29,5.23,23.51,12.1h24.38c-5-18.05,0-34.74,7.18-47.58l-43-13.91C1708.76,737.2,1682,773,1682,773Z" transform="translate(-269.72 -8.86)"/><path class="cls-8" d="M1542.93,571.92l-25.18,13.6-24.7,62.5s-25.7,68.52-23.19,86.67c0,0-9,42.85,7.06,50.4l42,19a3.91,3.91,0,0,0,5-5.39c-6-11.34-12.57-29.07-2.06-38.83l-12.1-25.19,43.73-71.57,14.61-24.69Z" transform="translate(-269.72 -8.86)"/><path class="cls-7" d="M1599,698.37c2.18,8.89,9.55,22.64,33.93,27.76l26.76,21.92,28.46,12.9,11.6,5.25,4.92-35.54-11.17-6.17-13-7.12s-29.39-53.24-75.91-30.87A10.28,10.28,0,0,0,1599,698.37Z" transform="translate(-269.72 -8.86)"/><path class="cls-14" d="M1600.49,695.35c2.18,8.91,9.53,22.63,33.92,27.76L1661.16,745l28.48,12.91,11.58,5.24,4.92-35.53L1695,721.46,1682,714.4s-29.4-53.23-75.93-30.76A10.29,10.29,0,0,0,1600.49,695.35Z" transform="translate(-269.72 -8.86)"/><circle class="cls-7" cx="1383.21" cy="439.82" r="65.01"/><circle class="cls-14" cx="1383.21" cy="438.31" r="65.01"/><path class="cls-7" d="M1693.2,586.08l-19.55-38s28.6-11.57,30.68-25,27.41,15.7,21.94,25.35S1693.2,586.08,1693.2,586.08Z" transform="translate(-269.72 -8.86)"/><path class="cls-8" d="M1693.2,583.05l-19.55-38s28.6-11.56,30.68-25,27.41,15.72,21.94,25.35S1693.2,583.05,1693.2,583.05Z" transform="translate(-269.72 -8.86)"/><path class="cls-16" d="M1533.2,681.19l108,145.22s-39.82,21.67-94.66-17.12l-23.69-28.23-67.62-114Z" transform="translate(-269.72 -8.86)"/><path class="cls-14" d="M1511.94,760.15l9.84-.27s60.09-58.32,74.84-28.81-37.43,57.09-37.43,57.09l-15.86,8.56-20.69,6.17-13.23-17.76Z" transform="translate(-269.72 -8.86)"/><path class="cls-7" d="M1526.45,791.65c.91,3.36,1.77,7.06.25,10.17a4.21,4.21,0,0,1-1.79,2,4.53,4.53,0,0,1-2.06.28,20.68,20.68,0,0,1-13.56-6.7,62.16,62.16,0,0,1-8.79-12.72c-2.67-4.67-5.45-9.84-4.51-15.15,1.07-5.78,6.18-9.79,11.18-13,10-6.59,10.29,1.09,12.47,9.56S1524.17,783.09,1526.45,791.65Z" transform="translate(-269.72 -8.86)"/><path class="cls-8" d="M1525,791.65c.88,3.36,1.77,7.06.25,10.17a4.21,4.21,0,0,1-1.79,2,4.67,4.67,0,0,1-2.06.28,20.57,20.57,0,0,1-13.56-6.7,60.82,60.82,0,0,1-8.81-12.72c-2.68-4.67-5.45-9.84-4.49-15.15,1-5.78,6.18-9.79,11.16-13,10-6.59,10.29,1.09,12.49,9.56S1522.64,783.09,1525,791.65Z" transform="translate(-269.72 -8.86)"/><polygon class="cls-7" points="1283.81 654.26 1288.83 645.76 1284.45 661.55 1283.81 654.26"/><path class="cls-7" d="M1689.72,757.93l11.59,5.24,4.91-35.53-11.17-6.18C1702.77,730.31,1696,746.67,1689.72,757.93Z" transform="translate(-269.72 -8.86)"/><path class="cls-7" d="M1736.23,716.67s-37.41,2.28-53.3-7.93" transform="translate(-269.72 -8.86)"/><g class="cls-15"><path d="M1731.58,740.54a105.05,105.05,0,0,1,18.79-24.39,50,50,0,0,1,5.53-3l58.32-12,3.37-.74s.52-113.9-39.79-129.54a242.08,242.08,0,0,1-62.89-35.42l4.42-1.35s24.18,21.15,64.52,36.77,39.8,129.54,39.8,129.54h-6.06l-59.67,11.42s-2.57,2.49-3.36,3.21a115.83,115.83,0,0,0-19.07,25.23,63.23,63.23,0,0,0-5,47.83h-6.18C1719.33,770.07,1724.48,753.38,1731.58,740.54Z" transform="translate(-269.72 -8.86)"/><path d="M1572.3,539.49c1-.15,1.89-.29,2.9-.39a104.18,104.18,0,0,0,12.35,1A112.55,112.55,0,0,1,1572.3,539.49Z" transform="translate(-269.72 -8.86)"/><path d="M1657.84,551.24l-36.91-18.69a18.9,18.9,0,0,0,2-1.95l38.53,19.48Z" transform="translate(-269.72 -8.86)"/></g><path class="cls-8" d="M1798.4,667.07l24.69,30.25,5,82.15s6.54,41.82-41.32,31.73S1683.55,770,1683.55,770s26.75-35.79,12.1-49.39l68.54,22.18s11.59-2.53,2.51-12.59S1756,701.93,1756,701.93Z" transform="translate(-269.72 -8.86)"/><path class="cls-7" d="M1809.55,753.85l13.6,15.62A19.6,19.6,0,0,1,1809.55,753.85Z" transform="translate(-269.72 -8.86)"/><polygon class="cls-7" points="1516.64 742.46 1537.81 769.67 1527.23 772.2 1516.64 742.46"/><path class="cls-7" d="M1575.28,417.33c-2.32-5.7-.53-12.34,2.27-17.72s6.64-10.45,8.74-16.23c3.11-8.6,2.16-18.34,5.56-26.75,6-14.92,23-21.59,38.25-26.76,4.51-1.5,9.31-3,13.92-1.89,6.17,1.46,10.18,7.06,15.22,10.83,20.71,15.43,54.37-1.57,74.39,14.77,7.66,6.17,11.38,16.28,12.54,26.09s0,19.78-.13,29.68c-.33,17.33,2.93,36.28,15.89,47.76,3.91,3.46,8.52,6.05,12.35,9.63s6.83,8.58,6.17,13.77a47.58,47.58,0,0,1-2.06,7c-2.57,9,1.28,18.52,6,26.75,14,24.22,38.67,44.18,66.63,44.73-1.87,14.12-16.46,22.31-29.53,28.09-16.46,7.39-34,14.64-52.12,13.71s-37-12.53-40.21-30.39c-1.09-6.18-1-13.61-6.18-16.82-3.21-2-7.36-1.46-10.82-2.92-5-2.06-7.47-7.68-9.12-12.84a115.76,115.76,0,0,1-5.37-32.93c-.22-13.25,1.53-27.72-6-38.62-7-10.11-19.31-15.23-27.33-24.51-7.41-8.6-15.46-19-27.6-20.58C1619.94,418.81,1585.2,441.64,1575.28,417.33Z" transform="translate(-269.72 -8.86)"/><path class="cls-10" d="M1575.28,414.31c-2.32-5.7-.53-12.35,2.27-17.72s6.64-10.45,8.74-16.24c3.11-8.6,2.16-18.33,5.56-26.75,6-14.94,23-21.61,38.25-26.75,4.51-1.5,9.31-3,13.92-1.89,6.17,1.46,10.18,7.05,15.22,10.82,20.71,15.43,54.37-1.56,74.39,14.78,7.66,6.17,11.38,16.27,12.54,26.11s0,19.76-.13,29.65c-.33,17.33,2.93,36.28,15.89,47.77,3.91,3.45,8.52,6.05,12.35,9.63s6.83,8.58,6.17,13.76a47.58,47.58,0,0,1-2.06,7c-2.57,9,1.28,18.52,6,26.75,14,24.14,38.61,44.16,66.57,44.72-1.87,14.12-16.46,22.31-29.53,28.11-16.46,7.37-34,14.61-52.12,13.68s-37-12.53-40.21-30.39c-1.09-6.17-1-13.6-6.18-16.81-3.21-2-7.36-1.46-10.82-2.93-5-2.05-7.47-7.67-9.12-12.84a115.64,115.64,0,0,1-5.37-32.92c-.22-13.25,1.52-27.72-6-38.63-6.95-10.1-19.3-15.23-27.33-24.51-7.4-8.6-15.45-19-27.59-20.57C1619.94,415.79,1585.2,438.65,1575.28,414.31Z" transform="translate(-269.72 -8.86)"/><path class="cls-7" d="M1621.42,581.36l37.27-30.25s-25.52-13.83-28.56-25.62-23.46,5.6-21.39,16.18S1621.42,581.36,1621.42,581.36Z" transform="translate(-269.72 -8.86)"/><path class="cls-8" d="M1622.88,576.82l37.27-30.23s-25.52-13.83-28.44-25.62-23.46,5.59-21.38,16.17S1622.88,576.82,1622.88,576.82Z" transform="translate(-269.72 -8.86)"/><circle class="cls-7" cx="1391.89" cy="563.04" r="2.96"/><circle class="cls-7" cx="1391.89" cy="579.5" r="2.96"/><circle class="cls-7" cx="1391.89" cy="595.94" r="2.96"/><g class="cls-15"><path d="M1590.33,372.29c2.94-8.09,2.3-17.17,5.06-25.31a27.38,27.38,0,0,0-3.15,5.8c-3.42,8.5-2.45,18.23-5.58,26.75l-.2.49A47.3,47.3,0,0,0,1590.33,372.29Z" transform="translate(-269.72 -8.86)"/><path d="M1825.44,576c-16.47,7.37-34,14.61-52.13,13.69s-37-12.53-40.21-30.38c-1.09-6.17-.95-13.62-6.17-16.83-3.21-2-7.37-1.46-10.83-2.92-5-2.06-7.47-7.68-9.11-12.84a115.43,115.43,0,0,1-5.38-32.93c-.22-13.23,1.55-27.7-6-38.62-7-10.11-19.33-15.21-27.35-24.51-7.41-8.58-15.46-19-27.6-20.58-16.65-2.26-51.44,20.58-61.28-3.75a19.12,19.12,0,0,1,.64-14.05c-.72,1.21-1.42,2.43-2.06,3.66-2.8,5.48-4.57,12-2.24,17.74,9.9,24.28,44.63,1.46,61.28,3.75,12.14,1.64,20.19,12,27.6,20.57,8,9.31,20.37,14.41,27.32,24.53,7.54,10.91,5.77,25.38,6,38.61a115.64,115.64,0,0,0,5.37,32.92c1.65,5.19,4.12,10.75,9.12,12.84,3.46,1.47,7.61,1,10.82,2.93,5.31,3.21,5.17,10.72,6.18,16.83,3.21,17.84,22.1,29.45,40.21,30.37s35.56-6.29,52.12-13.68c11.94-5.31,25.23-12.66,28.81-24.69C1844.86,566.46,1834.74,571.86,1825.44,576Z" transform="translate(-269.72 -8.86)"/></g><path class="cls-17" d="M2189.12,692.14c-43.57-25.07-60-31.24-60.11-31.24l-.91-.64a36.35,36.35,0,0,1-11-13.87,29.62,29.62,0,0,1,0-3,1.4,1.4,0,0,0,0,.29c.68-13.28,10.13-25.36,19.08-35.89l22.9-26.94a26.5,26.5,0,0,0,5.91-9.34,21.78,21.78,0,0,0,.62-5.74v-2.35c-.13-6.69-.31-13.4-.56-20.08-.2-5.85-1.71-13.22-7.55-14.41-3.05-.62-7.08.47-8.68-2.06a5,5,0,0,1-.4-3.48,1.4,1.4,0,0,0,0,.29v-.33a77.15,77.15,0,0,0,2.17-13.76,19,19,0,0,0-.95-7c-3.38-9.69-15-13.68-25.35-15.52s-21.88-3.39-28.34-11.46a83.85,83.85,0,0,0-5.64-7.76,22.31,22.31,0,0,0-10.53-5.2,59.73,59.73,0,0,0-38.34,3.33c-5,2.22-10,5.23-15.46,4.9s-10.53-4.28-16.13-5.23c-9.06-1.54-17.72,5.11-22.18,13a31.73,31.73,0,0,0-4.12,15.31v.9h0a22.38,22.38,0,0,0,5.89,15.64c3.91,4.12,9.71,6.83,11.33,12.16.66,2.17.5,4.51,1.1,6.71a5.78,5.78,0,0,0,.24.81l-.29.39a67.88,67.88,0,0,0-14.4,41.85,69.46,69.46,0,0,0,48.81,65.85v2.06c0,8.23-2.37,16.81-9.47,23l-61.71,24.65s-37.21-4.42-50.62,50a92.64,92.64,0,0,0-2.31,27.57c.5,8.23-.64,22.64-10.29,41.3-15.25,29.88-11.77,98.47,19.43,105.26,29.45,6.42,41,3.75,42.19,3.44v1.19c-.5,12.88-5.17,123.88-22.15,137.3-4.69,3.73-3.82,6.17,0,7.92,0,0,0,.72-.1,2.06-.51,8.23-3.13,39.1-14.4,56.63-13.2,20.38-11.82,137.88-11.82,137.88l-9,69.27s5.54,42.78,0,50.25c-5,6.65-11.54,164.91-12.92,199.24h-.58a16.7,16.7,0,0,0-13.33,8.23c-7.29,11.83-32.81,33.71-32.81,33.71-5.53,7.86-26,15.39-36.83,18.93a22.9,22.9,0,0,0-4.12,1.81,22,22,0,0,0-9.3,9.8,10.53,10.53,0,0,0-1,8.23c2.76,6.77,60.32,11.54,74.89,4.73,11.44-5.33,56.8-12.35,75.62-15.1a15.52,15.52,0,0,0,13.46-13.46,8.82,8.82,0,0,0-1.73-6.73h0c-3.6-4.47-5.43-16.67-6.17-24.7a16.36,16.36,0,0,0,4.24-2.51,180.86,180.86,0,0,1,10.29-72.66c13.87-36.67,18-104.58,14.57-148.72,0,0,42.29-182,75.58-199h0c.52.66,16.67,21.38,18.73,85.56,2.06,65.2,25.64,108,25.64,108s-10.41,110.69,0,152.11l-13.6,65.34c-1-.84-1.65-1.5-1.65-1.5s.41,1.81,1,4.71l-.29,1.4.6.12c1.54,8.24,3.82,22.41,2.88,30.87-.54,4.76-1.87,11.28-2.78,17.68-1.44,10.06-1.83,19.82,3.46,22,8.68,3.49,59.67,8.23,68.32-3a16,16,0,0,0,2.51-16.77,17.06,17.06,0,0,0-2.51-4.28s-13.54-22.12-9.72-37.72a11.45,11.45,0,0,0-1.62-9c.6-7.66,3.68-43.09,11.67-73.18,8.68-32.68,27-104.33,13.52-151.44h0q-.76-2.77-1.73-5.43a203.48,203.48,0,0,1-7.64-79.45,162.14,162.14,0,0,1,0-69.27c8.34-38,14.16-75.38,14.16-75.38s4.59-50.25.58-81.06c0-.65-.19-1.31-.27-2l2.18-.5s-11.79-52.29-16-85.56c-1-7.86-2.26-17.8-3.66-28.42a73.22,73.22,0,0,0,11.3-2.82c37.43-12.9,49.22-129.64,49.22-129.64v-37S2232.81,717.26,2189.12,692.14Zm-279,901.83c-1.16-.58-1.83-1-1.83-1h0Z" transform="translate(-269.72 -8.86)"/><path class="cls-18" d="M2166.52,1366.14c16.24,46.7-2.71,122.49-11.52,156.4s-11.5,74.45-11.5,74.45c-34.51,5.41-59.56-1.36-59.56-1.36l14.22-69.7c-10.16-41.28,0-151.6,0-151.6s-23-42.64-25-107.6c-2.06-63.94-17.76-84.62-18.26-85.26h0c-32.47,16.92-73.75,198.3-73.75,198.3,3.38,44-.7,111.65-14.22,148.16a183.18,183.18,0,0,0-10.14,72.4c-4.74,4.11-11.32,4.69-18.52,3.54-19.33-3.13-42.5-19.78-42.5-19.78s7.43-197.55,12.86-205,0-50.09,0-50.09l8.79-69s-1.36-117.09,11.5-137.38c11.12-17.54,13.67-48.36,14.16-56.45v-2.06l19.59-23.46s189.49-14.22,203.73,0c3.48,3.48,5.64,11.42,6.91,21.4,3.91,30.71-.57,80.77-.57,80.77s-5.68,37.23-13.81,75.12a165,165,0,0,0,0,69A206.77,206.77,0,0,0,2166.52,1366.14Z" transform="translate(-269.72 -8.86)"/><path class="cls-13" d="M2154.67,1662.88c-8.46,11.18-58.2,6.45-66.67,3-5.17-2.06-4.78-11.88-3.38-21.9.89-6.36,2.18-12.86,2.72-17.59,1.33-12.19-4.12-36.9-4.12-36.9s11.15,11.85,13.85,0c1.19-5.19,5.35-7.84,9.67-9.18a25.31,25.31,0,0,1,17.58,1.09c8.78,3.83,23.44,12,20.82,23-3.72,15.53,9.47,37.59,9.47,37.59a17.48,17.48,0,0,1,2.47,4.24A16.24,16.24,0,0,1,2154.67,1662.88Z" transform="translate(-269.72 -8.86)"/><path class="cls-7" d="M2154.67,1662.88c-8.46,11.18-58.2,6.45-66.67,3-5.17-2.06-4.78-11.88-3.38-21.9,5.35,2.51,14.41,4.59,29.57,3.19a85.91,85.91,0,0,1,10.64-.33,245.37,245.37,0,0,0,32.31-.66A16.25,16.25,0,0,1,2154.67,1662.88Z" transform="translate(-269.72 -8.86)"/><path class="cls-7" d="M1981.09,1379.68c3.38,44-.7,111.66-14.22,148.17a183.13,183.13,0,0,0-10.14,72.39c-4.74,4.12-11.32,4.7-18.52,3.54,4.11-28.54,21.48-151.52,32.61-248.69,12.7-110.65,72-186.77,72-186.77l11.83,13C2022.37,1198.31,1981.09,1379.68,1981.09,1379.68Z" transform="translate(-269.72 -8.86)"/><path class="cls-19" d="M2134.36,668.41l-8.23,40.6-40.48,68-49.9-21.32s-67.91-71.05-25.21-81.2a37.81,37.81,0,0,0,14.16-6.3c8.37-6.31,11-15.49,11-24.48a75.09,75.09,0,0,0-6.88-29.1l87.3-27.41a140.13,140.13,0,0,0-6.18,35.35c-.68,23.79,8.24,35.5,15.42,41.16A26.21,26.21,0,0,0,2134.36,668.41Z" transform="translate(-269.72 -8.86)"/><path class="cls-7" d="M2116.09,587.21a140.13,140.13,0,0,0-6.18,35.35,65,65,0,0,1-5.08,5.41,69.06,69.06,0,0,1-69,15.75,75.12,75.12,0,0,0-6.94-29.1Z" transform="translate(-269.72 -8.86)"/><path class="cls-19" d="M2126.11,576a69,69,0,1,1-69.06-69h0a68.73,68.73,0,0,1,69,68.38Z" transform="translate(-269.72 -8.86)"/><path class="cls-7" d="M2134.36,668.41l-8.23,40.6-40.48,68-49.9-21.32s-67.91-71.05-25.21-81.2a37.81,37.81,0,0,0,14.16-6.3c-7.7,21.16,24.07,65.18,24.07,65.18,3.71,5.45,12.19,2,12.19,2,20.47-3.1,58.15-62,64.3-71.77A26.17,26.17,0,0,0,2134.36,668.41Z" transform="translate(-269.72 -8.86)"/><path class="cls-7" d="M2173.44,1062c-12,2.74-78.51,17.46-103.72,13.77-27.74-4.11-81.67-6.75-81.67-6.75s-34.35,1.85-44.93-3V1064l19.59-23.46s189.49-14.22,203.73,0C2170,1044.11,2172.16,1052.05,2173.44,1062Z" transform="translate(-269.72 -8.86)"/><path class="cls-8" d="M2048.75,735.41s-35.7-49.38-22.24-68.73l-60.32,24.7s-36.3-4.41-49.39,49.78a94.43,94.43,0,0,0-2.24,27.49c.49,8.23-.62,22.63-9.94,41.15-14.88,29.78-11.5,98.14,19,105s41.26,3.38,41.26,3.38-4.11,123.84-21.65,138.06,44.87,10.82,44.87,10.82,53.93,2.72,81.69,6.78,105.57-14.22,105.57-14.22-11.5-52.11-15.58-85.26-13.56-103.78-13.56-103.78l69-93.51s12.18-56.5-30.46-81.55-58.66-31.18-58.66-31.18-42.85,69.77-65.18,73.14C2060.93,737.43,2052.46,740.85,2048.75,735.41Z" transform="translate(-269.72 -8.86)"/><path class="cls-7" d="M1969.57,755s-.66,22.34,3.39,31.13,19,57.62,19,57.62h-33.85s18.28-19.63,16.94-29.12S1969.57,755,1969.57,755Z" transform="translate(-269.72 -8.86)"/><path class="cls-19" d="M2069.74,923.54s-74.74-18.27-81.69-33.83-26.16-50.4-26.16-50.4l7.88-10.61,36.34,28.52s43.22,34.51,63.63,37.9S2069.74,923.54,2069.74,923.54Z" transform="translate(-269.72 -8.86)"/><path class="cls-20" d="M2069.74,923.54s-74.74-18.27-81.69-33.83-26.16-50.4-26.16-50.4l7.88-10.61,36.34,28.52s43.22,34.51,63.63,37.9S2069.74,923.54,2069.74,923.54Z" transform="translate(-269.72 -8.86)"/><path class="cls-19" d="M2134.36,835.57v40.54h-6.5a189.35,189.35,0,0,0-92,23.83l-12.22,6.77-3.28,1.83-21-47.33L2019,843.62h1c4.8.47,25.56,2.2,34.37-.77,8.35-2.84,18.73-11.83,43.34-5.55,12.12,3.11,22.49,16.69,34.24,12.45Z" transform="translate(-269.72 -8.86)"/><path class="cls-7" d="M2199.67,761.73,2213.19,777v36.9s-11.5,116.39-48,129.25-101.78-7.45-101.78-7.45-16.85-44.65-9-47.33,69.66-19,69.66-19-.86-68.28,12.66-88.59c0,0-8.79-63.61,21.66-65S2199.67,761.73,2199.67,761.73Z" transform="translate(-269.72 -8.86)"/><path class="cls-8" d="M2201.73,761.73,2215.27,777v36.9s-11.5,116.39-48.05,129.25-101.78-7.45-101.78-7.45-16.85-44.65-9-47.33,69.66-19,69.66-19-.89-68.28,12.65-88.59c0,0-8.8-63.61,21.65-65S2201.73,761.73,2201.73,761.73Z" transform="translate(-269.72 -8.86)"/><path class="cls-7" d="M2107.17,605.34a27.07,27.07,0,0,0-1.54-13.19c-1.91-4.12-6.38-7.23-10.74-6.18-5.78,1.36-8.23,8.89-13.95,10.7-4.8,1.53-10-1.87-12.35-6.33s-2.35-9.72-2.35-14.74v-17c0-6.18-.2-12.8-4-17.64-4.71-6-15.8-8.64-23.21-8.4a19.71,19.71,0,0,0-13.25,5.33c-4,3.38-8.54,5.85-13.93,5a12,12,0,0,1-9.72-8.39v-.21a69,69,0,1,1,102.61,91.62A184.77,184.77,0,0,0,2107.17,605.34Z" transform="translate(-269.72 -8.86)"/><path class="cls-21" d="M2011.86,540.91a12.11,12.11,0,0,1-9.74-8.42c-.55-2.18-.41-4.51-1-6.67-1.58-5.33-7.26-8.08-11.07-12.14-7.61-8.09-7.12-21.38-1.73-31.11,4.36-7.84,12.8-14.41,21.65-12.93,5.47.95,10.29,4.84,15.76,5.21s10.29-2.65,15.09-4.88a56.81,56.81,0,0,1,37.49-3.33,21.53,21.53,0,0,1,10.29,5.21,90.62,90.62,0,0,1,5.5,7.71c6.29,8,17.59,9.61,27.65,11.42s21.45,5.81,24.7,15.48c2.2,6.42,0,13.37-1.2,20a6.09,6.09,0,0,0,.27,4.12c1.59,2.59,5.52,1.5,8.48,2.06,5.7,1.21,7.16,8.56,7.39,14.4q.35,10,.53,20a25.28,25.28,0,0,1-.59,7.41,26.16,26.16,0,0,1-5.75,9.32l-22.34,26.86c-9.92,11.89-20.44,25.76-18.52,41.15-4.7,2.06-10.29-2-11.82-6.87s-.31-10.29.74-15.25a185.24,185.24,0,0,0,3.58-26.44,27,27,0,0,0-1.54-13.17c-1.91-4.12-6.38-7.22-10.74-6.17-5.8,1.35-8.23,8.89-13.95,10.7-4.8,1.52-10-1.88-12.35-6.34s-2.35-9.69-2.35-14.71v-17c0-6.18-.2-12.8-4-17.64-4.71-6-15.8-8.64-23.21-8.39a19.68,19.68,0,0,0-13.23,5.33C2021.84,539.3,2017.25,541.79,2011.86,540.91Z" transform="translate(-269.72 -8.86)"/><path class="cls-7" d="M2027.43,753.34l21.2,87.07S2065.34,840.3,2027.43,753.34Z" transform="translate(-269.72 -8.86)"/><path class="cls-7" d="M2099.85,738.79s-27.74,45.44-16.92,92.44l5.17.37S2078.88,809.85,2099.85,738.79Z" transform="translate(-269.72 -8.86)"/><path class="cls-7" d="M2117.36,996s34.08-11.28,36.55,14.88C2154,1010.84,2147.57,992.91,2117.36,996Z" transform="translate(-269.72 -8.86)"/><path class="cls-7" d="M2019,845.71s-6.77,47.33,5.41,66.33c0,0-24.7,10.14-59.56,8.13l-4.11-74.46Z" transform="translate(-269.72 -8.86)"/><path class="cls-7" d="M2023.61,906.71l-3.28,1.83-21-47.33L2019,843.62h1C2019.68,846,2014.2,886.64,2023.61,906.71Z" transform="translate(-269.72 -8.86)"/><path class="cls-8" d="M2019,843.7s-6.77,47.33,5.41,66.3c0,0-24.7,10.17-59.56,8.13l-23.68-74.43Z" transform="translate(-269.72 -8.86)"/><path class="cls-13" d="M1960.45,1634.07a15.34,15.34,0,0,1-13.15,13.42c-18.38,2.74-62.64,9.74-73.81,15.06-14.22,6.78-70.38,2.06-73.1-4.73a10.75,10.75,0,0,1,1-8.23,21.73,21.73,0,0,1,9.07-9.75,24,24,0,0,1,4.12-1.81c10.58-3.52,30.56-11,36-18.87,0,0,24.92-21.8,32-33.57a16.29,16.29,0,0,1,13-8.11c5.92-.26,12.53,2.72,15.24,15.71,0,0,32.46,18.52,41.16,2.28,0,0,1.36,24.94,6.75,31.77h0A9.05,9.05,0,0,1,1960.45,1634.07Z" transform="translate(-269.72 -8.86)"/><path class="cls-7" d="M1960.45,1634.07a15.34,15.34,0,0,1-13.15,13.42c-18.38,2.74-62.64,9.74-73.81,15.06-14.22,6.78-70.38,2.06-73.1-4.73a10.75,10.75,0,0,1,1-8.23,21.73,21.73,0,0,1,9.07-9.75c9.16,6.17,29.49,12,74.21,5,42.66-6.67,63.79-13.19,74.08-17.64h0A9,9,0,0,1,1960.45,1634.07Z" transform="translate(-269.72 -8.86)"/><g class="cls-15"><path d="M2145.1,527.45v-.33c1-5.06,2.43-10.29,2.06-15.37a101.17,101.17,0,0,1-2.06,12.34A7.62,7.62,0,0,0,2145.1,527.45Z" transform="translate(-269.72 -8.86)"/><path d="M2105.61,590.79a19.64,19.64,0,0,1,1.67,7.74,23.43,23.43,0,0,0-1.67-10.79c-1.89-4.11-6.36-7.22-10.72-6.17-5.8,1.36-8.23,8.89-14,10.7-4.78,1.52-10-1.87-12.35-6.34s-2.35-9.71-2.35-14.73v-17c0-6.17-.2-12.8-4-17.63-4.73-6-15.8-8.65-23.21-8.42a19.68,19.68,0,0,0-13.25,5.35c-4,3.37-8.54,5.84-14,5a12.06,12.06,0,0,1-9.71-8.4c-.55-2.18-.41-4.52-1-6.69-1.58-5.3-7.26-8.08-11.07-12.12a22.18,22.18,0,0,1-5.7-14.4,23.05,23.05,0,0,0,5.7,17.35c3.81,4.11,9.49,6.81,11.07,12.12.64,2.06.5,4.5,1,6.69a12.06,12.06,0,0,0,9.71,8.39c5.42.89,10-1.58,14-5a19.68,19.68,0,0,1,13.25-5.35c7.41-.22,18.52,2.39,23.21,8.42,3.79,4.83,4,11.48,4,17.63v17c0,5,0,10.29,2.35,14.71s7.51,7.89,12.35,6.36c5.68-1.81,8.23-9.34,14-10.7C2099.25,583.57,2103.72,586.82,2105.61,590.79Z" transform="translate(-269.72 -8.86)"/><path d="M2161.23,572.17a26,26,0,0,1-5.76,9.3l-22.35,26.85c-9.4,11.3-19.34,24.39-18.52,38.81.68-13.23,9.9-25.27,18.52-35.76l22.35-26.86a19.61,19.61,0,0,0,6.36-16.73A19.18,19.18,0,0,1,2161.23,572.17Z" transform="translate(-269.72 -8.86)"/><path d="M2103,642.61a15.51,15.51,0,0,1-.68-3.63,18.1,18.1,0,0,0,.68,6.67c1.52,4.9,7.1,9,11.81,6.85a26.65,26.65,0,0,1-.25-3C2109.83,651.41,2104.4,647.42,2103,642.61Z" transform="translate(-269.72 -8.86)"/></g><path class="cls-7" d="M1878,1591.79s7.08,12.34,32.72,1.48" transform="translate(-269.72 -8.86)"/><path class="cls-7" d="M2094.72,1594.79s22.11,26,50,8.54" transform="translate(-269.72 -8.86)"/><path class="cls-7" d="M2159.05,1287s-15.62,9.75-16.11,15.33,8.07-4.12,8.07-4.12Z" transform="translate(-269.72 -8.86)"/><path class="cls-7" d="M2165.23,1361.78a32.65,32.65,0,0,1-19.24,7.51c-11.69.52-10.71,15.74-3.07,11.18S2165.23,1361.78,2165.23,1361.78Z" transform="translate(-269.72 -8.86)"/><path class="cls-7" d="M2168.19,1371.56s-7.49,36.81-13.58,29.71" transform="translate(-269.72 -8.86)"/><path class="cls-22" d="M721.07,1647.47s47,12.9,69.66-4.26,32.45-11.65,32.45-11.65,54-3,58.43-15.74-20.71-59.1-20.71-59.1c-1.79-4.12-4.4-9.34-5.57-9.34l.24-19.55h0l7.82-81.8c18.05-46.28.33-106.08.33-106.08l-3.23-14.84a37.56,37.56,0,0,1,3.07-24.69l32.78-65.86a99,99,0,0,1,6.17-12.63c2.06-3.77,4.8-8.42,8.23-14,1-1.61,2.06-3.28,3.21-5,4-6.17,8.79-13.17,14.61-21.23,14.51-20.11,22.15-45.27,26.1-63.8l1.75,5.81h.39l.47.1h.78l.85.14h.31l10.08,128.33c.62,50,19,77.75,19,77.75l-2.53,110.48c3.46,26.61-4.11,62.09-7.59,76.25l-7.94,17.92a21.54,21.54,0,0,0-11.71,16.3c-1.57,13.23-15.5,41.75-15.5,41.75-5.39,6.83-17.1,25.29-17.1,25.29s-5.51,17.82-2.1,24.49,32,6,32,6c32.62,7.22,57.62-10.29,56-22.35s5.08-15.12,5.08-15.12c13-4.12,11.71-12.91,11.71-12.91a80.71,80.71,0,0,0-9.82-52.55l-2.06,4.75a72.64,72.64,0,0,1,3.91-28l-1.19.82-.37.23H1019c2-18,21-51.45,21-51.45,34.82-61.07,22.16-143.84,22.16-143.84l-5.39-25.8-.31-9.74a324.45,324.45,0,0,1,5.25-69.35c1.87-10.12,3.8-22.35,5.29-35.82,3.12-28.48,13.21-57.87,17.86-70.32l1.38-.25h.16c1.89-.33,3.81-.66,5.74-1h.37s1.11-6,2.06-16.23c.56-6.53,1-14.8,1-24.31a273.15,273.15,0,0,0-13-84.59l1-1.51s2.49-3.37,7-9.22h0c8.36-10.61,21.36-26.75,37.39-44.94,28.71-32.74,20.27-65.85,20.27-65.85s-20.78-76.16-30-121.89c-5.29-26-15.21-43.77-22.8-54.22a108.53,108.53,0,0,0,2.88-22c.62-13.54.14-27.66-5.95-39.82s-19.06-21.77-32.6-20.14a12.53,12.53,0,0,1-5.84,0,9,9,0,0,1-3.85-3.36c-7.92-10.92-8.44-25.62-6-38.87s7.54-25.93,9.8-39.22,1.23-28-7.22-38.59c-9.94-12.34-27.27-15.82-40.19-25.1-9.08-6.53-15.89-15.89-25.46-21.67s-18.52-3.58-28.91-1.4c-17.47,3.68-34.08,5.37-50.6,12.88a134.69,134.69,0,0,0-44.1,32.08,41.83,41.83,0,0,0-9.84,15.52c-4.12,13.6,3.93,28.09,2.24,42.16-1.19,10-7.08,18.67-11.75,27.58s-8.23,19.49-4.57,28.81c5.77,14.57,24.55,17.65,38.22,25.41a11.85,11.85,0,0,1,4.53,3.93c3.37,5.89-3.52,12-7.87,17.23a26,26,0,0,0-5.14,10.45,37.31,37.31,0,0,0-22.37,27c-4.63,20.72,2.49,46.88,8.77,64.16-6.85,38.51,2.06,53.69,8.62,59.52A33,33,0,0,1,869.75,832v.72c.43,7,1.17,14,2.16,20.93h0c-.22-1.63-.45-3.36-.57-4.12C866,859.5,855.74,884.9,850,927.62a234.74,234.74,0,0,1-5.21,27.18,148.55,148.55,0,0,0-4.36,48.61l1,13.85a4.4,4.4,0,0,1-2.8-.93l7.22,13.23v22.33a82.36,82.36,0,0,1-5.47,29.45c-.52,1.36-1.07,2.71-1.67,4.11a24,24,0,0,0-2.43,12.12c-15.54,23.81-51.16,157.24-51.16,157.24-19.32,43.75,1.59,72,1.59,72s10.12,121.8,12,128.1,6.09,80.54,6.09,80.54h0v5.91a14,14,0,0,0-3.52-1c-16.94-1-21.53,25.81-21.53,25.81l-34.65,33.09s-15.83-2.68-39.1,14.79S721.07,1647.47,721.07,1647.47Zm346-704-.1-.37-1,.56h0l-.39.22-.19.13h0l-16-56.37a93.69,93.69,0,0,1-1.17-46.36l12.35-54.08h0v-13l39.24,104.58C1102.43,892.9,1079.12,927,1067.1,943.5Z" transform="translate(-269.72 -8.86)"/><path class="cls-23" d="M1084.32,1113.63s-15.84,38.54-19.88,75.52c-1.46,13.33-3.35,25.39-5.2,35.39a323.33,323.33,0,0,0-5.06,68.47l.3,9.61,5.15,25.45s12.35,81.76-21.75,142c0,0-20.21,36.08-20.83,53.16l-13.68,5.29-27.66-7.76s13.36-47.89,9-81.45l2.49-109.07s-18-27.28-18.58-76.67L958.07,1118Z" transform="translate(-269.72 -8.86)"/><path class="cls-23" d="M958.07,1094.32s-3.39,52.85-29.53,89.27-31.69,52.23-31.69,52.23l-32.18,65.07a37.29,37.29,0,0,0-3,24.34l3.17,14.65s17.41,59.07-.31,104.77l-8.39,88.28H807s-4.12-73.36-5.91-79.58-11.81-126.51-11.81-126.51-20.58-28-1.56-71.18c0,0,42.9-161.65,54.38-158.85S958.07,1094.32,958.07,1094.32Z" transform="translate(-269.72 -8.86)"/><g class="cls-15"><path d="M859.83,1340l-3.15-14.65a37.09,37.09,0,0,1,3-24.45l32.18-65.13s5.58-15.85,31.69-52.23c25.09-35,29.23-85.11,29.51-89l5-.25s-3.39,52.85-29.53,89.27-31.69,52.23-31.69,52.23l-32.18,65.07a37.29,37.29,0,0,0-3,24.34l3.17,14.65s17.41,59.07-.31,104.77l-8.39,88.28h-5l8.39-88.28C877.24,1399,859.83,1340,859.83,1340Z" transform="translate(-269.72 -8.86)"/></g><path class="cls-7" d="M1012.15,1523.28c.62-17.08,20.83-53.15,20.83-53.15,34.2-60.3,21.75-142,21.75-142l-5.27-25.47-.31-9.61a324,324,0,0,1,5.07-68.47c1.83-10,3.72-22.06,5.18-35.39,3.89-35.6,18.73-72.64,19.82-75.36l5.1-.2s-15.84,38.54-19.88,75.52c-1.46,13.33-3.35,25.39-5.2,35.39a323.33,323.33,0,0,0-5.06,68.47l.3,9.61,5.15,25.45s12.35,81.76-21.75,142c0,0-20.21,36.08-20.83,53.16l-13.68,5.29-2.88-.81Z" transform="translate(-269.72 -8.86)"/><path class="cls-24" d="M996.31,1522.66a23.79,23.79,0,0,0,22.64-2.8,73.06,73.06,0,0,0-1.86,41c5.6,22.39-52.22-18-52.22-18l12.34-28.21S982,1523.59,996.31,1522.66Z" transform="translate(-269.72 -8.86)"/><path class="cls-7" d="M1000.61,1523.92a23.12,23.12,0,0,0,18.38-4.12,73.06,73.06,0,0,0-1.86,41c5.6,22.39-52.22-18-52.22-18l12.34-28.21s3.58,6.87,14.1,7.94C994.54,1522.91,997.59,1523.34,1000.61,1523.92Z" transform="translate(-269.72 -8.86)"/><polygon class="cls-23" points="595.4 990.84 619.56 990.84 619.56 853.77 601.43 850.52 595.4 990.84"/><polygon class="cls-20" points="595.4 990.84 619.56 990.84 619.56 853.77 601.43 850.52 595.4 990.84"/><path class="cls-25" d="M982.62,1533.24s15.23-1,22.06,12.74l8.4,6.52,4.12-9.63a80.24,80.24,0,0,1,9.5,51.92s1.24,8.68-11.5,12.74c0,0-6.52,3.11-5,14.92s-23,29.22-55,22.06c0,0-28,.64-31.4-5.91s2.18-23.93,2.18-23.93,11.51-18.23,16.77-25c0,0,13.69-28.2,15.25-41.16S974.54,1526.08,982.62,1533.24Z" transform="translate(-269.72 -8.86)"/><path class="cls-24" d="M856.58,1544.74l.25-19.32s-27.8,8-50.32-1.05c0,0,1.9,19.43-1.23,22.08s10.41,27.66,10.41,27.66L830.82,1590l26-9.46,7.06-22.23S858.43,1544.74,856.58,1544.74Z" transform="translate(-269.72 -8.86)"/><path class="cls-7" d="M856.58,1544.74l.25-19.32s-27.8,8-50.32-1.05c0,0,1.9,19.43-1.23,22.08s10.41,27.66,10.41,27.66L830.82,1590l26-9.46,7.06-22.23S858.43,1544.74,856.58,1544.74Z" transform="translate(-269.72 -8.86)"/><path class="cls-25" d="M803.57,1537.75s14.78,1.7,12.9,20.58.79,0,.79,0,15.7,6.35,21.29,15.22,15.71-7.92,16.47-12.73,7.06-6.82,7.06-6.82,24.69,45.79,20.33,58.38-57.38,15.5-57.38,15.5-9.65-5.43-31.87,11.5-68.38,4.12-68.38,4.12-37.62-15.7-14.76-32.93S748.4,1596,748.4,1596l34-32.8S786.94,1536.8,803.57,1537.75Z" transform="translate(-269.72 -8.86)"/><path class="cls-26" d="M980,455.3c9.41,5.7,16.09,15,25,21.4,12.68,9.16,29.7,12.58,39.45,24.8,8.23,10.41,9.3,25,7.08,38.09s-7.2,25.66-9.61,38.75-1.91,27.59,5.87,38.38a8.68,8.68,0,0,0,3.76,3.31,12.37,12.37,0,0,0,5.74,0c13.3-1.6,26.06,7.9,32,19.9s6.45,26,5.83,39.33c-.52,11-1.75,22.16-6.57,32-8.23,16.79-25.35,27.16-42.24,35.1A328.86,328.86,0,0,1,1012.63,760c-7.9,2.67-16.24,5.08-24.45,3.68-14-2.43-24-15.21-37.35-20.21-10.93-4.11-23.05-2.63-34.67-1.6-9.92.86-21.26.84-28.09-6.4-8.77-9.31-4.82-24.31-.33-36.28A25.84,25.84,0,0,1,869.46,657c4.24-5.17,11-11.2,7.7-17a11.37,11.37,0,0,0-4.44-3.87c-13.4-7.65-31.86-10.72-37.5-25.08-3.62-9.24-.12-19.7,4.47-28.48s10.29-17.39,11.54-27.23c1.65-13.91-6.17-28.21-2.2-41.63a41.77,41.77,0,0,1,9.65-15.35,132.38,132.38,0,0,1,43.22-31.67c16.23-7.43,32.51-9.1,49.67-12.72C961.86,451.76,970.38,449.46,980,455.3Z" transform="translate(-269.72 -8.86)"/><path class="cls-23" d="M889.26,662.46s-39.37-2.05-46.82,31.51S858.6,775.6,858.6,775.6Z" transform="translate(-269.72 -8.86)"/><path class="cls-20" d="M889.26,662.46s-39.37-2.05-46.82,31.51S858.6,775.6,858.6,775.6Z" transform="translate(-269.72 -8.86)"/><path class="cls-23" d="M864.13,762.35l14.92,11.81,69.62,3.11,43.46-29.84,44.2-75.85c-27-6.89-37.94-25.56-42-43a94.24,94.24,0,0,1-.86-35.93S922.58,556,931.28,613.22a77.81,77.81,0,0,1,.66,21.28c-4.12,33.54-36.67,27.22-36.67,27.22L882.78,681l-14.3,47.33Z" transform="translate(-269.72 -8.86)"/><path class="cls-7" d="M931.34,613.14a77.36,77.36,0,0,1,.66,21.27,62.82,62.82,0,0,0,62.37-5.84,94.24,94.24,0,0,1-.86-35.93S922.64,556,931.34,613.14Z" transform="translate(-269.72 -8.86)"/><circle class="cls-23" cx="688.4" cy="565.96" r="62.78"/><path class="cls-8" d="M913.71,750.37c1.52,0,3,.23,4.52.37,8.24.83,42.62,2.68,62.21-20.72,21.92-26.17,51.1-58.5,52.29-59.82h0l29.7,9s-23.5-8.35-39.1,35.36a45.26,45.26,0,0,0,15.29,52.08,47.07,47.07,0,0,0,19.42,8.23.09.09,0,0,1,0,.1v19.18h0l-12.14,53.51a92.71,92.71,0,0,0,1.16,45.79l18.52,65.46h0c-2.8,1.93-117.71,80.09-194.47,26.11h0c.29-2.35,9.77-79.17,3.19-116.76a260.51,260.51,0,0,1-3.44-29.06v-.72a32.75,32.75,0,0,0-11.25-22.22c-6.92-6.18-16.28-22.64-7-66.14a159.73,159.73,0,0,1,10.29-31.34l25.74-58.18h0l23.73.47m0,.17c-2.06,2.55-29.57,36.92-32.56,59.06-2.92,21.05-6.52,27.51,33.92,30.1Z" transform="translate(-269.72 -8.86)"/><path class="cls-23" d="M1082.41,689.4s23.21,19.9,32.33,65.07,29.43,120.2,29.43,120.2,8.23,32.74-19.9,65.07-46.84,57.62-46.84,57.62l-18.52,27.28a23.24,23.24,0,0,1-13.34,9.43c-8.43,2.22-21.4,3.83-32.63-2.33a19,19,0,0,1-8.23-24l4.11-9.53s-38.13,24-41.44,10.76,44.34-26.52,44.34-26.52,39.37-6.63,47.33-25.27c0,0,42.27-54.31,39-72.95L1057.18,774.8s-51.05-6.75-33.65-64.1S1082.41,689.4,1082.41,689.4Z" transform="translate(-269.72 -8.86)"/><path class="cls-18" d="M838.29,1102.2s93.26,18.65,115.24,16.16l2.36,7.88s35.4,7.92,115.43-4.77q7.83-1.24,16.28-2.78l1.87-.33s1.09-5.93,2-16c1.92-22.95,2.6-67.38-13.56-112.85L1064.4,948s-83.17,49.86-138.24,45.27c-4.92-.41-9.8-.8-14.72-1-11.29-.44-28.81,0-40.19-9.12l-23.87,4.12v67.9A81.28,81.28,0,0,1,842,1084.3c-.51,1.36-1,2.7-1.64,4.12A21.5,21.5,0,0,0,838.29,1102.2Z" transform="translate(-269.72 -8.86)"/><path class="cls-7" d="M955.87,1105.11v21.13s40.75,9.12,133.58-7.88c0,0,1.09-5.93,2-16C1062.92,1106.9,984.37,1117.88,955.87,1105.11Z" transform="translate(-269.72 -8.86)"/><path class="cls-7" d="M838.29,1102.2s93.26,18.65,115.24,16.16l2.36,7.88v-21.13c-10.62,4.4-86.43-13.87-113.9-20.73-.51,1.36-1,2.7-1.64,4.12A21.53,21.53,0,0,0,838.29,1102.2Z" transform="translate(-269.72 -8.86)"/><path class="cls-18" d="M1064.38,1078.64l6.92,42.89q7.83-1.24,16.27-2.78c-2.16-12.53-6.87-41.16-5.57-45.91l-8.71-7.45Z" transform="translate(-269.72 -8.86)"/><path class="cls-7" d="M1065.35,1077.72l6.91,42.9q7.85-1.26,16.28-2.78c-2.16-12.53-6.87-41.15-5.57-45.91l-8.71-7.47Z" transform="translate(-269.72 -8.86)"/><g class="cls-27"><path d="M921.16,993.28c-4.9-.41-9.8-.8-14.72-1-11-.42-27.76,0-39.2-8.42l4-.7c11.45,9.07,28.81,8.68,40.19,9.12,4.92.16,9.8.55,14.72,1,1.6.15,3.25.23,4.92.27A90.78,90.78,0,0,1,921.16,993.28Z" transform="translate(-269.72 -8.86)"/><path d="M1066.32,1121.47q7.83-1.24,16.27-2.76l1.9-.35s1.09-5.93,1.93-16c1.94-22.95,2.62-67.38-13.56-112.85l-12.68-39.1c2.7-1.53,4.12-2.41,4.12-2.41l13.46,41.44c16.15,45.48,15.47,89.91,13.56,112.86-.86,10.1-2,16-2,16l-1.87.35q-8.41,1.51-16.28,2.75c-37.39,5.93-65,7.37-83.85,7.21A530.44,530.44,0,0,0,1066.32,1121.47Z" transform="translate(-269.72 -8.86)"/><path d="M948.51,1118.36v.22h-2.68C946.85,1118.52,947.74,1118.44,948.51,1118.36Z" transform="translate(-269.72 -8.86)"/></g><ellipse class="cls-24" cx="806.25" cy="1070.54" rx="3.52" ry="7.24"/><path class="cls-23" d="M851.38,932.72c5.67-42.19,15.7-67.25,21-77.07.2,1.34.74,5.68,1,7,1.07,6.17.13,14,.46,21.79l-5.27,95.41,7.06,29.83c6.62,23.63-17.93,5-17.93,5-5.08,11.2-14.4,10-14.4,10L842,1007.5a147.91,147.91,0,0,1,4.28-48A229.32,229.32,0,0,0,851.38,932.72Z" transform="translate(-269.72 -8.86)"/><path class="cls-20" d="M851.38,932.72c5.67-42.19,15.7-67.25,21-77.07.2,1.34.74,5.68,1,7,1.07,6.17.13,14,.46,21.79l-5.27,95.41,7.06,29.83c6.62,23.63-17.93,5-17.93,5-5.08,11.2-14.4,10-14.4,10L842,1007.5a147.91,147.91,0,0,1,4.28-48A229.32,229.32,0,0,0,851.38,932.72Z" transform="translate(-269.72 -8.86)"/><path class="cls-23" d="M1087.57,984.19c-4.46,5.78-6.91,9.09-6.91,9.09l-18.52,27.27a23.07,23.07,0,0,1-13.34,9.42c-8.43,2.23-21.4,3.85-32.63-2.32a19,19,0,0,1-8.23-24l4.11-9.54s-38.13,24-41.44,10.78S1015,978.36,1015,978.36s39.37-6.62,47.33-25.29c0,0,3.44-4.4,8.24-11.15" transform="translate(-269.72 -8.86)"/><path class="cls-18" d="M1064.38,1029.89s-45.08-4.38-59.37-30.17l-6.54,21.3s47.33,32.68,58.13,28.44Z" transform="translate(-269.72 -8.86)"/><path class="cls-7" d="M1062.78,1029.69s-45.07-4.39-59.37-30.19l-6.52,21.23s47.33,32.68,58.11,28.44Z" transform="translate(-269.72 -8.86)"/><path class="cls-18" d="M859.15,1017.85s-15.78,5.6-18.89,2.49l7.1,13.07,13.42-10.29Z" transform="translate(-269.72 -8.86)"/><path class="cls-7" d="M859.15,1017.85s-15.78,5.6-18.89,2.49l7.1,13.07,13.42-10.29Z" transform="translate(-269.72 -8.86)"/><polygon class="cls-7" points="686.15 1096.25 686.15 1068.98 679.67 1096.9 686.15 1096.25"/><path class="cls-7" d="M1019.81,541.67c-3.81,5.35-10.41,8.06-16.92,8.91s-13.08.12-19.65,0C973,550.41,962,552,953.59,558.05c-5.37,3.85-9.41,9.26-13.6,14.4-12.72,15.54-30.38,30.09-50.42,28.46a13,13,0,0,1-9.36-3.95,14.93,14.93,0,0,1-2.39-8.52A194.85,194.85,0,0,1,879,550a81,81,0,0,1,5.81-22.9,78.05,78.05,0,0,1,13.95-19.92,85.45,85.45,0,0,1,24.34-19.51,43.71,43.71,0,0,1,30.46-3.93c12,3.27,21.34,12.66,32.78,17.49C999.44,506.77,1034.13,521.44,1019.81,541.67Z" transform="translate(-269.72 -8.86)"/><path class="cls-26" d="M1019.81,539.18c-3.81,5.35-10.41,8.06-16.92,8.91s-13.08.12-19.65,0c-10.29-.19-21.24,1.4-29.65,7.45-5.37,3.85-9.41,9.26-13.6,14.4-12.72,15.54-30.38,30.09-50.42,28.46a12.94,12.94,0,0,1-9.36-3.95,14.93,14.93,0,0,1-2.39-8.52,194.85,194.85,0,0,1,1.21-38.4,81,81,0,0,1,5.81-22.9,77.28,77.28,0,0,1,13.95-19.9,84.91,84.91,0,0,1,24.34-19.53,43.71,43.71,0,0,1,30.46-3.93c12,3.27,21.34,12.66,32.78,17.49C999.44,504.28,1034.13,518.91,1019.81,539.18Z" transform="translate(-269.72 -8.86)"/><polygon class="cls-23" points="601.53 974.32 601.37 981.83 599.68 974.65 601.53 974.32"/><polygon class="cls-20" points="601.53 974.32 601.37 981.83 599.68 974.65 601.53 974.32"/><g class="cls-27"><path d="M1030,706.77c-17.42,57.35,33.38,64.08,33.38,64.08l40.83,109.42c3.31,18.64-39,73-39,73-3,6.95-10.29,12.24-18.32,16.15a28.74,28.74,0,0,0,10.87-11.94s42.26-54.28,39-72.93l-40.83-109.43s-50.78-6.73-33.38-64.08c5.83-19.16,14.41-27.89,23.09-31C1039.59,684.79,1034.09,693.13,1030,706.77Z" transform="translate(-269.72 -8.86)"/></g><g class="cls-15"><path d="M1030.82,758.87a42.55,42.55,0,0,0,8.23,7.8,46.61,46.61,0,0,0,19.43,8.23v2.16a46.71,46.71,0,0,1-17.62-7.79A42.76,42.76,0,0,1,1030.82,758.87Z" transform="translate(-269.72 -8.86)"/><path d="M872.94,840.92v.72a264.6,264.6,0,0,0,3.54,29.16c6.17,35.48-1.91,105.92-3.07,115.65-.65-.43-1.31-.84-2-1.32h0c.31-2.34,9.79-79.16,3.21-116.74a260,260,0,0,1-3.44-29.06v-.72a31.75,31.75,0,0,0-5.54-15.74A32,32,0,0,1,872.94,840.92Z" transform="translate(-269.72 -8.86)"/><path d="M910.83,663.37,890.7,663a.09.09,0,0,0-.1,0l-25.73,58.15a160.8,160.8,0,0,0-10.28,31.34c-7.5,35.19-2.78,52.73,2.94,61.39-6.44-7.59-13.09-24.9-4.8-63.79a158.81,158.81,0,0,1,10.19-31.37l25.91-58.15h0l23.73.47m0,.15c-.19.24-.83,1-1.73,2.2Z" transform="translate(-269.72 -8.86)"/><path d="M1062.49,679.15l.35.11Z" transform="translate(-269.72 -8.86)"/><path d="M1055.1,678.82l-20.17-6.07m-.1,0c-1.19,1.32-30.35,33.65-52.27,59.82C963,756,928.63,754.14,920.35,753.32c-1.5-.17-3-.29-4.52-.39-22.5-1.44-31.34-4.12-34.31-9.8,4.22,4.12,13.5,6.17,32.43,7.33a45.35,45.35,0,0,1,4.53.37c8.23.82,42.62,2.65,62.21-20.73,21.92-26.19,51.1-58.52,52.29-59.84h0l29.34,8.89a18.29,18.29,0,0,0-7.22-.33Z" transform="translate(-269.72 -8.86)"/></g><path class="cls-7" d="M816.33,1567.65s-28.4,7.76-33.89-4.43" transform="translate(-269.72 -8.86)"/><path class="cls-7" d="M996.62,1561.82s-32.93,8.5-40.54-4.65" transform="translate(-269.72 -8.86)"/><path class="cls-28" d="M1471.4,1543.41c.48-4.12,1.16-8.24,1.9-12.35,3.25-17.78-1.71-34.74-4.12-41.73h0c-.76-2.17-1.32-3.38-1.32-3.38-13.1-3.58-64.78,36.51-83.61,51.61-6.52,0-13.6.29-21.34.8-3.37.25-6.75.33-10.12.27h-12.35c-17.47-14.07-71.55-56.4-85-52.74,0,0-.55,1.21-1.31,3.37h0c-2.51,7-7.47,24-4.22,41.74.74,4.11,1.42,8.23,1.89,12.34,1,9,4.8,26.39,18.52,38.09,2.94,21.41,14,49.54,22.43,66.62a48.39,48.39,0,0,0,2.88,9.4c-3.5,13.5-7.53,31.12-6.38,37,0,0-18.27-4.42-20.12,17.58v.68c-6.61,3-14.86,10-5.58,24.48a9.53,9.53,0,0,0,4.78,3.89c1.64.58,3.25.58,3.08-1.73l11.42,12.87s20.7,2.38,21-9.63l1.22.18c2.77.41,5.68.76,8.66,1.07l1.44,4.75s-15.54-.32-11.3,9.24c0,0,3.91,3.63,5.25,2.31,0,0-2.06,6.28,6,6.28,0,0,8.7,4.61,12.1,1.31s10.43-8.23,11.09-10.29c.19-.55.27-5.43.31-12.18h1.34c17.35.41,35.76-.14,52.51-1h1.36c0,7.31.11,12.7.29,13.27.68,2.06,7.74,6.94,11.11,10.29s12.08-1.31,12.08-1.31c8.07,0,6-6.28,6-6.28,1.36,1.32,5.27-2.3,5.27-2.3,4.24-9.57-11.32-9.24-11.32-9.24l1.85-6.18,8.59-.72,1.35-.12c-.82,13.07,20.93,10.56,20.93,10.56l11.44-12.87c-.18,2.31,1.42,2.31,3.07,1.73a9.41,9.41,0,0,0,4.63-3.93c14-21.91-11.87-26.56-11.87-26.56a12.91,12.91,0,0,0-2.45-.4,4.32,4.32,0,0,1,.1-1.13h0a45,45,0,0,0,.16-8.68c-1-4-7.34-10.29-15.41-11.22-5.27-.66-5.37-24.86-4.83-41.63a48.45,48.45,0,0,0,.82-9.55,50.43,50.43,0,0,0-2.06-15.29c10.29-17.45,18.52-35.74,19.45-41.15C1466.61,1569.73,1470.4,1552.44,1471.4,1543.41Z" transform="translate(-269.72 -8.86)"/><path class="cls-29" d="M1451.48,1710.19h0c-.82,11.4-3,29.7-3,29.7s-9.16,1.11-23.32,2.39l-9.61.82c-7.36.6-15.64,1.17-24.38,1.67-16.16.88-33.89,1.44-50.63,1-8.35-.18-16.46-.61-24-1.35-3.35-.33-6.6-.72-9.69-1.18-19.18-2.86-32.93-8.33-34.1-17.94a55.47,55.47,0,0,1-.43-12.35c1.79-21.61,19.38-17.24,19.38-17.24-1.13-6,3.13-24.51,6.59-37.93,2.18-8.46,4.11-14.88,4.11-14.88l123.72-8.23h.41a6.05,6.05,0,0,1,6.06,6c0,.11,0,.22,0,.32-.74,14.84-1.79,48.81,4.28,49.57,7.78,1,13.93,7.12,14.88,11A45.35,45.35,0,0,1,1451.48,1710.19Z" transform="translate(-269.72 -8.86)"/><path class="cls-29" d="M1346.41,1547.34s-46.65,56.15-69.12,40.6c-.54-.37-1-.74-1.55-1.13-15.1-11.45-19.07-29.88-20.12-39.25-.45-4.11-1.11-8.08-1.83-12.1-3.11-17.47,1.64-34.1,4.11-41h0c.74-2.06,1.26-3.31,1.26-3.31C1274.69,1486.86,1346.41,1547.34,1346.41,1547.34Z" transform="translate(-269.72 -8.86)"/><path class="cls-30" d="M1321.35,1552.52s-14.7,10.29-35.42,27.21a75.43,75.43,0,0,1-10.29,7.08c-15.1-11.45-19.08-29.88-20.12-39.25-.46-4.11-1.12-8.08-1.84-12.1-3.1-17.47,1.65-34.1,4.12-41h0C1286.86,1496.51,1321.35,1552.52,1321.35,1552.52Z" transform="translate(-269.72 -8.86)"/><path class="cls-31" d="M1321.35,1552.52s-14.7,10.29-35.42,27.21a75.43,75.43,0,0,1-10.29,7.08c-15.1-11.45-19.08-29.88-20.12-39.25-.46-4.11-1.12-8.08-1.84-12.1-3.1-17.47,1.65-34.1,4.12-41h0C1286.86,1496.51,1321.35,1552.52,1321.35,1552.52Z" transform="translate(-269.72 -8.86)"/><path class="cls-7" d="M1305.36,1547s-7.84,5.53-18.92,14.52a39,39,0,0,1-5.43,3.77c-8-6.17-10.29-16-10.74-20.93-.23-2.18-.58-4.32-1-6.48a45,45,0,0,1,2.29-21.85h0C1287,1517.09,1305.36,1547,1305.36,1547Z" transform="translate(-269.72 -8.86)"/><path class="cls-29" d="M1376.64,1547.34s46.65,56.15,69.12,40.6c.52-.37,1-.74,1.55-1.13,15.1-11.45,19.07-29.88,20.12-39.25.45-4.11,1.11-8.08,1.81-12.1,3.13-17.47-1.64-34.1-4.11-41h0c-.74-2.06-1.28-3.31-1.28-3.31C1448.36,1486.86,1376.64,1547.34,1376.64,1547.34Z" transform="translate(-269.72 -8.86)"/><path class="cls-30" d="M1401.68,1552.52s14.72,10.29,35.44,27.21a75.61,75.61,0,0,0,10.19,7.08c15.1-11.45,19.07-29.88,20.12-39.25.45-4.11,1.11-8.08,1.81-12.1,3.13-17.47-1.64-34.1-4.11-41h0C1436.21,1496.51,1401.68,1552.52,1401.68,1552.52Z" transform="translate(-269.72 -8.86)"/><path class="cls-31" d="M1401.68,1552.52s14.72,10.29,35.44,27.21a75.61,75.61,0,0,0,10.19,7.08c15.1-11.45,19.07-29.88,20.12-39.25.45-4.11,1.11-8.08,1.81-12.1,3.13-17.47-1.64-34.1-4.11-41h0C1436.21,1496.51,1401.68,1552.52,1401.68,1552.52Z" transform="translate(-269.72 -8.86)"/><path class="cls-7" d="M1417.8,1547s7.8,5.51,18.78,14.4a38.74,38.74,0,0,0,5.42,3.75c8-6.08,10.12-15.85,10.68-20.81.22-2.06.57-4.3,1-6.44a45,45,0,0,0-2.16-21.73h0C1436.09,1517.23,1417.8,1547,1417.8,1547Z" transform="translate(-269.72 -8.86)"/><path class="cls-7" d="M1426.05,1634.73c-5.89,9.3-12.14,17.7-17.86,22.76-18.52,16.47-98.49,9.92-103.68,9.08-1.09-.19-3.35-3.42-6.17-8.67,2.18-8.45,4.11-14.87,4.11-14.87Z" transform="translate(-269.72 -8.86)"/><path class="cls-29" d="M1362.75,1542.62c-3.25.23-6.5.31-9.78.25-16.68-.29-72.9.45-79.14,23.15-7.35,26.75,25.5,98.39,30.66,99.25s85.11,7.35,103.7-9.07,42.76-67.91,41.46-72.58C1449.65,1583.62,1472.7,1535,1362.75,1542.62Z" transform="translate(-269.72 -8.86)"/><path class="cls-7" d="M1361,1586s-41.16-6.34-60.46,34.16a49.4,49.4,0,0,0,3.64,49.78c6.42,9,15.85,15.77,29,10.29C1362.26,1668.23,1361,1586,1361,1586Z" transform="translate(-269.72 -8.86)"/><path class="cls-7" d="M1359.68,1583.41s-41.15-6.34-60.46,34.16a49.4,49.4,0,0,0,3.65,49.78c6.42,9,15.84,15.76,29,10.29C1361,1665.64,1359.68,1583.41,1359.68,1583.41Z" transform="translate(-269.72 -8.86)"/><path class="cls-30" d="M1359.68,1584.71s-41.15-6.34-60.46,34.16a49.4,49.4,0,0,0,3.65,49.78c6.42,9,15.84,15.76,29,10.29C1361,1666.94,1359.68,1584.71,1359.68,1584.71Z" transform="translate(-269.72 -8.86)"/><path class="cls-31" d="M1359.68,1584.71s-41.15-6.34-60.46,34.16a49.4,49.4,0,0,0,3.65,49.78c6.42,9,15.84,15.76,29,10.29C1361,1666.94,1359.68,1584.71,1359.68,1584.71Z" transform="translate(-269.72 -8.86)"/><path class="cls-32" d="M1315.3,1620.12s-5.62,5.19-3.46,6.48S1315.3,1620.12,1315.3,1620.12Z" transform="translate(-269.72 -8.86)"/><path class="cls-32" d="M1321.35,1626.75s-3.07,6.77-.89,7.51,3.48-4.86,3.48-4.86Z" transform="translate(-269.72 -8.86)"/><path class="cls-32" d="M1307.78,1637s-3,8,0,8S1307.78,1637,1307.78,1637Z" transform="translate(-269.72 -8.86)"/><path class="cls-33" d="M1304.06,1658.36s6,15.35,21.65,14.26" transform="translate(-269.72 -8.86)"/><path class="cls-33" d="M1318.11,1662.88s6.18,6,13,1.73" transform="translate(-269.72 -8.86)"/><path class="cls-7" d="M1366.25,1586s41.15-6.34,60.46,34.16a49.4,49.4,0,0,1-3.65,49.78c-6.39,9-15.84,15.77-29,10.29C1364.89,1668.23,1366.25,1586,1366.25,1586Z" transform="translate(-269.72 -8.86)"/><path class="cls-7" d="M1367.46,1583.41s41.16-6.34,60.46,34.16a49.37,49.37,0,0,1-3.64,49.78c-6.4,9-15.85,15.76-29,10.29C1366.25,1665.64,1367.46,1583.41,1367.46,1583.41Z" transform="translate(-269.72 -8.86)"/><path class="cls-30" d="M1367.46,1584.71s41.16-6.34,60.46,34.16a49.37,49.37,0,0,1-3.64,49.78c-6.4,9-15.85,15.76-29,10.29C1366.25,1666.94,1367.46,1584.71,1367.46,1584.71Z" transform="translate(-269.72 -8.86)"/><path class="cls-31" d="M1367.46,1584.71s41.16-6.34,60.46,34.16a49.37,49.37,0,0,1-3.64,49.78c-6.4,9-15.85,15.76-29,10.29C1366.25,1666.94,1367.46,1584.71,1367.46,1584.71Z" transform="translate(-269.72 -8.86)"/><path class="cls-32" d="M1411.85,1620.12s5.62,5.19,3.46,6.48S1411.85,1620.12,1411.85,1620.12Z" transform="translate(-269.72 -8.86)"/><path class="cls-32" d="M1405.8,1626.75s3.07,6.77.88,7.51-3.47-4.86-3.47-4.86Z" transform="translate(-269.72 -8.86)"/><path class="cls-32" d="M1419.38,1637s3,8,0,8S1419.38,1637,1419.38,1637Z" transform="translate(-269.72 -8.86)"/><path class="cls-33" d="M1423.09,1658.36s-6,15.35-21.65,14.26" transform="translate(-269.72 -8.86)"/><path class="cls-33" d="M1409.05,1662.88s-6.17,6-13,1.73" transform="translate(-269.72 -8.86)"/><path class="cls-32" d="M1344,1702c1.09-.2,21.61-9.07,42.77,0Z" transform="translate(-269.72 -8.86)"/><path class="cls-7" d="M1306.86,1743.33c-19.18-2.87-32.93-8.34-34.1-17.95a55.47,55.47,0,0,1-.43-12.35,27.71,27.71,0,0,1,7.32-2.67c3.48-1,7.78-.31,16.86,2.28s8.41,13.28,10.29,27.21A11.94,11.94,0,0,1,1306.86,1743.33Z" transform="translate(-269.72 -8.86)"/><path class="cls-29" d="M1278.36,1711.7s-24.94,4.56-11.44,26.09a9.18,9.18,0,0,0,4.61,3.81c1.58.55,3.1.55,2.94-1.71l11,12.63s22,2.6,20.08-11.33-1.29-24.7-10.29-27.21S1281.88,1710.73,1278.36,1711.7Z" transform="translate(-269.72 -8.86)"/><path class="cls-33" d="M1284.3,1726.18s5.29,12.08,12.64,1.94" transform="translate(-269.72 -8.86)"/><path class="cls-33" d="M1272.16,1731s2.74,11.44,13.11,2.92" transform="translate(-269.72 -8.86)"/><path class="cls-7" d="M1451.48,1710.19h0c-.82,11.4-3,29.7-3,29.7s-9.16,1.11-23.32,2.39a11.93,11.93,0,0,1,0-2.39c1.94-13.93,1.3-24.7,10.29-27.21C1443.87,1710.4,1448.17,1709.56,1451.48,1710.19Z" transform="translate(-269.72 -8.86)"/><path class="cls-29" d="M1453.75,1711.7s25,4.56,11.46,26.09a9.32,9.32,0,0,1-4.61,3.81c-1.58.55-3.13.55-3-1.71l-11,12.63s-22,2.6-20.09-11.33,1.3-24.7,10.29-27.21S1450.29,1710.73,1453.75,1711.7Z" transform="translate(-269.72 -8.86)"/><path class="cls-33" d="M1447.82,1726.18s-5.31,12.08-12.63,1.94" transform="translate(-269.72 -8.86)"/><path class="cls-33" d="M1460,1731s-2.76,11.44-13.13,2.92" transform="translate(-269.72 -8.86)"/><path class="cls-7" d="M1340.52,1745.79c-8.35-.18-16.46-.61-24-1.35l-7.47-25.15a16.56,16.56,0,0,1-.68-4.59,16,16,0,0,1,32-.1C1340.48,1724.39,1340.57,1736.8,1340.52,1745.79Z" transform="translate(-269.72 -8.86)"/><path class="cls-29" d="M1307.78,1719.29l8.81,29.67s-15-.33-10.88,9.08c0,0,3.76,3.56,5.06,2.26,0,0-2,6.18,5.82,6.18,0,0,8.4,4.54,11.65,1.29s10.06-8.11,10.72-10c.41-1.28.29-26.09.15-43.21a16,16,0,0,0-16-15.85h0a16,16,0,0,0-16,16A16.32,16.32,0,0,0,1307.78,1719.29Z" transform="translate(-269.72 -8.86)"/><path class="cls-33" d="M1319.68,1756.64s-6.55,6.17-3.09,9.82" transform="translate(-269.72 -8.86)"/><path class="cls-33" d="M1316.86,1752.71s-6,2.06-6,7.59" transform="translate(-269.72 -8.86)"/><path class="cls-7" d="M1423.27,1714.7a16.22,16.22,0,0,1-.66,4.59l-7,23.81c-7.37.6-15.64,1.17-24.39,1.67,0-8.89,0-20.73.14-30.17a16,16,0,1,1,32,.1h-.1Z" transform="translate(-269.72 -8.86)"/><path class="cls-29" d="M1423.87,1719.29l-8.81,29.67s15-.33,10.91,9.08c0,0-3.77,3.56-5.07,2.26,0,0,1.94,6.18-5.84,6.18,0,0-8.4,4.54-11.65,1.29s-10-8.11-10.7-10c-.41-1.28-.29-26.09-.14-43.21a16,16,0,0,1,16-15.85h0a16,16,0,0,1,16,16A16.18,16.18,0,0,1,1423.87,1719.29Z" transform="translate(-269.72 -8.86)"/><path class="cls-33" d="M1412,1756.64s6.55,6.17,3.09,9.82" transform="translate(-269.72 -8.86)"/><path class="cls-33" d="M1414.87,1752.71s6.05,2.06,6.05,7.59" transform="translate(-269.72 -8.86)"/><path class="cls-7" d="M1359.7,1578.22s-30.47-1-31.44,22.64,47.62,13.6,47.62,13.6,20.41-2.73,16.85-17.08S1381.74,1579.52,1359.7,1578.22Z" transform="translate(-269.72 -8.86)"/><path class="cls-7" d="M1359.7,1575.63s-30.47-1-31.44,22.64,47.62,13.6,47.62,13.6,20.41-2.74,16.85-17.08S1381.74,1576.93,1359.7,1575.63Z" transform="translate(-269.72 -8.86)"/><path class="cls-32" d="M1359.7,1576.93s-30.47-1-31.44,22.63,47.62,13.61,47.62,13.61,20.41-2.74,16.85-17.08S1381.74,1578.22,1359.7,1576.93Z" transform="translate(-269.72 -8.86)"/><path class="cls-7" d="M1291.71,1695.83s10.29,3.66,12.35,10.68" transform="translate(-269.72 -8.86)"/><path class="cls-7" d="M1436.79,1690.64s-7.3,3.07-6.79,15.87" transform="translate(-269.72 -8.86)"/><ellipse class="cls-30" cx="1292.04" cy="1744.33" rx="4.77" ry="7.91" transform="matrix(0.87, -0.5, 0.5, 0.87, -967.07, 866.92)"/><ellipse class="cls-30" cx="1440.85" cy="1742.26" rx="7.88" ry="4.75" transform="translate(-1058.14 2110.09) rotate(-60)"/><ellipse class="cls-31" cx="1292.04" cy="1744.33" rx="4.77" ry="7.91" transform="matrix(0.87, -0.5, 0.5, 0.87, -967.07, 866.92)"/><ellipse class="cls-31" cx="1440.85" cy="1742.26" rx="7.88" ry="4.75" transform="translate(-1058.14 2110.09) rotate(-60)"/><ellipse class="cls-2" cx="396.37" cy="1473.53" rx="55.42" ry="9.36"/><ellipse class="cls-2" cx="178.05" cy="1606.32" rx="55.42" ry="9.36"/><ellipse class="cls-30" cx="120.35" cy="1487.53" rx="82.75" ry="13.99"/><path class="cls-30" d="M355.85,1473.5a24,24,0,0,1-7.91-11.89c-1-4.74,1-10.4,5.52-12.12,5.06-1.94,10.47,1.56,14.57,5.1s8.81,7.59,14.18,6.85a21.59,21.59,0,0,1-6.67-20.21,8.2,8.2,0,0,1,1.85-4.11c2.8-3,7.9-1.71,11.28.66,10.68,7.53,13.68,22.06,13.72,35.14,1.1-4.73.19-9.63.21-14.4s1.36-10.29,5.43-12.8a16.57,16.57,0,0,1,8.23-2.06c4.82-.16,10.17.31,13.46,3.83,4.12,4.36,3,11.71-.53,16.46s-8.95,7.82-13.91,11.16a30.6,30.6,0,0,0-10,9.48,9.73,9.73,0,0,0-.74,1.69H374.51A83.24,83.24,0,0,1,355.85,1473.5Z" transform="translate(-269.72 -8.86)"/><ellipse class="cls-2" cx="2119.26" cy="1551.85" rx="55.42" ry="9.36"/><path class="cls-34" d="M2351.77,1517.19s31.61-1,41.16-7.76,48.6-14.88,51-4,47.52,54.1,11.81,54.39-82.91-5.56-92.42-11.36S2351.77,1517.19,2351.77,1517.19Z" transform="translate(-269.72 -8.86)"/><path class="cls-35" d="M2456.33,1556.06c-35.68.29-82.91-5.55-92.42-11.36-7.24-4.4-10.12-20.23-11.09-27.53h-1.05s2.06,25.49,11.5,31.28,56.74,11.64,92.42,11.36c10.29,0,13.87-3.75,13.66-9.18C2467.94,1554,2464,1556.06,2456.33,1556.06Z" transform="translate(-269.72 -8.86)"/></svg>