<svg xmlns="http://www.w3.org/2000/svg" viewBox="0 0 642.24 499.58"><defs><style>.cls-1{fill:#8cbf75;}.cls-2{fill:#fff;}</style></defs><g id="Layer_2" data-name="Layer 2"><circle class="cls-1" cx="235.95" cy="189.52" r="119.86"/><ellipse class="cls-1" cx="357.01" cy="137.86" rx="104.83" ry="98.81"/><circle class="cls-1" cx="441.35" cy="205.8" r="93.53"/><circle class="cls-1" cx="393.26" cy="358.28" r="94.81"/><circle class="cls-1" cx="193.52" cy="294.51" r="106.24"/><circle class="cls-1" cx="281.37" cy="386.52" r="90.3"/><circle class="cls-1" cx="447.82" cy="296.45" r="92.01"/><circle class="cls-1" cx="355.81" cy="262.69" r="98.85"/><circle class="cls-1" cx="21.18" cy="203.45" r="21.18"/><circle class="cls-1" cx="221.54" cy="21.18" r="21.18"/><circle class="cls-1" cx="564.85" cy="39.04" r="29.97"/><circle class="cls-1" cx="574.31" cy="131.31" r="9.46"/><circle class="cls-1" cx="619.54" cy="247.33" r="22.69"/><circle class="cls-1" cx="534.88" cy="431.41" r="23.2"/><circle class="cls-1" cx="151.41" cy="441.82" r="6.78"/><circle class="cls-1" cx="86.63" cy="105.61" r="9.08"/><circle class="cls-1" cx="464.59" cy="32.99" r="9.08"/><circle class="cls-1" cx="33.99" cy="418.62" r="23.2"/><circle class="cls-1" cx="389.61" cy="486.59" r="12.99"/><circle class="cls-1" cx="38.12" cy="302.36" r="12.93"/></g><g id="Layer_1" data-name="Layer 1"><path class="cls-2" d="M340,220.84a37.77,37.77,0,0,0-5.07,2.4,42.47,42.47,0,0,0-16,15.48,67.31,67.31,0,0,0-4.72,9.54,114.16,114.16,0,0,0-4.17,12c-1.36,4.72-2.35,8.63-4.88,19.26-3.27,13.75-5.17,20.49-7.76,27.8a116.2,116.2,0,0,1-6.47,15,91.13,91.13,0,0,0-10.22,33.94,68,68,0,0,0,2.91,27.4c.5,1.56,2,5.35,2.72,6.77a49.18,49.18,0,0,0,41,28.48c10.38.53,20.21-2.7,32.33-10.4,3.77-2.38,8.42-5.59,15.65-11,10.3-7.69,16.14-11.55,21.83-14.54,8.13-4.28,17.69-7.21,29.93-9,3.7-.56,7.12-1,15.13-1.85,9.31-1,12.9-1.34,17.26-2.13a86.29,86.29,0,0,0,8.57-2.1c.59-.18,1.23-.36,1.38-.39s1.89-.59,3.81-1.36a35.89,35.89,0,0,0,6.92-3.4A49,49,0,0,0,498,343.2a67.6,67.6,0,0,0,2.69-6.23,47.19,47.19,0,0,0-1.1-33.42,48.65,48.65,0,0,0-2.66-5.54c-5.88-11-15.27-20.54-27.78-28.17a109.94,109.94,0,0,0-19.95-9.42,118.13,118.13,0,0,1-19.35-8.94c-6.16-3.51-11-6.74-21-13.89-8.37-6-11.49-8.25-15-10.49-9.91-6.22-18.24-9.43-26.81-10.37S349.31,217.18,340,220.84Z" transform="translate(-37.67 0.69)"/><path class="cls-2" d="M304.61,162.2c-7.14-12.28-17.33-21.84-29-27.3a42.42,42.42,0,0,0-20-4.22,30.9,30.9,0,0,0-18.14,6.95,30.28,30.28,0,0,0-7.25,8.85,62.31,62.31,0,0,0-2.69,6.22c-2.82,8.72-2.77,18.86-.07,29.13a51.52,51.52,0,0,0,2.71,7.75,57.73,57.73,0,0,0,3.72,8.21c9.21,16.53,24.22,28.5,39.77,31.74a35.27,35.27,0,0,0,17.85-.68A38.29,38.29,0,0,0,296,227a30.1,30.1,0,0,0,9.49-7.49,41.35,41.35,0,0,0,2.82-4.18c5.91-10,6.85-23.81,2.77-37.73A71.06,71.06,0,0,0,304.61,162.2Z" transform="translate(-37.67 0.69)"/><path class="cls-2" d="M461.25,136.38a27,27,0,0,0-5.21,1.33c-5.58,2-10.33,5.55-14.79,10.4a48,48,0,0,0-8.51,12.7c-.69,1.48-1.32,2.81-1.89,4.37a62.49,62.49,0,0,0-2,34.91c3.41,14,11.79,24.85,22.58,29.5a29.61,29.61,0,0,0,20,1.27c.41-.11,1.82-.69,3.15-1.23a27.07,27.07,0,0,0,5.39-2.66c6.94-4.4,12.9-11.59,16.69-20A58,58,0,0,0,501,194.45a59.36,59.36,0,0,0-1.62-30.84,74.62,74.62,0,0,0-3.18-7.58c-4.51-8.44-10.51-14.3-17.87-17.49a27.73,27.73,0,0,0-9.26-2.39A28.05,28.05,0,0,0,461.25,136.38Z" transform="translate(-37.67 0.69)"/><path class="cls-2" d="M258.76,313.73a26,26,0,0,0,4.46-2.86c10.67-8.78,13.66-24.05,7.85-40.14a60.65,60.65,0,0,0-19-26.16c-12.34-9.94-27.66-14.29-40.1-11.33a31.4,31.4,0,0,0-9.06,3.68,28,28,0,0,0-11.56,14.17,35,35,0,0,0-2.28,11.8A47.08,47.08,0,0,0,190.34,274a40,40,0,0,0,2.41,7,41,41,0,0,0,3.42,7.06c7.29,12.6,19.38,22.82,32.44,27.19a40.73,40.73,0,0,0,24.65.86A40.55,40.55,0,0,0,258.76,313.73Z" transform="translate(-37.67 0.69)"/><path class="cls-2" d="M358.45,88a42.93,42.93,0,0,0-6.56,2.56c-6.9,3.55-12.57,9.33-16.76,17.31-.76,1.43-2.23,4.9-2.84,6.57-5,14-4.94,30.54.2,45.81.68,2,2.74,7.27,3.6,8.95,4.64,9,10.59,16,17.66,20.8,9.23,6.29,19.45,8.1,29.12,5a35.81,35.81,0,0,0,16.89-12.48c11.47-14.95,14.11-38.26,6.93-59.5-.6-1.8-2.58-6.79-3.31-8.22-4.6-9.07-10.53-16.09-17.41-20.91C377.16,87.73,367.84,85.72,358.45,88Z" transform="translate(-37.67 0.69)"/></g></svg>