<svg xmlns="http://www.w3.org/2000/svg" xmlns:xlink="http://www.w3.org/1999/xlink" viewBox="0 0 1918.76 1058.85"><defs><style>.cls-1{fill:#f2f2f2;}.cls-2,.cls-8{opacity:0.1;}.cls-14,.cls-15,.cls-2,.cls-41,.cls-8{isolation:isolate;}.cls-3{fill:#2f2e41;}.cls-14,.cls-4{fill:#8cbf75;}.cls-5{fill:#3f3d56;}.cls-6{opacity:0.2;}.cls-7,.cls-8{fill:#bbd9ad;}.cls-9{fill:#535461;}.cls-10{fill:#e0e0e0;}.cls-11{fill:#eee;}.cls-12{fill:#5e8c49;}.cls-13,.cls-15{fill:#fff;}.cls-14,.cls-19{opacity:0.7;}.cls-15{opacity:0.15;}.cls-16{fill:none;stroke:#535461;stroke-miterlimit:10;stroke-width:2px;}.cls-17{fill:#4db6ac;}.cls-18{fill:#5d291b;}.cls-20{fill:url(#linear-gradient);}.cls-21{fill:#fdb797;}.cls-22{fill:#4d8af0;}.cls-23{opacity:0.05;}.cls-24{fill:#f55f44;}.cls-25{fill:#333;}.cls-26{fill:#ffffa5;}.cls-27,.cls-41{opacity:0.3;}.cls-28{fill:#030b44;}.cls-29{fill:#ffb8b8;}.cls-30{fill:#575a89;}.cls-31{fill:#6c63ff;}.cls-32{fill:url(#linear-gradient-2);}.cls-33{fill:url(#linear-gradient-3);}.cls-34{fill:url(#linear-gradient-4);}.cls-35{fill:url(#linear-gradient-5);}.cls-36{fill:url(#linear-gradient-6);}.cls-37{fill:url(#linear-gradient-7);}.cls-38{fill:#ffd9cb;}.cls-39{fill:#212121;}.cls-40{fill:url(#linear-gradient-8);}.cls-42{fill:#bdbdbd;}.cls-43{fill:#ffcfbe;}.cls-44{fill:#e53935;}.cls-45{fill:#ffe0b2;}.cls-46{fill:#db7657;}.cls-47{fill:#f3ad55;}.cls-48{fill:#fbdca3;}.cls-49{fill:#383f4d;}</style><linearGradient id="linear-gradient" x1="667.01" y1="-243.79" x2="667.01" y2="-156.72" gradientTransform="matrix(1, 0, 0, -1, -229.57, 827.75)" gradientUnits="userSpaceOnUse"><stop offset="0" stop-color="gray" stop-opacity="0.25"/><stop offset="0.54" stop-color="gray" stop-opacity="0.12"/><stop offset="1" stop-color="gray" stop-opacity="0.1"/></linearGradient><linearGradient id="linear-gradient-2" x1="1679.36" y1="-41.34" x2="1679.36" y2="-13.06" gradientTransform="matrix(1, 0, 0, -1, -286.94, 981.16)" gradientUnits="userSpaceOnUse"><stop offset="0" stop-color="gray" stop-opacity="0.25"/><stop offset="0.54" stop-color="gray" stop-opacity="0.12"/><stop offset="1" stop-color="gray" stop-opacity="0.1"/></linearGradient><linearGradient id="linear-gradient-3" x1="1389.39" y1="15.61" x2="1393.82" y2="15.61" gradientTransform="matrix(1, 0, 0, -1, -3.44, 1062.64)" xlink:href="#linear-gradient-2"/><linearGradient id="linear-gradient-4" x1="1400.38" y1="15.61" x2="1404.81" y2="15.61" gradientTransform="matrix(1, 0, 0, -1, -3.44, 1062.64)" xlink:href="#linear-gradient-2"/><linearGradient id="linear-gradient-5" x1="1674.36" y1="-59.56" x2="1694.32" y2="-59.56" xlink:href="#linear-gradient-2"/><linearGradient id="linear-gradient-6" x1="1673.78" y1="-90.77" x2="1680.76" y2="-90.77" xlink:href="#linear-gradient-2"/><linearGradient id="linear-gradient-7" x1="1687.39" y1="-90.77" x2="1694.37" y2="-90.77" xlink:href="#linear-gradient-2"/><linearGradient id="linear-gradient-8" x1="1397.21" y1="85.82" x2="1397.21" y2="118.82" gradientTransform="matrix(1, 0, 0, -1, -3.44, 1062.64)" xlink:href="#linear-gradient-2"/></defs><g id="Layer_2" data-name="Layer 2"><polyline class="cls-1" points="1158.54 1051.09 1066.64 960.55 1043.85 938.09 975.84 871.07 891.52 961.08 807.57 1050.72"/><polygon class="cls-1" points="1611.09 1050.64 989.77 1050.64 1066.64 967.31 1208.67 800.72 1218.24 789.5 1346.71 638.8 1435.61 779.59 1437.94 783.28 1551.03 962.37 1611.09 1050.64"/><polyline class="cls-1" points="1918.77 1051.09 1765.3 870.01 1690.07 781.25 1617.35 872.42 1551.03 955.61 1475.17 1050.72"/><polygon class="cls-2" points="1043.85 938.09 1003.36 965.24 955.55 946.41 891.52 961.08 975.84 871.07 1043.85 938.09"/><polygon class="cls-2" points="1435.61 780.59 1422.05 804.43 1391.63 772.56 1358.31 804.43 1339.47 768.22 1309.04 804.43 1300.35 781.25 1280.08 804.43 1243.85 781.25 1218.24 790.5 1346.71 639.8 1435.61 780.59"/><polygon class="cls-2" points="1765.3 870.01 1727.73 915.98 1697.31 879.76 1650.95 917.43 1617.35 872.42 1690.07 781.25 1765.3 870.01"/><path class="cls-3" d="M1769.2,1072.21l-2-1c26.33-50.91,12.25-117-4.2-163.52a501,501,0,0,0-42.53-89.76l1.93-1.22a503.11,503.11,0,0,1,42.75,90.22C1781.72,953.8,1795.9,1020.57,1769.2,1072.21Z" transform="translate(-3.44 -19.36)"/><rect class="cls-3" x="1741.27" y="856.64" width="82.35" height="2.28" transform="matrix(0.18, -0.98, 0.98, 0.18, 614.81, 2437.65)"/><rect class="cls-3" x="1726.54" y="871.83" width="2.28" height="112.21" transform="translate(-172.68 1406.21) rotate(-42.94)"/><rect class="cls-3" x="1776.16" y="1002.66" width="66.18" height="2.28" transform="translate(-67.63 1862.63) rotate(-54.14)"/><circle class="cls-4" cx="1792.13" cy="764.83" r="11.41"/><circle class="cls-5" cx="1667.77" cy="852.67" r="11.41"/><circle class="cls-5" cx="1717.97" cy="864.08" r="11.41"/><circle class="cls-4" cx="1695.16" cy="908.58" r="11.41"/><circle class="cls-5" cx="1837.76" cy="937.1" r="11.41"/><circle class="cls-5" cx="1800.11" cy="949.65" r="11.41"/><circle class="cls-5" cx="1826.35" cy="986.15" r="11.41"/><circle class="cls-5" cx="1706.56" cy="778.52" r="11.41"/><path class="cls-3" d="M1485.12,1069.93l-2-1c26.34-50.91,12.26-117-4.19-163.52a501.36,501.36,0,0,0-42.53-89.76l1.93-1.22a503.79,503.79,0,0,1,42.75,90.22C1497.65,951.52,1511.83,1018.29,1485.12,1069.93Z" transform="translate(-3.44 -19.36)"/><rect class="cls-3" x="1457.2" y="854.36" width="82.35" height="2.28" transform="translate(384.04 2156.33) rotate(-79.64)"/><rect class="cls-3" x="1442.47" y="869.55" width="2.28" height="112.21" transform="translate(-247.23 1212.07) rotate(-42.94)"/><rect class="cls-3" x="1492.09" y="1000.38" width="66.18" height="2.28" transform="translate(-183.43 1631.46) rotate(-54.14)"/><circle class="cls-5" cx="1508.05" cy="762.54" r="11.41"/><circle class="cls-5" cx="1383.7" cy="850.39" r="11.41"/><circle class="cls-5" cx="1433.9" cy="861.8" r="11.41"/><circle class="cls-5" cx="1411.08" cy="906.29" r="11.41"/><circle class="cls-4" cx="1553.69" cy="934.82" r="11.41"/><circle class="cls-5" cx="1516.04" cy="947.36" r="11.41"/><circle class="cls-5" cx="1542.28" cy="983.87" r="11.41"/><circle class="cls-5" cx="1422.49" cy="776.24" r="11.41"/><path class="cls-3" d="M1008.5,1069.93l2-1c-26.33-50.91-12.25-117,4.2-163.52a501.36,501.36,0,0,1,42.53-89.76l-1.93-1.22a503.79,503.79,0,0,0-42.75,90.22C996,951.52,981.79,1018.29,1008.5,1069.93Z" transform="translate(-3.44 -19.36)"/><rect class="cls-3" x="994.11" y="814.32" width="2.28" height="82.35" transform="translate(-141 173.46) rotate(-10.35)"/><rect class="cls-3" x="993.91" y="924.51" width="112.21" height="2.28" transform="translate(-346.37 1044.39) rotate(-47.06)"/><rect class="cls-3" x="967.3" y="968.43" width="2.28" height="66.18" transform="matrix(0.81, -0.59, 0.59, 0.81, -406.58, 737.86)"/><circle class="cls-5" cx="978.69" cy="762.54" r="11.41"/><circle class="cls-5" cx="1103.05" cy="850.39" r="11.41"/><circle class="cls-5" cx="1052.85" cy="861.8" r="11.41"/><circle class="cls-5" cx="1075.67" cy="906.29" r="11.41"/><circle class="cls-5" cx="933.06" cy="934.82" r="11.41"/><circle class="cls-5" cx="970.71" cy="947.36" r="11.41"/><circle class="cls-4" cx="944.47" cy="983.87" r="11.41"/><circle class="cls-5" cx="1064.26" cy="776.24" r="11.41"/><path class="cls-1" d="M1630.66,771.28a51.83,51.83,0,0,0-85.28,18.41l95.21-4.42A52,52,0,0,0,1630.66,771.28Z" transform="translate(-3.44 -19.36)"/></g><g id="Layer_1" data-name="Layer 1"><g class="cls-6"><path class="cls-7" d="M456.77,846.71c0-24.46-7.54-46.68-19.83-63.22a59.31,59.31,0,1,0-106.88,0c-12.29,16.54-19.83,38.76-19.83,63.22s7.54,46.68,19.83,63.21a59.31,59.31,0,1,0,106.88,0C449.23,893.39,456.77,871.16,456.77,846.71Z" transform="translate(-3.44 -19.36)"/><path class="cls-8" d="M456.77,846.71c0-24.46-7.54-46.68-19.83-63.22a59.31,59.31,0,1,0-106.88,0c-12.29,16.54-19.83,38.76-19.83,63.22s7.54,46.68,19.83,63.21a59.31,59.31,0,1,0,106.88,0C449.23,893.39,456.77,871.16,456.77,846.71Z" transform="translate(-3.44 -19.36)"/><path class="cls-7" d="M460.26,846.71c0-24.46-7.54-46.68-19.83-63.22a59.31,59.31,0,1,0-106.89,0c-12.28,16.54-19.82,38.76-19.82,63.22s7.54,46.68,19.82,63.21a59.31,59.31,0,1,0,106.89,0C452.72,893.39,460.26,871.16,460.26,846.71Z" transform="translate(-3.44 -19.36)"/><polygon class="cls-7" points="390.53 1052.39 376.57 1052.39 383.55 822.11 390.53 1052.39"/><polygon class="cls-7" points="385.3 879.66 430.65 860.49 385.3 884.91 385.3 879.66"/><polygon class="cls-7" points="381.17 900.62 367.85 884.91 380.91 909.34 381.17 900.62"/></g><g class="cls-6"><path class="cls-7" d="M563.19,925.73c0-15.8-4.88-30.17-12.82-40.85a38.33,38.33,0,1,0-69.08,0c-7.94,10.68-12.82,25-12.82,40.85s4.88,30.17,12.82,40.86a38.33,38.33,0,1,0,69.08,0C558.31,955.9,563.19,941.54,563.19,925.73Z" transform="translate(-3.44 -19.36)"/><path class="cls-8" d="M563.19,925.73c0-15.8-4.88-30.17-12.82-40.85a38.33,38.33,0,1,0-69.08,0c-7.94,10.68-12.82,25-12.82,40.85s4.88,30.17,12.82,40.86a38.33,38.33,0,1,0,69.08,0C558.31,955.9,563.19,941.54,563.19,925.73Z" transform="translate(-3.44 -19.36)"/><path class="cls-7" d="M565.44,925.73c0-15.8-4.87-30.17-12.81-40.85a38.34,38.34,0,1,0-69.09,0c-7.94,10.68-12.81,25-12.81,40.85s4.87,30.17,12.81,40.86a38.34,38.34,0,1,0,69.09,0C560.57,955.9,565.44,941.54,565.44,925.73Z" transform="translate(-3.44 -19.36)"/><polygon class="cls-7" points="519.16 1051.82 510.14 1051.82 514.65 902.99 519.16 1051.82"/><polygon class="cls-7" points="515.78 940.19 545.09 927.8 515.78 943.58 515.78 940.19"/><polygon class="cls-7" points="513.11 953.73 504.5 943.58 512.94 959.37 513.11 953.73"/></g><rect class="cls-9" x="414.94" y="995.82" width="1.62" height="24.24"/><rect class="cls-9" x="413.32" y="1023.3" width="4.04" height="28.28"/><rect class="cls-9" x="498.98" y="1023.3" width="4.04" height="28.28"/><rect class="cls-2" x="413.32" y="1023.3" width="4.04" height="28.28"/><rect class="cls-2" x="498.98" y="1023.3" width="4.04" height="28.28"/><rect class="cls-9" x="500.59" y="995.82" width="1.62" height="24.24"/><rect class="cls-2" x="414.94" y="995.82" width="1.62" height="24.24"/><rect class="cls-2" x="500.59" y="995.82" width="1.62" height="24.24"/><rect class="cls-9" x="407.67" y="994.21" width="101.82" height="4.85"/><rect class="cls-9" x="407.67" y="1002.29" width="101.82" height="4.85"/><rect class="cls-9" x="407.67" y="1010.37" width="101.82" height="4.85"/><rect class="cls-9" x="407.67" y="1019.26" width="101.82" height="8.89"/><rect class="cls-10" x="283.63" y="702.9" width="36.36" height="70.3"/><polygon class="cls-11" points="357.57 810.78 357.57 1050.77 31.11 1050.77 31.11 810.78 58.58 793.89 84.44 777.99 194.74 710.17 357.57 810.78"/><polygon class="cls-2" points="316.36 1050.77 316.36 798.36 311.51 801.34 311.51 1050.77 316.36 1050.77"/><rect class="cls-12" x="157.98" y="938.85" width="72.73" height="111.51"/><circle class="cls-9" cx="219.79" cy="994.61" r="3.23"/><rect class="cls-2" x="283.63" y="703.71" width="36.36" height="4.04"/><rect class="cls-10" x="277.16" y="698.86" width="48.48" height="8.08"/><rect class="cls-2" x="31.11" y="867.34" width="326.46" height="6.46"/><rect class="cls-13" x="31.11" y="866.53" width="326.46" height="6.46"/><rect class="cls-2" x="307.47" y="698.86" width="8.89" height="74.34"/><rect class="cls-2" x="301" y="699.27" width="2.42" height="74.34"/><polygon class="cls-2" points="349.49 801.08 349.49 1050.77 323.63 1050.77 323.63 793.89 349.49 801.08"/><polygon class="cls-2" points="77.17 777.99 77.17 1050.77 51.31 1050.77 51.31 793.89 77.17 777.99"/><polygon class="cls-2" points="44.04 1050.77 44.04 798.36 39.19 801.34 39.19 1050.77 44.04 1050.77"/><polygon class="cls-2" points="194.74 683.51 0 824.92 12.93 845.93 194.74 722.29 376.56 845.93 389.49 824.92 194.74 683.51"/><polygon class="cls-12" points="194.74 681.89 0 823.3 12.93 844.31 194.74 720.68 376.56 844.31 389.49 823.3 194.74 681.89"/><rect class="cls-14" x="58.18" y="911.38" width="67.88" height="67.88"/><rect class="cls-2" x="55.35" y="977.24" width="72.73" height="8.08"/><rect class="cls-9" x="55.35" y="975.62" width="72.73" height="8.08"/><polygon class="cls-15" points="86.56 911.78 58.58 950.39 58.58 930.72 74.31 911.78 86.56 911.78"/><polygon class="cls-15" points="110.59 911.78 58.58 966.43 58.58 956.79 97.39 911.78 110.59 911.78"/><line class="cls-16" x1="58.18" y1="945.32" x2="126.06" y2="945.32"/><line class="cls-16" x1="58.58" y1="911.78" x2="126.46" y2="911.78"/><line class="cls-16" x1="125.65" y1="911.78" x2="125.65" y2="979.66"/><line class="cls-16" x1="58.58" y1="910.98" x2="58.58" y2="978.85"/><rect class="cls-14" x="262.62" y="911.38" width="67.88" height="67.88"/><rect class="cls-2" x="260.6" y="977.24" width="72.73" height="8.08"/><rect class="cls-9" x="260.6" y="975.62" width="72.73" height="8.08"/><polygon class="cls-15" points="302.12 911.78 330.09 950.39 330.09 930.72 314.37 911.78 302.12 911.78"/><polygon class="cls-15" points="278.09 911.78 330.09 966.43 330.09 956.79 291.28 911.78 278.09 911.78"/><line class="cls-16" x1="330.5" y1="945.32" x2="262.62" y2="945.32"/><line class="cls-16" x1="330.09" y1="911.78" x2="262.22" y2="911.78"/><line class="cls-16" x1="263.02" y1="911.78" x2="263.02" y2="979.66"/><line class="cls-16" x1="330.09" y1="910.98" x2="330.09" y2="978.85"/><rect class="cls-14" x="160" y="773.2" width="67.88" height="67.88"/><rect class="cls-2" x="157.98" y="839.06" width="72.73" height="8.08"/><rect class="cls-9" x="157.98" y="837.44" width="72.73" height="8.08"/><polygon class="cls-15" points="199.49 773.61 227.47 812.21 227.47 792.54 211.74 773.61 199.49 773.61"/><polygon class="cls-15" points="175.46 773.61 227.47 828.25 227.47 818.61 188.66 773.61 175.46 773.61"/><line class="cls-16" x1="227.87" y1="807.14" x2="160" y2="807.14"/><line class="cls-16" x1="227.47" y1="773.61" x2="159.59" y2="773.61"/><line class="cls-16" x1="193.93" y1="773.2" x2="193.93" y2="841.08"/><line class="cls-16" x1="160.4" y1="773.61" x2="160.4" y2="841.48"/><line class="cls-16" x1="227.47" y1="772.8" x2="227.47" y2="840.68"/><rect class="cls-2" x="881.19" y="865.73" width="21.01" height="185.05"/><rect class="cls-10" x="825.84" y="702.9" width="36.36" height="70.3"/><polygon class="cls-11" points="899.77 810.78 899.77 1050.77 573.32 1050.77 573.32 810.78 600.79 793.89 626.65 777.99 736.95 710.17 899.77 810.78"/><rect class="cls-12" x="700.18" y="938.85" width="72.73" height="111.51"/><circle class="cls-9" cx="762" cy="994.61" r="3.23"/><rect class="cls-2" x="825.84" y="703.71" width="36.36" height="4.04"/><rect class="cls-10" x="819.37" y="698.86" width="48.48" height="8.08"/><rect class="cls-2" x="573.32" y="867.34" width="326.46" height="6.46"/><rect class="cls-13" x="573.32" y="866.53" width="326.46" height="6.46"/><rect class="cls-2" x="849.67" y="698.86" width="8.89" height="74.34"/><rect class="cls-2" x="843.21" y="699.27" width="2.42" height="74.34"/><polygon class="cls-2" points="891.69 801.08 891.69 1050.77 865.84 1050.77 865.84 793.89 891.69 801.08"/><polygon class="cls-2" points="619.38 777.99 619.38 1050.77 593.52 1050.77 593.52 793.89 619.38 777.99"/><polygon class="cls-2" points="586.25 1050.77 586.25 798.36 581.4 801.34 581.4 1050.77 586.25 1050.77"/><polygon class="cls-2" points="736.95 683.51 542.21 824.92 555.14 845.93 736.95 722.29 918.76 845.93 931.69 824.92 736.95 683.51"/><polygon class="cls-12" points="736.95 681.89 542.21 823.3 555.14 844.31 736.95 720.68 918.76 844.31 931.69 823.3 736.95 681.89"/><rect class="cls-14" x="600.39" y="911.38" width="67.88" height="67.88"/><rect class="cls-2" x="597.56" y="977.24" width="72.73" height="8.08"/><rect class="cls-9" x="597.56" y="975.62" width="72.73" height="8.08"/><polygon class="cls-15" points="628.77 911.78 600.79 950.39 600.79 930.72 616.52 911.78 628.77 911.78"/><polygon class="cls-15" points="652.8 911.78 600.79 966.43 600.79 956.79 639.6 911.78 652.8 911.78"/><line class="cls-16" x1="600.39" y1="945.32" x2="668.27" y2="945.32"/><line class="cls-16" x1="600.79" y1="911.78" x2="668.67" y2="911.78"/><line class="cls-16" x1="667.86" y1="911.78" x2="667.86" y2="979.66"/><line class="cls-16" x1="600.79" y1="910.98" x2="600.79" y2="978.85"/><rect class="cls-14" x="804.83" y="911.38" width="67.88" height="67.88"/><rect class="cls-2" x="802.81" y="977.24" width="72.73" height="8.08"/><rect class="cls-9" x="802.81" y="975.62" width="72.73" height="8.08"/><polygon class="cls-15" points="844.33 911.78 872.3 950.39 872.3 930.72 856.58 911.78 844.33 911.78"/><polygon class="cls-15" points="820.29 911.78 872.3 966.43 872.3 956.79 833.49 911.78 820.29 911.78"/><line class="cls-16" x1="872.7" y1="945.32" x2="804.83" y2="945.32"/><line class="cls-16" x1="872.3" y1="911.78" x2="804.42" y2="911.78"/><line class="cls-16" x1="805.23" y1="911.78" x2="805.23" y2="979.66"/><line class="cls-16" x1="872.3" y1="910.98" x2="872.3" y2="978.85"/><rect class="cls-14" x="702.2" y="773.2" width="67.88" height="67.88"/><rect class="cls-2" x="700.18" y="839.06" width="72.73" height="8.08"/><rect class="cls-9" x="700.18" y="837.44" width="72.73" height="8.08"/><polygon class="cls-15" points="741.7 773.61 769.68 812.21 769.68 792.54 753.95 773.61 741.7 773.61"/><polygon class="cls-15" points="717.67 773.61 769.68 828.25 769.68 818.61 730.87 773.61 717.67 773.61"/><line class="cls-16" x1="770.08" y1="807.14" x2="702.2" y2="807.14"/><line class="cls-16" x1="769.68" y1="773.61" x2="701.8" y2="773.61"/><line class="cls-16" x1="736.14" y1="773.2" x2="736.14" y2="841.08"/><line class="cls-16" x1="702.61" y1="773.61" x2="702.61" y2="841.48"/><line class="cls-16" x1="769.68" y1="772.8" x2="769.68" y2="840.68"/><path class="cls-17" d="M386.05,965.89a49.21,49.21,0,0,0-9.18-29.28,27.47,27.47,0,1,0-49.51,0,51.25,51.25,0,0,0,0,58.56,27.48,27.48,0,1,0,49.51,0A49.21,49.21,0,0,0,386.05,965.89Z" transform="translate(-3.44 -19.36)"/><path class="cls-2" d="M386.05,965.89a49.21,49.21,0,0,0-9.18-29.28,27.47,27.47,0,1,0-49.51,0,51.25,51.25,0,0,0,0,58.56,27.48,27.48,0,1,0,49.51,0A49.21,49.21,0,0,0,386.05,965.89Z" transform="translate(-3.44 -19.36)"/><path class="cls-4" d="M386,965.89a49.21,49.21,0,0,0-9.18-29.28,27.47,27.47,0,1,0-49.51,0,51.25,51.25,0,0,0,0,58.56,27.48,27.48,0,1,0,49.51,0A49.21,49.21,0,0,0,386,965.89Z" transform="translate(-3.44 -19.36)"/><polygon class="cls-18" points="353.53 1050.77 347.06 1050.77 350.29 944.11 353.53 1050.77"/><polygon class="cls-18" points="351.1 970.76 372.11 961.88 351.1 973.2 351.1 970.76"/><polygon class="cls-18" points="349.19 980.47 343.02 973.2 349.07 984.51 349.19 980.47"/><path class="cls-17" d="M609.88,965.89a49.21,49.21,0,0,0-9.18-29.28,27.47,27.47,0,1,0-49.51,0,51.28,51.28,0,0,0,0,58.56,27.48,27.48,0,1,0,49.51,0A49.21,49.21,0,0,0,609.88,965.89Z" transform="translate(-3.44 -19.36)"/><path class="cls-2" d="M609.88,965.89a49.21,49.21,0,0,0-9.18-29.28,27.47,27.47,0,1,0-49.51,0,51.28,51.28,0,0,0,0,58.56,27.48,27.48,0,1,0,49.51,0A49.21,49.21,0,0,0,609.88,965.89Z" transform="translate(-3.44 -19.36)"/><path class="cls-4" d="M609.84,965.89a49.21,49.21,0,0,0-9.18-29.28,27.47,27.47,0,1,0-49.51,0,51.25,51.25,0,0,0,0,58.56,27.48,27.48,0,1,0,49.51,0A49.21,49.21,0,0,0,609.84,965.89Z" transform="translate(-3.44 -19.36)"/><polygon class="cls-18" points="577.36 1050.77 570.89 1050.77 574.13 944.11 577.36 1050.77"/><polygon class="cls-18" points="574.93 970.76 595.94 961.88 574.93 973.2 574.93 970.76"/><polygon class="cls-18" points="573.02 980.47 566.85 973.2 572.9 984.51 573.02 980.47"/><g class="cls-19"><path class="cls-20" d="M448.78,1035.39l-.66-.13,1.31-4.84c2.07-15.5-5.74-17.06-8.67-17.12-.34-.12-.68-.22-1-.31v-1.83a9.69,9.69,0,0,0,7.25-7.84h0c.46,0,.84-.71.84-1.59a2.15,2.15,0,0,0-.37-1.3,8.5,8.5,0,0,0,0-1,10.05,10.05,0,0,0-3.12-7.3,6.32,6.32,0,0,0-.71-1.93c-.72-1.26-1.92-2.58-1.43-4l-3.16.33,0-2.08c-1,.17-1.4,1.32-2,2.13-1.41,2-4.23,2.23-6.09,3.75-.64.52-2.07,2.1-1.8,3.13a10.09,10.09,0,0,0-1.92,5.93,8.5,8.5,0,0,0,0,1,2.15,2.15,0,0,0-.37,1.3c0,.88.38,1.59.85,1.59h0a9.72,9.72,0,0,0,7.26,7.84V1013c-.35.09-.69.19-1,.31-2.93.06-10.74,1.62-8.67,17.12l1.31,4.84-.31.06a3.61,3.61,0,0,0-2.88,4.2h0l5.18,27.73a1.09,1.09,0,0,0,1.27.87l.91-.17v.54a3,3,0,0,0-1.68,2.71v.35h6.11v-.35a3,3,0,0,0-1.47-2.59v-1.21l.83-.16a1.09,1.09,0,0,0,.87-1.27h0l-4.86-26.06h13.48L439.29,1066a1.09,1.09,0,0,0,.87,1.27h0l.84.16v1.21a3,3,0,0,0-1.48,2.59v.35h6.11v-.35a3,3,0,0,0-1.68-2.71V1068l.91.17a1.09,1.09,0,0,0,1.27-.87l5.24-28.08a3.24,3.24,0,0,0-2.59-3.78Z" transform="translate(-3.44 -19.36)"/></g><rect class="cls-21" x="427.69" y="1045.06" width="2.84" height="3.86"/><rect class="cls-21" x="437.43" y="1045.06" width="2.84" height="3.86"/><rect class="cls-22" x="424.64" y="1013.41" width="18.67" height="6.7"/><g class="cls-23"><rect x="424.64" y="1013.41" width="18.67" height="6.7"/></g><path class="cls-2" d="M428.08,1034a73.69,73.69,0,0,0,9.33,1.62,73.69,73.69,0,0,0,9.33-1.62v-1H428.08Z" transform="translate(-3.44 -19.36)"/><path class="cls-24" d="M446.74,1033.78a72,72,0,0,1-9.33,1.63,72,72,0,0,1-9.33-1.63v-11.16a9.33,9.33,0,0,1,9.33-9.33h0a9.33,9.33,0,0,1,9.33,9.33h0Z" transform="translate(-3.44 -19.36)"/><path class="cls-21" d="M435.18,1008.62h4.46v5.12a2.19,2.19,0,0,1-2.19,2.19h-.08a2.19,2.19,0,0,1-2.19-2.19v-5.12Z" transform="translate(-3.44 -19.36)"/><path class="cls-22" d="M434.29,1065.85l-3.58.66a1.52,1.52,0,0,1-1.78-1.22l-4.6-24.65a5.05,5.05,0,0,1,4-5.89l.13,0a1.54,1.54,0,0,1,1.78,1.22h0l5.24,28.11A1.53,1.53,0,0,1,434.29,1065.85Z" transform="translate(-3.44 -19.36)"/><path class="cls-22" d="M440.65,1065.87l3.33.62a1.64,1.64,0,0,0,1.93-1.32h0l4.61-24.66a4.92,4.92,0,0,0-3.94-5.73l-.12,0a1.66,1.66,0,0,0-1.93,1.33h0l-5.2,27.86A1.66,1.66,0,0,0,440.65,1065.87Z" transform="translate(-3.44 -19.36)"/><path class="cls-2" d="M435.18,1012a9.1,9.1,0,0,0,4.46,0v-3.17h-4.46Z" transform="translate(-3.44 -19.36)"/><circle class="cls-25" cx="433.98" cy="981.15" r="9.74"/><circle class="cls-21" cx="433.98" cy="983.38" r="9.33"/><path class="cls-25" d="M431.25,991.79c1.79-1.47,4.51-1.73,5.86-3.61.57-.79,1-1.88,1.91-2l0,2,3-.31c-.47,1.32.68,2.59,1.37,3.8a6.28,6.28,0,0,1,.81,3c-1,.64-2.36-.05-3.54-.42a12.84,12.84,0,0,0-3.55-.43,7.5,7.5,0,0,0-1.83.1,9.14,9.14,0,0,0-1.51.56c-.81.33-3.36,1.61-4.11.79S430.56,992.35,431.25,991.79Z" transform="translate(-3.44 -19.36)"/><path class="cls-2" d="M431.76,998.06a4.52,4.52,0,0,0,1.65.5,14.6,14.6,0,0,0,7.08-.8,3.48,3.48,0,0,0,2.23,1.89,10.44,10.44,0,0,0,3,.33,1.12,1.12,0,0,0,.65-.12c.45-.31.23-1,0-1.47L445,996a7.15,7.15,0,0,0-1.38-1.94,5.72,5.72,0,0,0-2.71-1.16,15.35,15.35,0,0,0-7,.23C431.55,993.82,428.42,996,431.76,998.06Z" transform="translate(-3.44 -19.36)"/><path class="cls-25" d="M431.76,997.86a4.32,4.32,0,0,0,1.65.49,14.47,14.47,0,0,0,7.08-.79,3.46,3.46,0,0,0,2.23,1.88,10.45,10.45,0,0,0,3,.34,1.12,1.12,0,0,0,.65-.13c.45-.3.23-1,0-1.47l-1.3-2.35a7,7,0,0,0-1.38-1.94,5.63,5.63,0,0,0-2.71-1.16,15.35,15.35,0,0,0-7,.23C431.55,993.62,428.42,995.84,431.76,997.86Z" transform="translate(-3.44 -19.36)"/><ellipse class="cls-21" cx="443.21" cy="983.38" rx="0.81" ry="1.52"/><ellipse class="cls-21" cx="424.74" cy="983.38" rx="0.81" ry="1.52"/><path class="cls-24" d="M435.22,1013.91s-11.81-1.84-9.37,16.42l1.42,5.24,4.05-.16s-2.63-6.09-1-10.15S435.22,1013.91,435.22,1013.91Z" transform="translate(-3.44 -19.36)"/><path class="cls-24" d="M439.61,1013.91s11.8-1.84,9.37,16.42l-1.42,5.24-4.06-.16s2.64-6.09,1-10.15S439.61,1013.91,439.61,1013.91Z" transform="translate(-3.44 -19.36)"/><circle class="cls-21" cx="426.06" cy="1016.86" r="2.23"/><circle class="cls-21" cx="442.29" cy="1016.86" r="2.23"/><path class="cls-25" d="M432.39,1066.65h.1a2.89,2.89,0,0,1,2.89,2.89h0v.36H429.5v-.36A2.89,2.89,0,0,1,432.39,1066.65Z" transform="translate(-3.44 -19.36)"/><path class="cls-25" d="M442.33,1066.65h.11a2.88,2.88,0,0,1,2.88,2.89h0v.36h-5.88v-.36A2.89,2.89,0,0,1,442.33,1066.65Z" transform="translate(-3.44 -19.36)"/><path class="cls-2" d="M430.11,1023.64s-.81,4.26.61,6.08" transform="translate(-3.44 -19.36)"/><path class="cls-2" d="M444.72,1023.64s.81,4.26-.61,6.08" transform="translate(-3.44 -19.36)"/><circle class="cls-24" cx="590.29" cy="953" r="4.04"/><path class="cls-17" d="M94.29,1050.24c0-.37,0-.74,0-1.12a14.53,14.53,0,0,0-21.92-12.52,14.52,14.52,0,0,0-24.53-1.74,14.54,14.54,0,0,0-14,23.6,14.52,14.52,0,0,0,19.62,18.42,14.47,14.47,0,0,0,15.76-2.39,14.47,14.47,0,0,0,14.55,2.88,14.54,14.54,0,0,0,10.45-27.13Z" transform="translate(-3.44 -19.36)"/><path class="cls-2" d="M94.29,1050.24c0-.37,0-.74,0-1.12a14.53,14.53,0,0,0-21.92-12.52,14.52,14.52,0,0,0-24.53-1.74,14.54,14.54,0,0,0-14,23.6,14.52,14.52,0,0,0,19.62,18.42,14.47,14.47,0,0,0,15.76-2.39,14.47,14.47,0,0,0,14.55,2.88,14.54,14.54,0,0,0,10.45-27.13Z" transform="translate(-3.44 -19.36)"/><path class="cls-4" d="M94.24,1050.24c0-.37.06-.74.06-1.12a14.53,14.53,0,0,0-21.92-12.52,14.52,14.52,0,0,0-24.53-1.74,14.54,14.54,0,0,0-14,23.6,14.52,14.52,0,0,0,19.63,18.42,14.47,14.47,0,0,0,15.76-2.39,14.45,14.45,0,0,0,14.54,2.88,14.54,14.54,0,0,0,10.45-27.13Z" transform="translate(-3.44 -19.36)"/><circle class="cls-26" cx="1535.97" cy="244.06" r="40.25"/><g class="cls-27"><rect class="cls-10" x="1642.61" y="284.29" width="134.71" height="26.29" rx="13.14"/><rect class="cls-10" x="1609.75" y="310.58" width="134.71" height="26.29" rx="13.14"/><rect class="cls-10" x="1642.61" y="336.86" width="134.71" height="26.29" rx="13.14"/></g><g class="cls-27"><rect class="cls-10" x="222.15" y="325.41" width="134.71" height="26.29" rx="13.14"/><rect class="cls-10" x="189.3" y="351.69" width="134.71" height="26.29" rx="13.14"/><rect class="cls-10" x="222.15" y="377.98" width="134.71" height="26.29" rx="13.14"/></g><g class="cls-27"><path class="cls-28" d="M127.55,637.52H156.3S145.47,656.69,127.55,637.52Z" transform="translate(-3.44 -19.36)"/><path class="cls-28" d="M129.29,645.67,148.13,624S155.5,644.71,129.29,645.67Z" transform="translate(-3.44 -19.36)"/></g><g class="cls-27"><path class="cls-28" d="M428.57,335.8h28.75S446.49,355,428.57,335.8Z" transform="translate(-3.44 -19.36)"/><path class="cls-28" d="M430.31,344l18.84-21.71S456.53,343,430.31,344Z" transform="translate(-3.44 -19.36)"/></g><g class="cls-27"><path class="cls-28" d="M1816.2,375H1847S1835.42,395.53,1816.2,375Z" transform="translate(-3.44 -19.36)"/><path class="cls-28" d="M1818.06,383.72l20.22-23.29S1846.19,382.68,1818.06,383.72Z" transform="translate(-3.44 -19.36)"/></g><path class="cls-3" d="M286.35,1042.24l-2,3.18s-.09.81.56.32a15.47,15.47,0,0,0,1.91-3.33Z" transform="translate(-3.44 -19.36)"/><path class="cls-3" d="M303.08,1011.76l4.91-8.18a3.94,3.94,0,0,1,3-1.94,2.33,2.33,0,0,1,2.57,1.64,5.46,5.46,0,0,1-1.18,5.47s-1,.28-1-.67l1.17-2s1-2.76-1.75-3-6.58,9.13-6.58,9.13Z" transform="translate(-3.44 -19.36)"/><path class="cls-5" d="M306.07,1013l-3.17,2.73c0,1.17-1,3.54-2.57,6.41l-.36.67c-.91,1.67-2,3.48-3.08,5.31-.12.21-.24.41-.37.61-1.24,2-2.53,4.07-3.73,5.93-.12.2-.25.39-.37.58-1.39,2.14-2.64,4-3.55,5.36l-.37.56-1.08,1.59a1.41,1.41,0,0,1-.8.21.63.63,0,0,1-.5-.33,2.61,2.61,0,0,1-.19-1.35,20.37,20.37,0,0,1,1.83-5.31c.11-.25.23-.49.35-.74,1-2,2.15-4.09,3.42-6.19l.37-.6c1.24-2,2.53-4,3.75-5.8.13-.19.26-.37.38-.56,1.2-1.76,2.3-3.32,3.19-4.55l.38-.52c1-1.4,1.64-2.23,1.64-2.23l.72-4.26,1.38.83,1.06.64Z" transform="translate(-3.44 -19.36)"/><path class="cls-12" d="M288.11,1035.21l.76,5.37-.37.56-.74-5.19C287.87,1035.7,288,1035.46,288.11,1035.21Z" transform="translate(-3.44 -19.36)"/><path class="cls-12" d="M291.9,1028.42l.89,6.22-.37.58-.89-6.2Z" transform="translate(-3.44 -19.36)"/><path class="cls-12" d="M296,1022.06l.86,6c-.12.21-.24.41-.37.61l-.87-6.09C295.78,1022.43,295.91,1022.25,296,1022.06Z" transform="translate(-3.44 -19.36)"/><path class="cls-12" d="M299.6,1017l.73,5.13-.36.67-.75-5.28Z" transform="translate(-3.44 -19.36)"/><circle class="cls-3" cx="322.21" cy="950.35" r="5.82"/><path class="cls-29" d="M322,973.63s.5,5.76,0,7.26,6.5-.75,6.5-.75-2.75-6.51-2.25-7.13S322,973.63,322,973.63Z" transform="translate(-3.44 -19.36)"/><path class="cls-29" d="M321.81,1015.76l-.38,18.4a5.69,5.69,0,0,0,.88,3.5c1.13,1.88,6.13,16,6.13,16l4.13-2.26-.37-5.63s-.75-7.76-3.26-10.64l3.63-17.65Z" transform="translate(-3.44 -19.36)"/><path class="cls-2" d="M321.81,1015.76l-.38,18.4a5.69,5.69,0,0,0,.88,3.5c1.13,1.88,6.13,16,6.13,16l4.13-2.26-.37-5.63s-.75-7.76-3.26-10.64l3.63-17.65Z" transform="translate(-3.44 -19.36)"/><path class="cls-3" d="M333.07,1048.8s-10.39,2.13-8.63,5.51,5,10.39,5,10.39.88,4.38-.75,5.26-5,6.13-1.75,5.88,6.38-3.88,6.38-3.88l2.76-3.5.5.87,5-4.13s1.87-4-5-6Z" transform="translate(-3.44 -19.36)"/><path class="cls-2" d="M333.07,1048.8s-10.39,2.13-8.63,5.51,5,10.39,5,10.39.88,4.38-.75,5.26-5,6.13-1.75,5.88,6.38-3.88,6.38-3.88l2.76-3.5.5.87,5-4.13s1.87-4-5-6Z" transform="translate(-3.44 -19.36)"/><path class="cls-29" d="M319.68,1016.26l-.38,18.4a5.76,5.76,0,0,0,.88,3.5c1.13,1.88,6.13,16,6.13,16l4.14-2.26-.38-5.63s-.75-7.76-3.26-10.64l3.64-17.65Z" transform="translate(-3.44 -19.36)"/><path class="cls-3" d="M331,1049.3s-10.39,2.13-8.64,5.51,5,10.39,5,10.39.87,4.38-.76,5.26-5,6.13-1.75,5.88,6.39-3.88,6.39-3.88L334,1069l.5.87,5-4.13s1.88-4-5-6Z" transform="translate(-3.44 -19.36)"/><circle class="cls-29" cx="320.31" cy="952.64" r="4.76"/><path class="cls-30" d="M323.18,979.2s5.26-2.88,7.64-2.88,5-1.12,5.26.25,2.75,5,.25,4.76-4.51.13-5.76,0S323.18,979.2,323.18,979.2Z" transform="translate(-3.44 -19.36)"/><path class="cls-31" d="M320.18,1012s-2.25,5.63-.75,5.88a82.09,82.09,0,0,0,10.39.63C330.19,1018.26,331.45,1011.75,320.18,1012Z" transform="translate(-3.44 -19.36)"/><path class="cls-30" d="M335.58,1014.5c-2.63,2.51-1.13,3.63-2.13,5.51s-8.39.38-11.39-3.63-3.76-2.5-7-3-6.14-2.88-3.38-4.26a8,8,0,0,0,3.26-3.58,10.93,10.93,0,0,0,1.13-3.87,9.13,9.13,0,0,0-.14-2.81c-.5-2.44.35-7.24,1.73-11.52a24.21,24.21,0,0,1,3.44-7.26,2.62,2.62,0,0,1,.22-.25c3-3.26,9.76-.88,9.76-.88s5,4.13,3.26,9.39a18,18,0,0,0,.5,13C336.2,1004.49,338.21,1012,335.58,1014.5Z" transform="translate(-3.44 -19.36)"/><path class="cls-29" d="M316.05,1004.24l-1.38.87s-5.63-1.62-5.51,0,5.89,2.13,5.89,2.13l2-1.5Z" transform="translate(-3.44 -19.36)"/><path class="cls-2" d="M322.81,980.7s-3.63-1.46-3.57,4.28a63.19,63.19,0,0,0,1.82,12.62l-5.13,7.41,1.62,2.48L327.94,999V987.21S327.44,981.2,322.81,980.7Z" transform="translate(-3.44 -19.36)"/><path class="cls-2" d="M326.19,986.59v11.77l-9.58,7.82-.62-1.38c.58-1.16-.06-1.76.07-3.13L319.3,997a71.38,71.38,0,0,1-1.65-9.64,24,24,0,0,1,3.44-7.26C325.69,980.61,326.19,986.59,326.19,986.59Z" transform="translate(-3.44 -19.36)"/><path class="cls-30" d="M322.31,980.08s-3.63-1.46-3.57,4.27A63.39,63.39,0,0,0,320.56,997l-5.13,7.41,1.62,2.48,10.39-8.51V986.59S326.94,980.58,322.31,980.08Z" transform="translate(-3.44 -19.36)"/><circle class="cls-3" cx="328.51" cy="942.69" r="5.82"/><path class="cls-3" d="M337,966.87a5.81,5.81,0,0,1-8.12-1.31,6,6,0,0,1-.86-1.75,5.82,5.82,0,1,0,11.55-1.45,5.69,5.69,0,0,0-.2-.93A5.8,5.8,0,0,1,337,966.87Z" transform="translate(-3.44 -19.36)"/><circle class="cls-3" cx="323.76" cy="951.32" r="4.27"/><ellipse class="cls-3" cx="320.17" cy="949.72" rx="3.78" ry="2.96"/><ellipse class="cls-29" cx="319.16" cy="952.75" rx="0.72" ry="1.27"/><path class="cls-32" d="M1415.81,1012.88a1.6,1.6,0,0,0,0-.21.17.17,0,0,1,0-.07.61.61,0,0,0,0-.15v-.32a.76.76,0,0,0,0-.14.25.25,0,0,1,0-.08,1.1,1.1,0,0,0,0-.16v0l-3.56-16.06a14.73,14.73,0,0,0-2.31.32,13.59,13.59,0,0,0-2.15.7l.9,4-3.21-4.82a2.27,2.27,0,0,0-1.63-1,14.52,14.52,0,0,1-2.35-.44,6,6,0,0,0-1.68-.24h-5.43a6.05,6.05,0,0,0-1.69.24,14.52,14.52,0,0,1-2.35.44,2.27,2.27,0,0,0-1.63,1l-8.24,12.38-8-10.51a13.25,13.25,0,0,0-1.9,1.25c-1,.79,0,0-1.71,1.61l9.86,13a2.28,2.28,0,0,0,1.6.88h.39l.19,0h0a2.25,2.25,0,0,0,1.54-1l5.57-8.15.84,13.43a3.79,3.79,0,0,0,3.76,3.68h8.84a3.65,3.65,0,0,0,3.6-3.68l.69-13.43,5.88,8.15,0,0,0,.07.1.12,0,0a2.44,2.44,0,0,0,.87.62h0l.17.06.09,0,.12,0,.12,0h.61l.19,0h0l.21-.06h0a2,2,0,0,0,.54-.27,2.31,2.31,0,0,0,.93-1.3Z" transform="translate(-3.44 -19.36)"/><rect class="cls-33" x="1385.96" y="1044.27" width="4.43" height="5.51"/><rect class="cls-34" x="1396.95" y="1044.27" width="4.43" height="5.51"/><path class="cls-35" d="M1400.9,1015.94h-7.25c-4.66,0-6.23,3.77-6.23,8.22l1.41,41.33h6.36V1033a2.09,2.09,0,0,1,4.17,0v32.54h6.36l1.66-41.33C1407.38,1019.71,1405.55,1015.94,1400.9,1015.94Z" transform="translate(-3.44 -19.36)"/><path class="cls-36" d="M1393.82,1069.15v5.56h-6.29a.66.66,0,0,1-.48-1.14c1.26-1.16,2.87-3,2.34-4.42" transform="translate(-3.44 -19.36)"/><path class="cls-37" d="M1400.45,1069.15v5.56h6.29a.65.65,0,0,0,.69-.63.63.63,0,0,0-.21-.51c-1.26-1.16-2.87-3-2.34-4.42" transform="translate(-3.44 -19.36)"/><rect class="cls-38" x="1386.27" y="1043.77" width="4.19" height="5.46"/><rect class="cls-38" x="1396.67" y="1043.77" width="4.19" height="5.46"/><path class="cls-39" d="M1400.59,1015.94h-6.86c-4.41,0-5.89,3.73-5.89,8.14l1.33,40.89h6v-32.14a2,2,0,0,1,1.73-2,2,2,0,0,1,2.2,1.72,1.85,1.85,0,0,1,0,.23V1065h6l1.57-40.89C1406.72,1019.67,1405,1015.94,1400.59,1015.94Z" transform="translate(-3.44 -19.36)"/><path class="cls-39" d="M1393.89,1068.59v5.5h-6a.65.65,0,0,1-.65-.65.67.67,0,0,1,.2-.48c1.2-1.15,2.72-3,2.22-4.37" transform="translate(-3.44 -19.36)"/><path class="cls-39" d="M1400.17,1068.59v5.5h5.95a.66.66,0,0,0,.66-.65.68.68,0,0,0-.21-.48c-1.19-1.15-2.71-3-2.21-4.37" transform="translate(-3.44 -19.36)"/><ellipse class="cls-40" cx="1393.77" cy="960.32" rx="15.66" ry="16.5"/><ellipse class="cls-31" cx="1393.77" cy="960.32" rx="14.88" ry="15.68"/><ellipse class="cls-31" cx="1393.55" cy="961.48" rx="12.27" ry="12.56"/><ellipse class="cls-41" cx="1393.71" cy="961" rx="12.27" ry="12.56"/><rect class="cls-42" x="1404.78" y="989.54" width="8.82" height="4.36" rx="0.71" transform="translate(65.72 2055.71) rotate(-74.09)"/><rect class="cls-43" x="1370.08" y="993.1" width="0.91" height="3.91" rx="0.32" transform="translate(-305.66 710.43) rotate(-26.97)"/><rect class="cls-43" x="1368.49" y="993.84" width="0.91" height="3.85" rx="0.32" transform="translate(-181.32 1664.06) rotate(-60)"/><path class="cls-43" d="M1369.21,996.72c-.35.2-2.22,1.42.18,3.65a.86.86,0,0,0,1.09.06l1.7-1.26a.86.86,0,0,0,.3-1l-.48-1.41a1.35,1.35,0,0,0-1.71-.84,1.58,1.58,0,0,0-.42.24l-.53.44A.6.6,0,0,1,1369.21,996.72Z" transform="translate(-3.44 -19.36)"/><rect class="cls-43" x="1407.56" y="971.94" width="0.91" height="2.51" rx="0.32"/><path class="cls-43" d="M1409.41,993.26s-3.15,0-1.14,4l3.35-.69.36-3.35a.5.5,0,0,0-.42-.54.62.62,0,0,0-.19,0Z" transform="translate(-3.44 -19.36)"/><rect class="cls-43" x="1409.45" y="989.78" width="0.91" height="4.03" rx="0.32" transform="translate(-291.48 675.04) rotate(-25.19)"/><rect class="cls-43" x="1408.74" y="990.3" width="0.91" height="3.48" rx="0.32" transform="translate(-291.65 674.77) rotate(-25.19)"/><rect class="cls-43" x="1408.09" y="991.12" width="0.91" height="3.3" rx="0.32" transform="translate(-292.03 674.56) rotate(-25.19)"/><rect class="cls-43" x="1407.5" y="992.18" width="0.91" height="2.9" rx="0.32" transform="translate(-292.45 674.39) rotate(-25.19)"/><path class="cls-31" d="M1415.5,1012.52a1.46,1.46,0,0,0,0-.2.15.15,0,0,1,0-.07.59.59,0,0,0,0-.14v-.32a.62.62,0,0,0,0-.13s0,0,0-.08,0-.1,0-.15v0L1412,995.84a13.59,13.59,0,0,0-2.28.31,13,13,0,0,0-2.13.68l.88,3.91-3.17-4.67a2.2,2.2,0,0,0-1.61-1,15.64,15.64,0,0,1-2.33-.43,5.85,5.85,0,0,0-1.66-.24h-5.37a5.85,5.85,0,0,0-1.66.24,15.64,15.64,0,0,1-2.33.43,2.22,2.22,0,0,0-1.61,1l-8.14,12-7.87-10.19a13.63,13.63,0,0,0-1.88,1.21c-1,.76,0,0-1.69,1.56l9.75,12.64a2.23,2.23,0,0,0,1.58.86h.39l.18,0h0a2.22,2.22,0,0,0,1.53-1l5.81-8.58.67,13.7a3.58,3.58,0,0,0,3.56,3.57h8.74a3.58,3.58,0,0,0,3.56-3.57l.67-13.7,5.83,8.58,0,0,.06.08.09.11,0,0a2.35,2.35,0,0,0,.86.6h0l.17.05.09,0,.12,0,.11,0h.61l.18,0h0l.21-.06h0a2,2,0,0,0,.53-.26,2.23,2.23,0,0,0,.92-1.27Z" transform="translate(-3.44 -19.36)"/><circle class="cls-44" cx="1393.59" cy="961.35" r="10.77"/><path class="cls-45" d="M1397.2,988.87h0a2.19,2.19,0,0,1,2.2,2.19v3.75a2.2,2.2,0,0,1-2.2,2.2h0a2.2,2.2,0,0,1-2.19-2.2v-3.75A2.19,2.19,0,0,1,1397.2,988.87Z" transform="translate(-3.44 -19.36)"/><circle class="cls-45" cx="1393.59" cy="963.22" r="8.33"/><circle class="cls-46" cx="1390.81" cy="960.92" r="0.5"/><circle class="cls-46" cx="1396.37" cy="960.92" r="0.5"/><path class="cls-13" d="M1399.08,985.38c0,.67-.92,1.22-2.06,1.22s-2-.55-2-1.22S1399.08,984.71,1399.08,985.38Z" transform="translate(-3.44 -19.36)"/><path class="cls-44" d="M1392.91,973.53s-1.34,6.71,13,5.36l-3.54-5.84Z" transform="translate(-3.44 -19.36)"/><ellipse class="cls-43" cx="1388.7" cy="982.08" rx="0.86" ry="1.48" transform="translate(-252.57 503.96) rotate(-19.62)"/><rect class="cls-31" x="1392.73" y="960.42" width="2.08" height="1"/><circle class="cls-13" cx="1406.42" cy="969.89" r="0.45"/><path class="cls-13" d="M1396.68,1005.64a3.23,3.23,0,1,0-4.56,4.58l4.58,4.56,4.55-4.58a3.23,3.23,0,0,0-4.49-4.64l-.08.08Z" transform="translate(-3.44 -19.36)"/><ellipse class="cls-43" cx="1405.64" cy="982.38" rx="1.48" ry="0.86" transform="translate(0.28 1950.71) rotate(-70.11)"/><circle class="cls-13" cx="1390.48" cy="974.45" r="0.61"/><rect class="cls-13" x="1390.19" y="974.45" width="0.53" height="6.25" rx="0.18"/><circle class="cls-13" cx="1397.36" cy="974.45" r="0.61"/><rect class="cls-13" x="1397.1" y="974.45" width="0.53" height="5.2" rx="0.18"/><circle class="cls-31" cx="1389.05" cy="960.92" r="4.05"/><circle class="cls-41" cx="1389.05" cy="960.92" r="2.84"/><circle class="cls-31" cx="1398.44" cy="960.92" r="4.05"/><circle class="cls-41" cx="1398.44" cy="960.92" r="2.84"/><path class="cls-47" d="M1466.59,1044.3a6.92,6.92,0,0,1-7,6.71h-.52a1.77,1.77,0,0,0-1.24.5,1.74,1.74,0,0,0-.5.87,1.51,1.51,0,0,0,0,.42v6.61a6.71,6.71,0,0,1-1,3.59,9.47,9.47,0,0,0-1.56,5.1h0a3.19,3.19,0,0,1-3.19,3.2h-.06a3.26,3.26,0,0,1-3.12-3.29v-1.67l-.87.11v1.65a3.19,3.19,0,0,1-3.19,3.2h-.06a3.25,3.25,0,0,1-3.12-3.29v-.85a24.12,24.12,0,0,1-7.16,0l-.37,0v1a3.2,3.2,0,0,1-3.2,3.2h0a3.26,3.26,0,0,1-3.13-3.29v-1.38l-.29,0v1.51a3.17,3.17,0,0,1-3.17,3.19h-.07a3.25,3.25,0,0,1-3.1-2.84,3.4,3.4,0,0,1,0-.45v-6.93a10.58,10.58,0,0,1,2.26-6.55,2,2,0,0,0,0-2.32c-1.62-2.38-4-6.39-3.94-9.23a3.13,3.13,0,0,1,.76-2.1l.1-.1a3.55,3.55,0,0,1,6.09,2.84,9.45,9.45,0,0,0,.24,3.35,10.49,10.49,0,0,0,.66,1.8,3,3,0,0,0,3.13,1.74,11.34,11.34,0,0,1,1.3-.08h13.4a3.76,3.76,0,0,0,3.56-2.55,3.6,3.6,0,0,0,.21-1.22v-10.42a2,2,0,0,1,2-2h.07a2,2,0,0,1,1.4.65,2.18,2.18,0,0,1,.56,1.46,1.07,1.07,0,0,0,1.07,1.08h6.32a6.79,6.79,0,0,1,6.8,6.8v.1Z" transform="translate(-3.44 -19.36)"/><path class="cls-48" d="M1426.8,1068.89a3.2,3.2,0,0,1-3.14,2.4,3.25,3.25,0,0,1-3.1-2.85C1422.49,1067.92,1425.16,1067.56,1426.8,1068.89Z" transform="translate(-3.44 -19.36)"/><path class="cls-48" d="M1433.47,1068.89a3.21,3.21,0,0,1-3.15,2.4,3.25,3.25,0,0,1-3.1-2.85C1429.15,1067.92,1431.82,1067.56,1433.47,1068.89Z" transform="translate(-3.44 -19.36)"/><path class="cls-48" d="M1447.37,1068.89a3.18,3.18,0,0,1-6.24-.45C1443.06,1067.92,1445.73,1067.56,1447.37,1068.89Z" transform="translate(-3.44 -19.36)"/><path class="cls-48" d="M1454.61,1068.89a3.21,3.21,0,0,1-3.15,2.4,3.25,3.25,0,0,1-3.09-2.85C1450.3,1067.92,1453,1067.56,1454.61,1068.89Z" transform="translate(-3.44 -19.36)"/><path class="cls-48" d="M1426.09,1047a45,45,0,0,1-7.19-4,3.16,3.16,0,0,1,.76-2.1l.1-.11a3.55,3.55,0,0,1,6.09,2.84A9.49,9.49,0,0,0,1426.09,1047Z" transform="translate(-3.44 -19.36)"/><path class="cls-48" d="M1428.82,1050.45s6.19,7.8,16.33,0" transform="translate(-3.44 -19.36)"/><path class="cls-48" d="M1448.34,1036a9.87,9.87,0,0,1,0,11" transform="translate(-3.44 -19.36)"/><path class="cls-48" d="M1457.32,1052.75s-3.32,4.12,0,7.4" transform="translate(-3.44 -19.36)"/><path class="cls-2" d="M1457.61,1051.88c-.25.23-.16.46-.24.8l-10.77-2.82a4.2,4.2,0,0,0,1.54-1.68C1449.43,1049.17,1452,1050.85,1457.61,1051.88Z" transform="translate(-3.44 -19.36)"/><path class="cls-49" d="M1457.87,1051.51a1.74,1.74,0,0,0-.5.87l-10.5-2.73a3.76,3.76,0,0,0,1.27-1.77C1449.43,1048.88,1452.24,1050.48,1457.87,1051.51Z" transform="translate(-3.44 -19.36)"/><path class="cls-2" d="M1448.53,1048.46a20.36,20.36,0,0,0,8.78,3.24" transform="translate(-3.44 -19.36)"/><path class="cls-47" d="M1448.53,1048.17a20.36,20.36,0,0,0,8.78,3.24" transform="translate(-3.44 -19.36)"/><path class="cls-2" d="M1456.74,1048.41s5.5,1.73,7-3.77Z" transform="translate(-3.44 -19.36)"/><path class="cls-48" d="M1456.74,1048.11s5.5,1.74,7-3.76Z" transform="translate(-3.44 -19.36)"/><ellipse class="cls-49" cx="1463.15" cy="1024.26" rx="0.58" ry="1.01"/><path class="cls-2" d="M1422.7,1064.48l1.16-9.26s-3.48,5.5-1.16,9.26" transform="translate(-3.44 -19.36)"/><path class="cls-48" d="M1424.15,1055.21s-3.47,5.51-1.16,9.26Z" transform="translate(-3.44 -19.36)"/><g class="cls-27"><rect class="cls-10" x="685.29" width="134.71" height="26.29" rx="13.14"/><rect class="cls-10" x="652.43" y="26.29" width="134.71" height="26.29" rx="13.14"/><rect class="cls-10" x="685.29" y="52.57" width="134.71" height="26.29" rx="13.14"/></g></g></svg>